<svg width="35" height="33" viewBox="0 0 35 33" fill="none" xmlns="http://www.w3.org/2000/svg">
<g clip-path="url(#clip0)">
<path d="M31.6199 4.50946H3.07336C1.39696 4.50946 0.0292969 5.77171 0.0292969 7.32196V26.072C0.0292969 27.6169 1.39087 28.8844 3.07336 28.8844H31.6199C33.2921 28.8844 34.664 27.6264 34.664 26.072V7.32196C34.664 5.77696 33.3024 4.50946 31.6199 4.50946ZM31.1996 6.38446L17.4112 19.124L3.50352 6.38446H31.1996ZM2.05867 25.6837V7.70127L11.8321 16.6538L2.05867 25.6837ZM3.49364 27.0094L13.2732 17.9738L16.6999 21.1127C17.0966 21.4761 17.7367 21.4749 18.1318 21.1098L21.473 18.0228L31.1996 27.0094H3.49364ZM32.6346 25.6836L22.908 16.697L32.6346 7.71021V25.6836Z" fill="#727272"/>
</g>
<defs>
<clipPath id="clip0">
<rect x="0.0292969" y="0.69696" width="34.6347" height="32" fill="white"/>
</clipPath>
</defs>
</svg>
