<svg width="35" height="26" viewBox="0 0 35 26" fill="none" xmlns="http://www.w3.org/2000/svg">
<g clip-path="url(#clip0)">
<path d="M30.0993 0.575745H4.8873C2.56984 0.575745 0.685303 1.98916 0.685303 3.72726V22.6363C0.685303 24.3744 2.56984 25.7879 4.8873 25.7879H30.0993C32.4168 25.7879 34.3013 24.3744 34.3013 22.6363V3.72726C34.3013 1.98916 32.4168 0.575745 30.0993 0.575745ZM4.8873 2.67675H30.0993C30.8718 2.67675 31.5 3.14789 31.5 3.72726V11.1711L26.8876 7.71179C26.3405 7.30169 25.4541 7.30169 24.907 7.71179L15.0421 15.1105L11.4803 12.4391C10.9331 12.029 10.0468 12.029 9.49965 12.4391L3.48664 16.9488V3.72726C3.48664 3.14789 4.11482 2.67675 4.8873 2.67675ZM30.0993 23.6868H4.8873C4.11482 23.6868 3.48664 23.2157 3.48664 22.6363V19.9198L10.49 14.6673L18.604 20.7523C18.8779 20.9583 19.2356 21.0606 19.5943 21.0606C19.953 21.0606 20.3107 20.9583 20.5846 20.7528C21.1314 20.3425 21.1314 19.6777 20.5846 19.2673L17.0228 16.5959L25.8973 9.94052L31.5 14.1425V22.6363C31.5 23.2157 30.8718 23.6868 30.0993 23.6868Z" fill="#727272"/>
<path d="M11.8906 6.87878C11.8906 8.03905 10.6363 8.97979 9.0893 8.97979C7.54227 8.97979 6.28796 8.03905 6.28796 6.87878C6.28796 5.71851 7.54227 4.77777 9.0893 4.77777C10.6363 4.77777 11.8906 5.71851 11.8906 6.87878Z" fill="#727272"/>
</g>
<defs>
<clipPath id="clip0">
<rect x="0.685303" y="0.575745" width="33.616" height="25.2121" fill="white"/>
</clipPath>
</defs>
</svg>
