<svg width="36" height="28" viewBox="0 0 36 28" fill="none" xmlns="http://www.w3.org/2000/svg">
<g clip-path="url(#clip0)">
<path d="M34.1602 12.3627C34.1591 12.362 34.1583 12.3612 34.1575 12.3606L20.0293 1.28531C19.4271 0.813013 18.6265 0.55304 17.7748 0.55304C16.9231 0.55304 16.1225 0.813013 15.52 1.28531L1.39919 12.355C1.39444 12.3587 1.38942 12.3627 1.38492 12.3664C0.148271 13.3414 0.150385 14.9234 1.391 15.896C1.9578 16.3406 2.70613 16.5978 3.50652 16.625C3.53929 16.6275 3.57206 16.6287 3.60509 16.6287H4.16792V24.7792C4.16792 26.3923 5.84216 27.7046 7.89981 27.7046H13.4272C13.9877 27.7046 14.4419 27.3483 14.4419 26.9091V20.519C14.4419 19.783 15.2058 19.1843 16.1447 19.1843H19.4049C20.3438 19.1843 21.1074 19.783 21.1074 20.519V26.9091C21.1074 27.3483 21.5617 27.7046 22.1221 27.7046H27.6495C29.7074 27.7046 31.3814 26.3923 31.3814 24.7792V16.6287H31.9036C32.7549 16.6287 33.5556 16.3687 34.1583 15.8962C35.4003 14.9222 35.4008 13.3373 34.1602 12.3627ZM32.7232 14.7714C32.5042 14.9431 32.213 15.0378 31.9036 15.0378H30.3667C29.8063 15.0378 29.352 15.3939 29.352 15.8332V24.7792C29.352 25.515 28.5884 26.1137 27.6495 26.1137H23.1368V20.519C23.1368 18.9059 21.4628 17.5934 19.4049 17.5934H16.1447C14.0868 17.5934 12.4125 18.9059 12.4125 20.519V26.1137H7.89981C6.96122 26.1137 6.1973 25.515 6.1973 24.7792V15.8332C6.1973 15.3939 5.74307 15.0378 5.18261 15.0378H3.6722C3.65635 15.037 3.64076 15.0363 3.62464 15.0361C3.32235 15.032 3.03882 14.9379 2.82636 14.7712C2.37451 14.417 2.37451 13.8405 2.82636 13.486C2.82663 13.486 2.82663 13.4858 2.82689 13.4856L2.82769 13.485L16.9554 2.41014C17.1742 2.23841 17.4651 2.14395 17.7748 2.14395C18.0842 2.14395 18.3752 2.23841 18.5942 2.41014L32.7187 13.4827C32.7209 13.4844 32.7232 13.486 32.7253 13.4877C33.1748 13.8425 33.174 14.4178 32.7232 14.7714Z" fill="#727272"/>
</g>
<defs>
<clipPath id="clip0">
<rect x="0.391968" y="0.606079" width="34.6347" height="27.1515" fill="white"/>
</clipPath>
</defs>
</svg>
