<svg width="68" height="60" viewBox="0 0 68 60" fill="none" xmlns="http://www.w3.org/2000/svg">
<ellipse cx="32.5" cy="22" rx="20.5" ry="19" fill="#F6F6F6"/>
<path d="M31.5748 7.98629C34.5986 7.72886 37.7151 8.19364 40.4204 9.43671C41.8358 10.0497 43.1178 10.8811 44.2734 11.8267C46.8815 14.0414 48.6301 17.0444 49.1045 20.2227C49.7122 24.0821 48.4211 28.1319 45.6311 31.1409C42.7406 34.2972 38.2539 36.2714 33.6622 36.3476C30.5243 36.4387 27.3626 35.6795 24.7036 34.197C21.4358 32.405 18.953 29.5202 17.8596 26.2537C16.3629 21.9946 17.3354 17.1285 20.3977 13.5886C23.0149 10.4384 27.192 8.37494 31.5748 7.98629ZM28.6311 14.402C27.6744 14.6173 26.9085 15.3506 26.7131 16.206C26.4906 16.9062 26.8159 17.6304 27.2417 18.2163C27.9285 19.0758 28.8401 19.83 29.9482 20.2377C30.4576 20.3619 31.1286 20.423 31.4946 20.0063C32.1102 19.3502 32.1463 18.4387 32.135 17.6254C32.1271 16.6628 31.8944 15.604 31.0687 14.9219C30.4294 14.3769 29.4749 14.2437 28.6311 14.402ZM36.1653 14.439C35.6808 14.5973 35.2289 14.8678 34.9081 15.2294C34.6325 15.632 34.3738 16.0618 34.2959 16.5345C34.1332 17.39 34.1016 18.2795 34.3196 19.1289C34.4631 19.5856 34.7184 20.0795 35.2323 20.2858C36.215 20.4881 37.1074 19.9522 37.8303 19.4304C38.7159 18.7222 39.5879 17.8377 39.667 16.7319C39.6444 15.7082 38.8684 14.6704 37.7185 14.412C37.2102 14.3158 36.6669 14.3048 36.1653 14.439ZM23.5447 19.8981C22.8974 20.1686 22.3541 20.6905 22.2423 21.3325C22.0717 22.0397 22.3507 22.829 22.99 23.2858C23.7356 23.8167 24.7059 24.032 25.6423 24.1072C26.2805 24.1342 27.0328 24.1472 27.5095 23.7055C27.8302 23.436 27.802 23.0043 27.7196 22.6537C27.4869 21.7202 26.7933 20.9429 26.041 20.2868C25.3847 19.7349 24.3749 19.6137 23.5447 19.8981ZM40.8519 19.9332C39.8952 20.424 39.2321 21.2784 38.7656 22.1499C38.5284 22.6718 38.3307 23.418 38.9305 23.8127C39.5936 24.2254 40.469 24.1432 41.2292 24.0491C42.204 23.8577 43.3324 23.5703 43.8317 22.7259C44.4869 21.7412 43.9571 20.2638 42.7101 19.8941C42.117 19.6968 41.428 19.6788 40.8519 19.9332ZM32.6964 21.5048C31.5307 21.8554 30.4825 22.4805 29.5924 23.2297C28.7915 23.8678 28.011 24.5619 27.5219 25.4254C27.0441 26.3078 26.878 27.3866 27.3694 28.2951C27.9522 29.5282 29.598 30.2714 31.0642 29.9609C31.7826 29.8227 32.3135 29.3439 32.8794 28.9633C33.0104 28.8611 33.2183 28.817 33.3685 28.9172C33.8881 29.2247 34.3061 29.6744 34.9093 29.8648C36.4861 30.4147 38.4279 29.5623 38.9938 28.1659C39.4659 27.2354 39.2061 26.1546 38.7023 25.2801C37.9693 24.1402 36.86 23.2277 35.674 22.4614C34.7861 21.9626 33.817 21.2805 32.6964 21.5048Z" fill="#EB7859"/>
<path d="M28.6312 14.402C29.475 14.2437 30.4295 14.377 31.0688 14.9219C31.8945 15.604 32.1272 16.6628 32.1351 17.6254C32.1464 18.4387 32.1103 19.3502 31.4947 20.0063C31.1287 20.423 30.4577 20.3619 29.9483 20.2377C28.8402 19.83 27.9286 19.0758 27.2419 18.2164C26.816 17.6304 26.4907 16.9062 26.7132 16.206C26.9086 15.3506 27.6745 14.6174 28.6312 14.402Z" fill="white"/>
<path d="M36.1654 14.4391C36.6669 14.3048 37.2102 14.3159 37.7185 14.412C38.8684 14.6705 39.6444 15.7082 39.667 16.7319C39.588 17.8377 38.7159 18.7222 37.8304 19.4304C37.1074 19.9523 36.2151 20.4882 35.2324 20.2858C34.7184 20.0795 34.4631 19.5857 34.3197 19.1289C34.1017 18.2795 34.1333 17.39 34.2959 16.5346C34.3739 16.0618 34.6326 15.6321 34.9082 15.2294C35.229 14.8678 35.6808 14.5973 36.1654 14.4391Z" fill="white"/>
<path d="M23.5448 19.8982C24.375 19.6137 25.3849 19.7349 26.0411 20.2868C26.7934 20.9429 27.487 21.7202 27.7197 22.6538C27.8021 23.0044 27.8304 23.4361 27.5096 23.7055C27.0329 24.1473 26.2806 24.1342 25.6424 24.1072C24.706 24.0321 23.7357 23.8167 22.9902 23.2858C22.3508 22.8291 22.0718 22.0398 22.2424 21.3326C22.3542 20.6905 22.8975 20.1686 23.5448 19.8982Z" fill="white"/>
<path d="M40.852 19.9332C41.4281 19.6788 42.1171 19.6968 42.7102 19.8942C43.9572 20.2638 44.487 21.7412 43.8318 22.7259C43.3326 23.5703 42.2041 23.8578 41.2293 24.0491C40.4691 24.1433 39.5937 24.2254 38.9306 23.8127C38.3308 23.418 38.5285 22.6718 38.7657 22.1499C39.2322 21.2785 39.8953 20.4241 40.852 19.9332Z" fill="white"/>
<path d="M32.6965 21.5049C33.817 21.2805 34.7862 21.9626 35.674 22.4615C36.8601 23.2277 37.9693 24.1403 38.7024 25.2802C39.2062 26.1546 39.466 27.2354 38.9938 28.166C38.4279 29.5623 36.4862 30.4147 34.9093 29.8648C34.3061 29.6745 33.8882 29.2247 33.3686 28.9172C33.2184 28.8171 33.0105 28.8611 32.8795 28.9633C32.3136 29.3439 31.7827 29.8227 31.0643 29.961C29.5981 30.2715 27.9523 29.5282 27.3695 28.2952C26.8781 27.3867 27.0441 26.3079 27.5219 25.4254C28.011 24.562 28.7916 23.8678 29.5924 23.2297C30.4825 22.4805 31.5308 21.8555 32.6965 21.5049Z" fill="white"/>
<path d="M28.2595 41.4992C28.8028 41.3309 29.4117 41.8087 29.2739 42.3085C29.1801 42.7913 28.482 43.0297 28.0336 42.7583C27.4948 42.4688 27.6236 41.6174 28.2595 41.4992Z" fill="#4A3B34"/>
<path d="M48.8752 42.1012C49.2751 41.983 49.7529 41.8738 50.1358 42.0952C50.3471 42.2184 50.3358 42.4688 50.3392 42.6681C50.3301 44.1185 50.3471 45.569 50.3301 47.0204C49.8783 47.0865 49.3835 47.1406 48.9792 46.9032C48.934 46.6948 48.8786 46.4855 48.8809 46.2731C48.8798 44.8818 48.8922 43.4915 48.8752 42.1012Z" fill="#4A3B34"/>
<path d="M51.3513 42.0471C51.7963 41.9579 52.2854 41.9148 52.6966 42.1272C52.936 42.9285 52.7463 43.7729 52.8208 44.5913C53.3359 44.1365 53.7945 43.6307 54.3277 43.194C54.8043 43.1098 55.4539 43.4985 55.2754 43.9793C55.0574 44.4681 54.4519 44.6815 54.1074 45.0861C54.1029 45.2153 54.2542 45.2845 54.3344 45.3756C54.7117 45.6941 55.0754 46.0257 55.4471 46.3502C55.3804 46.6427 55.2539 46.9893 54.8733 47.0514C54.3333 47.1946 53.886 46.806 53.5991 46.4514C53.3416 46.1739 53.1055 45.8795 52.8186 45.624C52.8061 46.0858 52.8141 46.5476 52.8039 47.0083C52.3114 47.0794 51.6088 47.2087 51.349 46.7068C51.3558 45.1532 51.3513 43.5996 51.3513 42.0471Z" fill="#4A3B34"/>
<path d="M7.22589 42.4748C8.09001 42.1042 9.12356 42.1052 10.0487 42.2835C10.9444 42.4367 11.7024 43.0778 11.9034 43.8681C12.1305 44.7286 12.0265 45.7332 11.3465 46.4194C10.6801 47.0575 9.62961 47.2217 8.69094 47.1766C8.23233 47.1316 7.73984 47.1055 7.33997 46.8822C7.01579 46.6357 7.10954 46.212 7.10163 45.8765C7.09711 45.1423 7.09373 44.408 7.10276 43.6738C7.13665 43.2792 6.98642 42.8284 7.22589 42.4748ZM8.60509 43.2731C8.60396 44.2217 8.59944 45.1693 8.60961 46.1179C9.24668 46.2331 10.0972 46.1039 10.3288 45.4818C10.5525 44.8518 10.5784 44.0224 9.99446 43.5326C9.61718 43.2201 9.07951 43.2671 8.60509 43.2731Z" fill="#4A3B34"/>
<path d="M36.4252 42.5258C36.781 42.3335 37.2317 42.1682 37.6372 42.3475C38.0664 42.4808 38.0133 42.9536 38.0992 43.2741C38.2856 44.1515 38.3319 45.0571 38.6109 45.9155C38.7894 45.0801 39.0412 44.2577 39.2468 43.4273C39.7201 43.3332 40.268 43.2601 40.6961 43.5145C41.0519 44.2818 41.1739 45.1192 41.4834 45.9025C41.7251 44.7536 41.8313 43.5846 41.9679 42.4237C42.361 42.2714 42.8388 42.1893 43.2206 42.4157C43.4816 42.5449 43.4194 42.8514 43.4115 43.0728C43.2602 44.2768 43.0422 45.4828 42.6457 46.6447C42.5395 47.0113 42.0312 47.0203 41.6856 47.0724C41.288 47.0814 40.7367 47.0744 40.5311 46.7158C40.3097 46.1739 40.1844 45.606 39.9867 45.0581C39.7992 45.6621 39.6682 46.2781 39.4694 46.8791C38.8413 47.1536 38.0777 47.1455 37.4768 46.819C37.3672 46.5726 37.252 46.3272 37.1842 46.0687C36.8476 44.9038 36.5946 43.7188 36.4252 42.5258Z" fill="#4A3B34"/>
<path d="M14.1603 43.221C15.0221 43.0267 16.0613 43.187 16.6374 43.83C17.34 44.6394 17.2993 45.9346 16.4804 46.6698C15.5022 47.4341 13.7502 47.3469 12.9821 46.3733C12.4998 45.7192 12.4738 44.8407 12.8488 44.1426C13.0996 43.6788 13.6045 43.3482 14.1603 43.221ZM14.507 44.2367C13.9784 44.5743 13.9897 45.2785 14.2043 45.7683C14.3884 46.227 15.2017 46.2972 15.4626 45.8644C15.7044 45.4527 15.7179 44.9239 15.4909 44.5052C15.3294 44.1746 14.8493 44.0855 14.507 44.2367Z" fill="#4A3B34"/>
<path d="M18.5385 43.4865C19.327 43.0728 20.3571 43.0818 21.1772 43.4244C21.4652 43.5596 21.8312 43.7429 21.838 44.0705C21.8538 45.0381 21.8402 46.0067 21.8425 46.9743C21.8606 47.5302 21.4359 48.0481 20.8699 48.2655C20.1764 48.5279 19.3812 48.5409 18.6594 48.3676C18.4199 48.3045 18.1601 48.2144 18.046 48.002C17.9093 47.7206 17.9907 47.402 18.1782 47.1566C18.7881 47.4151 19.5269 47.5903 20.173 47.3269C20.4384 47.2338 20.4882 46.9593 20.5266 46.7399C19.9652 46.8802 19.3563 46.9503 18.8028 46.7419C17.9941 46.4995 17.6236 45.6832 17.6744 44.976C17.6507 44.389 17.9636 43.794 18.5385 43.4865ZM19.2852 44.4541C19.0028 44.8177 19.0965 45.3136 19.3055 45.6892C19.6692 45.8755 20.0996 45.9005 20.4757 45.7252C20.4678 45.2535 20.4633 44.7807 20.4769 44.3089C20.0928 44.1506 19.5709 44.1326 19.2852 44.4541Z" fill="#4A3B34"/>
<path d="M23.565 43.4454C24.3557 43.0768 25.3441 43.0888 26.145 43.4294C26.4296 43.5596 26.7595 43.7359 26.7866 44.0514C26.8159 44.993 26.7877 45.9356 26.8001 46.8771C26.8261 47.397 26.5234 47.9379 25.9936 48.1823C25.2244 48.5529 24.2699 48.5649 23.451 48.3215C23.1211 48.2324 22.9438 47.9659 22.8817 47.6805C22.972 47.5212 22.9539 47.2778 23.1607 47.1936C23.783 47.39 24.4879 47.6003 25.1272 47.3259C25.4085 47.2347 25.4266 46.9442 25.4785 46.7229C24.7974 46.9472 23.9841 46.9432 23.3741 46.5626C22.8127 46.21 22.588 45.5679 22.6298 44.98C22.6072 44.3689 22.9449 43.7389 23.565 43.4454ZM24.1637 44.5693C23.9988 44.9018 24.0067 45.3205 24.2394 45.625C24.5365 45.9195 25.0131 45.8845 25.3893 45.7462C25.3938 45.2604 25.4209 44.7736 25.3803 44.2898C24.9883 44.1155 24.3535 44.1656 24.1637 44.5693Z" fill="#4A3B34"/>
<path d="M27.7569 43.2832C28.1906 43.1539 28.6718 43.1199 29.0864 43.3182C29.153 43.4985 29.2151 43.6838 29.205 43.8771C29.1971 44.9229 29.2061 45.9686 29.2016 47.0144C28.7543 47.0865 28.264 47.1396 27.8631 46.9052C27.8066 46.6978 27.7467 46.4885 27.7569 46.2741C27.7603 45.2765 27.7614 44.2798 27.7569 43.2832Z" fill="#4A3B34"/>
<path d="M30.6203 43.6748C31.6109 42.8594 33.5595 43.0387 34.0858 44.2207C34.2338 44.5843 34.3581 45.2074 33.791 45.3246C33.0082 45.4788 32.2028 45.5249 31.4155 45.6621C31.5488 45.8424 31.7058 46.0267 31.9611 46.0728C32.5711 46.2651 33.2127 46.0718 33.8001 45.9105C33.9119 46.1149 34.1118 46.3382 34.0022 46.5766C33.8848 46.9613 33.3889 47.0715 33.0014 47.1306C32.0492 47.2878 30.9174 47.0715 30.3504 46.3192C29.8048 45.5159 29.8443 44.3529 30.6203 43.6748ZM31.3026 44.8468C31.8278 44.7827 32.3519 44.7155 32.8738 44.6334C32.7326 44.401 32.5383 44.1256 32.1904 44.1706C31.7216 44.1165 31.3557 44.4521 31.3026 44.8468Z" fill="#4A3B34"/>
<path d="M44.2407 43.6557C44.409 43.2981 44.8958 43.234 45.2765 43.1799C46.0401 43.1118 46.9212 43.1098 47.5266 43.5926C47.8813 43.8531 47.9807 44.2838 47.9558 44.6744C47.9321 45.2855 47.9931 45.9005 47.9287 46.5085C47.713 46.8791 47.2239 47.0334 46.7879 47.1065C46.0367 47.2347 45.202 47.2187 44.522 46.8761C43.7685 46.4925 43.7493 45.3526 44.5242 44.982C45.1602 44.7075 45.8899 44.7576 46.5721 44.6494C46.536 44.5412 46.5021 44.433 46.4705 44.3249C45.8537 44.0434 45.1342 44.1836 44.5107 44.3699C44.2 44.2798 44.1899 43.8951 44.2407 43.6557ZM45.3782 45.6531C45.3714 45.7442 45.3578 45.9265 45.3511 46.0187C45.7069 46.2541 46.1632 46.179 46.5687 46.1118C46.5642 45.9015 46.5608 45.6911 46.5597 45.4808C46.1587 45.4848 45.7543 45.5229 45.3782 45.6531Z" fill="#4A3B34"/>
<path d="M56.0899 44.0184C56.2808 43.4464 56.9969 43.203 57.6103 43.161C58.1841 43.1279 58.8392 43.1399 59.299 43.4895C59.5712 43.7399 59.4515 44.1065 59.3001 44.382C58.6947 44.2658 58.0124 44.0024 57.4273 44.3159C57.4318 44.367 57.442 44.4691 57.4465 44.5212C58.0327 44.7556 58.7319 44.7456 59.2493 45.1172C59.7734 45.4778 59.8016 46.2231 59.3984 46.6658C58.9499 47.1025 58.2394 47.1887 57.608 47.1797C57.1076 47.1446 56.5304 47.0945 56.1814 46.7339C55.9498 46.4645 56.0662 46.0718 56.326 45.8494C56.9145 46.0898 57.6385 46.3112 58.253 46.0117C58.2225 45.8835 58.2462 45.7072 58.0542 45.6842C57.4962 45.5229 56.8501 45.5129 56.3892 45.1503C56.0085 44.8848 56.0018 44.402 56.0899 44.0184Z" fill="#4A3B34"/>
<path d="M5.28186 50.9038C5.36658 50.8958 5.53488 50.8808 5.61847 50.8728C5.62412 51.2053 5.62638 51.5379 5.62073 51.8704C6.06126 51.8935 6.50179 51.8905 6.94233 51.8805C6.94007 51.5389 6.9412 51.1973 6.9491 50.8568C7.02704 50.8698 7.18067 50.8948 7.25861 50.9068C7.29023 51.6681 7.26764 52.4314 7.26651 53.1936C7.18631 53.1926 7.02704 53.1916 6.94684 53.1916C6.94346 52.824 6.94233 52.4574 6.94459 52.0908C6.50405 52.0828 6.06352 52.0838 5.62299 52.0938C5.61056 52.5145 5.66027 52.9382 5.59362 53.3569C5.58007 53.3068 5.55183 53.2067 5.53827 53.1576L5.28525 53.1896C5.29316 52.4274 5.2988 51.6651 5.28186 50.9038Z" fill="#4A3B34"/>
<path d="M8.64575 50.8938C9.16196 50.8788 9.67818 50.8838 10.1944 50.8918C10.1966 50.9409 10.2 51.0391 10.2012 51.0892C9.79791 51.0852 9.39466 51.0852 8.9914 51.0821C8.98236 51.3456 8.9801 51.61 8.97897 51.8735C9.30203 51.8885 9.62622 51.8755 9.94927 51.8985C9.98203 51.9396 10.0487 52.0217 10.0814 52.0628C9.71545 52.0908 9.34834 52.0878 8.98236 52.0888C8.98349 52.3873 8.98349 52.6858 8.98349 52.9853C9.37884 52.9923 9.77532 52.9713 10.1695 53.0023C10.1831 53.0494 10.2091 53.1446 10.2215 53.1917C9.69738 53.1907 9.17326 53.1937 8.65027 53.1796C8.65479 52.4174 8.66157 51.6551 8.64575 50.8938Z" fill="#4A3B34"/>
<path d="M11.4572 50.9019C11.5396 50.8959 11.7034 50.8818 11.7847 50.8748C11.7926 51.577 11.7983 52.2792 11.7813 52.9823C12.1677 52.9913 12.5551 52.9693 12.9403 53.0034C12.9561 53.0464 12.9855 53.1326 13.0013 53.1756C12.4873 53.1957 11.9734 53.1937 11.4605 53.1807C11.4617 52.4214 11.4673 51.6611 11.4572 50.9019Z" fill="#4A3B34"/>
<path d="M14.053 50.9149C14.5274 50.8838 15.0594 50.8187 15.4796 51.0641C15.8693 51.2915 15.8456 51.8504 15.4774 52.0828C15.1611 52.2872 14.7544 52.2781 14.3828 52.3072C14.3885 52.6027 14.3907 52.8982 14.3885 53.1937C14.306 53.1927 14.1411 53.1897 14.0598 53.1887C14.062 52.4304 14.0643 51.6731 14.053 50.9149ZM14.3839 51.0932C14.3896 51.4247 14.3907 51.7573 14.3896 52.0898C14.6957 52.0738 15.056 52.1369 15.3023 51.9336C15.5135 51.7583 15.4062 51.4828 15.3938 51.2624C15.0967 51.0711 14.733 51.0681 14.3839 51.0932Z" fill="#4A3B34"/>
<path d="M18.701 50.8858C18.7801 50.8868 18.9371 50.8898 19.0151 50.8908C19.0851 51.4547 18.9823 52.0267 19.0648 52.5896C19.1495 53.1155 20.1243 53.1446 20.2497 52.6307C20.3593 52.0557 20.287 51.4668 20.2994 50.8858C20.3785 50.8858 20.5377 50.8848 20.6168 50.8838C20.5807 51.4768 20.7004 52.0858 20.5422 52.6668C20.2847 53.388 18.8999 53.3449 18.744 52.5856C18.6604 52.0227 18.7304 51.4517 18.701 50.8858Z" fill="#4A3B34"/>
<path d="M21.856 51.2725C22.2322 50.7997 22.9562 50.8227 23.5063 51.006C23.4577 51.0751 23.408 51.1453 23.3583 51.2154C22.9946 51.0591 22.5146 50.998 22.1938 51.2615C22.1971 51.3496 22.2028 51.5249 22.2062 51.613C22.5835 51.8645 23.0872 51.9306 23.425 52.2291C23.6441 52.4885 23.4973 52.808 23.2973 53.0344C22.7936 53.2598 22.2152 53.2057 21.7069 53.0254C21.7544 52.9733 21.8481 52.8691 21.8955 52.817C22.1858 52.9142 22.4818 53.0514 22.8026 52.9773C23.129 52.9573 23.3493 52.5676 23.1053 52.3503C22.8003 52.0838 22.3248 52.0588 22.0096 51.8034C21.8594 51.6601 21.8843 51.4518 21.856 51.2725Z" fill="#4A3B34"/>
<path d="M26.6093 50.8848C26.6928 50.8848 26.86 50.8848 26.9436 50.8848C26.9425 51.2174 26.9425 51.5509 26.9425 51.8845C27.3853 51.8885 27.8281 51.8885 28.2708 51.8775C28.2629 51.5469 28.2629 51.2164 28.2618 50.8858C28.3454 50.8888 28.5137 50.8938 28.5984 50.8968C28.5984 51.6531 28.5894 52.4104 28.6029 53.1666C28.5194 53.1757 28.3522 53.1917 28.2686 53.2007C28.2618 52.8311 28.2618 52.4625 28.2641 52.0948C27.8235 52.0848 27.383 52.0858 26.9425 52.0898C26.9447 52.4555 26.9413 52.8221 26.9413 53.1887C26.8589 53.1887 26.694 53.1887 26.6115 53.1887C26.6172 52.4204 26.6172 51.6521 26.6093 50.8848Z" fill="#4A3B34"/>
<path d="M29.9844 50.8908C30.5052 50.8778 31.0259 50.8788 31.5466 50.8968C31.5263 50.9409 31.4868 51.028 31.4676 51.0711C31.0846 51.1022 30.6995 51.0791 30.3165 51.0831C30.3177 51.3476 30.3165 51.612 30.3109 51.8775C30.6949 51.8965 31.1016 51.8324 31.463 51.9796C31.1174 52.1659 30.6961 52.0638 30.3131 52.0888C30.3143 52.3853 30.3143 52.6828 30.3143 52.9803C30.7062 52.9953 31.105 52.9573 31.4947 53.0144C31.515 53.0524 31.5579 53.1305 31.5783 53.1696C31.0474 53.1997 30.5142 53.1916 29.9822 53.1856C29.9901 52.4214 29.989 51.6561 29.9844 50.8908Z" fill="#4A3B34"/>
<path d="M32.7315 50.9028C32.8162 50.8968 32.9857 50.8828 33.0704 50.8758C33.0715 51.576 33.0783 52.2761 33.0659 52.9773C33.5041 53.0133 33.974 52.9102 34.3841 53.0875C33.8679 53.2908 33.2771 53.1596 32.7292 53.1736C32.7496 52.4174 32.7439 51.6601 32.7315 50.9028Z" fill="#4A3B34"/>
<path d="M35.377 50.9119C35.8412 50.8858 36.3484 50.8207 36.7674 51.0481C37.1086 51.2384 37.1888 51.7002 36.9143 51.9666C36.6217 52.2982 36.0965 52.2711 35.6718 52.3132C35.6729 52.6007 35.6898 52.8892 35.7271 53.1766C35.6401 53.1806 35.4662 53.1897 35.3792 53.1937C35.3815 52.4334 35.3837 51.6731 35.377 50.9119ZM35.709 51.0892C35.7113 51.4227 35.7124 51.7573 35.7124 52.0918C36.0163 52.0688 36.3958 52.1449 36.6217 51.9125C36.8228 51.7312 36.7821 51.4417 36.6364 51.2434C36.3902 51.0311 36.0197 51.0972 35.709 51.0892Z" fill="#4A3B34"/>
<path d="M40.7707 50.8979C40.8622 50.8928 41.0429 50.8838 41.1344 50.8798C41.4518 51.578 41.7703 52.2772 42.0979 52.9713C42.1871 53.1346 41.907 53.1266 41.7986 53.1496C41.7364 52.9292 41.6551 52.7149 41.5783 52.5005C41.1547 52.4835 40.7323 52.4845 40.3098 52.4955C40.224 52.7219 40.1302 52.9463 40.0353 53.1706C39.945 53.1396 39.8557 53.1085 39.7665 53.0775C40.0771 52.3423 40.4476 51.6281 40.7707 50.8979ZM40.4069 52.2731C40.7526 52.2912 41.1005 52.2932 41.4462 52.2721C41.2609 51.9105 41.1457 51.5219 40.9119 51.1803C40.7582 51.5499 40.6114 51.9226 40.4069 52.2731Z" fill="#4A3B34"/>
<path d="M43.2354 50.8918C43.3924 50.8918 43.5505 50.8928 43.7098 50.8959C44.0814 51.5439 44.4677 52.186 44.8721 52.8181C44.8958 52.176 44.8766 51.5329 44.8834 50.8918C44.9625 50.8918 45.1206 50.8938 45.1997 50.8938C45.1997 51.6561 45.2031 52.4184 45.1985 53.1807C45.0415 53.1797 44.8856 53.1777 44.7298 53.1756C44.3751 52.5256 43.9617 51.9025 43.5697 51.2715C43.5573 51.9125 43.5686 52.5546 43.5584 53.1967C43.4782 53.1887 43.3167 53.1736 43.2354 53.1656C43.2489 52.4074 43.2489 51.6491 43.2354 50.8918Z" fill="#4A3B34"/>
<path d="M46.5925 50.8848C46.6749 50.8848 46.8398 50.8838 46.9223 50.8838C46.9167 51.6541 46.9223 52.4244 46.9189 53.1956C46.8365 53.1926 46.6727 53.1886 46.5902 53.1866C46.5913 52.4193 46.5891 51.6521 46.5925 50.8848Z" fill="#4A3B34"/>
<path d="M48.3195 50.9149C48.4799 50.8988 48.6403 50.8848 48.8029 50.8728C49.03 51.3546 49.2751 51.8294 49.5055 52.3102C49.8636 51.8915 50.0059 51.3626 50.2634 50.8938C50.425 50.8878 50.5876 50.8828 50.7503 50.8798C50.7401 51.6491 50.739 52.4184 50.7526 53.1877C50.6712 53.1877 50.5108 53.1877 50.4306 53.1877C50.4261 52.5476 50.4521 51.9065 50.4092 51.2675C50.1652 51.7272 49.9268 52.189 49.71 52.6598C49.6241 52.6598 49.4513 52.6598 49.3643 52.6598C49.1339 52.193 48.8955 51.7292 48.6595 51.2655C48.6267 51.9085 48.6549 52.5526 48.6391 53.1957C48.5601 53.1907 48.4008 53.1796 48.3217 53.1746C48.3262 52.4214 48.3341 51.6681 48.3195 50.9149Z" fill="#4A3B34"/>
<path d="M51.8325 53.0965C52.1386 52.3463 52.5227 51.623 52.8503 50.8808C52.9406 50.8858 53.1214 50.8968 53.2117 50.9018C53.537 51.627 53.8748 52.3473 54.208 53.0705C54.1278 53.0945 53.9674 53.1426 53.8872 53.1666C53.8126 52.9503 53.7302 52.7359 53.6647 52.5185C53.2388 52.4725 52.8096 52.4885 52.3826 52.4905C52.2934 52.7129 52.203 52.9352 52.1127 53.1576C52.0189 53.1366 51.9251 53.1165 51.8325 53.0965ZM52.5136 52.2721C52.8435 52.2861 53.1756 52.2902 53.5065 52.2932C53.3484 51.9255 53.1891 51.5579 53.0434 51.1863C52.7847 51.5129 52.682 51.9075 52.5136 52.2721Z" fill="#4A3B34"/>
<path d="M55.3025 50.8818C55.3861 50.8838 55.5533 50.8888 55.6368 50.8918C55.6323 51.591 55.6368 52.2911 55.6346 52.9913C56.0209 52.9943 56.4129 52.9542 56.7969 53.0133C56.8172 53.0524 56.8602 53.1305 56.8805 53.1696C56.3553 53.1996 55.83 53.1896 55.3047 53.1886C55.307 52.4193 55.3093 51.6501 55.3025 50.8818Z" fill="#4A3B34"/>
<path d="M58.2574 50.9499C58.6743 50.7987 59.1385 50.8978 59.5293 51.0651C59.099 51.3055 58.5184 50.8698 58.1332 51.2654C58.1309 51.3466 58.1264 51.5089 58.1241 51.59C58.4608 51.8354 58.9047 51.9095 59.2503 52.1369C59.6152 52.3763 59.5079 52.9382 59.0899 53.0755C58.6539 53.2778 58.1513 53.1726 57.7096 53.0484C57.7457 52.9623 57.7853 52.8771 57.8271 52.793C58.2032 53.0084 58.9149 53.1546 59.1261 52.6938C59.2244 51.9826 57.983 52.186 57.8248 51.586C57.7164 51.3095 57.9683 51.0301 58.2574 50.9499Z" fill="#4A3B34"/>
</svg>
