<svg width="43" height="36" viewBox="0 0 43 36" fill="none" xmlns="http://www.w3.org/2000/svg">
<path d="M21.584 0.727295C19.6035 0.727295 17.6505 0.959333 15.7619 1.39399C15.0739 0.977203 14.2245 0.727295 13.3032 0.727295C11.075 0.727295 9.25754 2.17148 9.17128 3.9728C3.54496 7.25075 0.192017 12.5368 0.192017 18.1818C0.192017 27.8067 9.78789 35.6364 21.584 35.6364C33.3802 35.6364 42.976 27.8067 42.976 18.1818C42.976 8.55693 33.3802 0.727295 21.584 0.727295ZM10.543 4.10559C10.543 2.86347 11.7809 1.85339 13.3032 1.85339C14.8256 1.85339 16.0635 2.86347 16.0635 4.10559V5.23169C16.0635 6.47381 14.8256 7.48389 13.3032 7.48389C11.7809 7.48389 10.543 6.47381 10.543 5.23169V4.10559ZM12.6132 21.5601V32.7711C11.3857 32.2666 10.2303 31.6618 9.16286 30.9698V19.3079H17.4436V34.1567C16.2512 33.9511 15.0982 33.6577 13.9933 33.2868V21.5601H12.6132ZM6.4026 15.3666H7.78273V23.2493C7.78273 23.5599 7.47341 23.8123 7.09266 23.8123C6.71192 23.8123 6.4026 23.5599 6.4026 23.2493V15.3666ZM18.8238 22.6862H19.9596C20.0425 22.6862 20.123 22.6948 20.2039 22.7003V23.2493C20.2039 23.5599 19.8946 23.8123 19.5138 23.8123C19.1331 23.8123 18.8238 23.5599 18.8238 23.2493V22.6862ZM19.9596 21.5601H18.8238V15.3666H20.2039V21.5742C20.1217 21.5703 20.0418 21.5601 19.9596 21.5601ZM20.2039 14.2405H18.8238V11.9883H17.4436V18.1818H9.16286V11.9883H7.78273V14.2405H6.4026V12.0576C6.4026 11.2812 7.04785 10.6071 7.97041 10.4185L10.9254 9.81609C11.3227 10.2422 12.1047 10.8622 13.3032 10.8622C14.5018 10.8622 15.2838 10.2422 15.6804 9.81609L18.6354 10.4185C19.5586 10.6071 20.2039 11.2812 20.2039 12.0576V14.2405ZM14.6834 9.01771C14.5122 9.23325 14.0368 9.73609 13.3032 9.73609C12.5697 9.73609 12.0943 9.23325 11.9231 9.01771V8.41287C12.3558 8.53851 12.8187 8.60999 13.3032 8.60999C13.7878 8.60999 14.2507 8.53796 14.6834 8.41287V9.01771ZM1.57215 18.1818C1.57215 13.1729 4.39103 8.46483 9.17196 5.37575C9.22081 6.3149 9.73971 7.15398 10.543 7.74287V8.73343L7.63649 9.32672C6.09766 9.64041 5.02247 10.7632 5.02247 12.0576V23.2493C5.02247 24.1805 5.95143 24.9384 7.09266 24.9384C7.3356 24.9384 7.56607 24.898 7.78273 24.8348V29.9891C3.96042 27.0133 1.57215 22.822 1.57215 18.1818ZM18.8238 34.3514V24.8348C19.0404 24.898 19.2709 24.9384 19.5138 24.9384C20.6551 24.9384 21.584 24.1805 21.584 23.2493V23.0662C22.0483 23.304 22.4348 23.6446 22.6916 24.0647C23.3894 25.2043 24.7426 25.9372 26.2777 26.0431C25.4879 26.8371 25.0343 27.8337 25.0343 28.8798V32.8211C25.0343 33.3561 25.347 33.8285 25.8238 34.138C24.4561 34.3797 23.0386 34.5103 21.584 34.5103C20.647 34.5103 19.7271 34.4534 18.8238 34.3514ZM33.7097 18.9953L34.0466 18.5832C34.2515 18.3322 34.5952 18.1818 34.9665 18.1818C35.3873 18.1818 35.7661 18.3726 35.9548 18.6808L36.5303 19.6194C36.6839 19.871 36.7654 20.1525 36.7654 20.434C36.7654 20.9154 36.3914 21.3237 35.8698 21.4848C35.5228 20.464 34.7478 19.5878 33.7097 18.9953ZM34.6953 22.6862C34.6953 23.39 34.4297 24.0444 33.9762 24.586C33.859 23.8327 33.369 23.1462 32.6244 22.689V22.6862C32.6244 21.7551 31.6954 20.9971 30.5542 20.9971C29.413 20.9971 28.484 21.7551 28.484 22.6862V22.689C27.74 23.1462 27.2501 23.8327 27.1322 24.586C26.68 24.0444 26.4145 23.39 26.4145 22.6862C26.4145 20.8231 28.2714 19.3079 30.5549 19.3079C32.8383 19.3079 34.6953 20.8231 34.6953 22.6862ZM34.6953 30.5018C34.2515 30.8166 33.7919 31.1163 33.3151 31.3984V30.5689C33.3151 29.3268 32.0772 28.3167 30.5549 28.3167C29.0325 28.3167 27.7946 29.3268 27.7946 30.5689V32.8211C27.7946 33.1318 27.4853 33.3842 27.1045 33.3842C26.7238 33.3842 26.4145 33.1318 26.4145 32.8211V28.8798C26.4145 27.9788 26.8623 27.1271 27.6288 26.4986C28.4786 26.9344 29.4797 27.1906 30.5549 27.1906C31.6301 27.1906 32.6311 26.9344 33.4809 26.4986C34.2475 27.1271 34.6953 27.9788 34.6953 28.8798V30.5018ZM31.935 32.1511C31.0263 32.6009 30.0676 32.9905 29.072 33.3193C29.1326 33.1612 29.1747 32.9957 29.1747 32.8211V30.5689C29.1747 29.9479 29.7937 29.4428 30.5549 29.4428C31.316 29.4428 31.935 29.9479 31.935 30.5689V32.1511ZM30.5549 24.3754C31.1627 24.3754 31.7052 24.1563 32.0846 23.8145C32.4215 24.1208 32.6251 24.5172 32.6251 24.9384V25.6073C32.0152 25.8963 31.3089 26.0645 30.5549 26.0645C29.8008 26.0645 29.0945 25.8963 28.4847 25.6073V24.9384C28.4847 24.5172 28.6882 24.1208 29.0251 23.8145C29.4045 24.1563 29.947 24.3754 30.5549 24.3754ZM29.8648 22.6862C29.8648 22.3756 30.1741 22.1232 30.5549 22.1232C30.9356 22.1232 31.2449 22.3756 31.2449 22.6862C31.2449 22.9969 30.9356 23.2493 30.5549 23.2493C30.1741 23.2493 29.8648 22.9969 29.8648 22.6862ZM25.2399 21.4848C24.7183 21.3237 24.3443 20.9154 24.3443 20.434C24.3443 20.1525 24.4258 19.871 24.5801 19.6194L25.1556 18.6808C25.3437 18.3726 25.7224 18.1818 26.1432 18.1818C26.5139 18.1818 26.8576 18.3322 27.0631 18.5832L27.4 18.9953C26.3619 19.5878 25.5869 20.464 25.2399 21.4848ZM36.0754 29.4247V28.8798C36.0754 27.716 35.5157 26.613 34.5524 25.7836C35.4938 24.9755 36.0754 23.8866 36.0754 22.6862C36.0754 22.6598 36.0713 22.634 36.0707 22.6073C37.2601 22.3574 38.1456 21.4818 38.1456 20.434C38.1456 19.9785 38.0138 19.5229 37.7638 19.1155L37.1883 18.1769C36.7654 17.4854 35.914 17.0557 34.9665 17.0557C34.1336 17.0557 33.3599 17.3936 32.8983 17.9589L32.4808 18.4708C31.8797 18.2871 31.2325 18.1818 30.5549 18.1818C29.8773 18.1818 29.23 18.2871 28.6296 18.4702L28.2121 17.9583C27.7505 17.3936 26.9762 17.0557 26.1432 17.0557C25.1957 17.0557 24.3443 17.4854 23.9207 18.1769L23.3449 19.1155C23.0959 19.5229 22.9642 19.9785 22.9642 20.434C22.9642 21.4818 23.8496 22.3574 25.0391 22.6073C25.0384 22.634 25.0343 22.6598 25.0343 22.6862C25.0343 23.4519 25.2709 24.1733 25.6857 24.8051C24.9323 24.5994 24.2954 24.1637 23.9261 23.5608C23.4251 22.7426 22.5841 22.1361 21.5833 21.8164V12.0576C21.5833 10.7632 20.5082 9.64041 18.9693 9.32617L16.0635 8.73343V7.74287C16.9082 7.12401 17.4436 6.2294 17.4436 5.23169V4.10559C17.4436 3.45182 17.2111 2.84368 16.8162 2.32572C18.3702 2.01615 19.9674 1.85339 21.584 1.85339C32.6183 1.85339 41.5959 9.17854 41.5959 18.1818C41.5959 22.5358 39.492 26.4942 36.0754 29.4247Z" fill="#727272"/>
</svg>
