<svg width="49" height="33" viewBox="0 0 49 33" fill="none" xmlns="http://www.w3.org/2000/svg">
<path d="M42.9392 14.7964C41.31 14.0706 38.2555 14.0622 38.1263 14.0622C37.7389 14.0622 37.4249 14.342 37.4249 14.6872C37.4249 15.0324 37.7389 15.3122 38.1263 15.3122C38.9145 15.3123 41.2029 15.4204 42.3119 15.9145C42.4126 15.9594 42.5196 15.9806 42.625 15.9806C42.8822 15.9806 43.1299 15.8539 43.2528 15.635C43.4261 15.3263 43.2856 14.9509 42.9392 14.7964Z" fill="#727272"/>
<path d="M46.4357 23.6949L43.5392 22.9574C43.4142 22.9255 43.3268 22.8224 43.3268 22.7064V21.8449C43.5625 21.6994 43.7873 21.5365 43.9974 21.3548C45.0157 20.4741 45.5765 19.2929 45.5765 18.0285V16.8396L45.8566 16.3405C46.1639 15.7926 46.3264 15.1792 46.3264 14.5667V11.3459C46.3264 11.0007 46.0124 10.7209 45.625 10.7209H38.8761C36.422 10.7209 34.4254 12.5002 34.4254 14.6872V14.7245C34.4254 15.2338 34.5605 15.7439 34.8161 16.1994L35.1753 16.8395V17.8604C35.1753 19.4782 36.0699 20.9298 37.4249 21.8033L37.4251 22.7063C37.4251 22.8455 37.4251 22.9032 36.846 23.0507L35.4327 23.4105L31.3443 22.0857C31.359 21.9138 31.2939 21.7389 31.1532 21.6072L29.8467 20.384V18.3307C29.9849 18.2293 30.121 18.1251 30.253 18.0149C31.9011 16.6383 32.8463 14.6946 32.8463 12.6824V11.0425C33.3439 10.0775 33.5961 9.0562 33.5961 8.00446V1.32196C33.5961 0.976794 33.2821 0.69696 32.8948 0.69696H22.3965C18.7019 0.69696 15.6962 3.37562 15.6962 6.66804V8.00462C15.6962 9.05637 15.9484 10.0776 16.446 11.0427V12.4536C16.446 14.79 17.6117 16.8948 19.4456 18.2824V20.3841L18.1391 21.6073C17.9984 21.739 17.9333 21.9139 17.948 22.0858L13.633 23.484C13.3203 23.5854 13.0297 23.7226 12.7659 23.8889L12.0884 23.5869C14.1054 22.8045 14.7443 21.7041 14.775 21.6494C14.8738 21.4735 14.8738 21.2664 14.775 21.0904C14.2694 20.1893 14.2082 18.5375 14.159 17.2104C14.1426 16.7685 14.1271 16.3511 14.0974 15.9795C13.8583 12.9816 11.301 10.7209 8.14877 10.7209C4.99653 10.7209 2.43912 12.9815 2.20011 15.9795C2.17046 16.3512 2.15494 16.7686 2.13858 17.2105C2.08939 18.5376 2.02805 20.1892 1.52253 21.0904C1.42378 21.2663 1.42378 21.4734 1.52253 21.6494C1.5532 21.704 2.19085 22.8022 4.21189 23.5855L2.3298 24.4241C1.32363 24.8728 0.698608 25.774 0.698608 26.7764V31.3939C0.698608 31.739 1.01262 32.0189 1.39994 32.0189C1.78726 32.0189 2.10126 31.739 2.10126 31.3939V26.7764C2.10126 26.2504 2.42921 25.7775 2.95707 25.5423L5.30072 24.498L6.11595 25.1884C6.68599 25.6712 7.41724 25.9124 8.14877 25.9124C8.88012 25.9124 9.61174 25.671 10.1816 25.1884L10.9967 24.4981L11.7609 24.8386C11.4011 25.3517 11.1968 25.9534 11.1968 26.5836V31.394C11.1968 31.7392 11.5108 32.019 11.8982 32.019C12.2855 32.019 12.5995 31.7392 12.5995 31.394V26.5836C12.5995 25.7256 13.2074 24.9521 14.1123 24.6589L18.6618 23.1846L20.5556 25.7164C20.7977 26.04 21.1857 26.2476 21.6201 26.2859C21.6685 26.2902 21.7167 26.2923 21.7647 26.2923C22.1479 26.2923 22.515 26.1579 22.7893 25.9134L23.9447 24.8838V31.3941C23.9447 31.7393 24.2587 32.0191 24.6461 32.0191C25.0334 32.0191 25.3474 31.7393 25.3474 31.3941V24.8838L26.5028 25.9134C26.7771 26.1579 27.1441 26.2924 27.5274 26.2924C27.5754 26.2924 27.6236 26.2903 27.672 26.286C28.1064 26.2477 28.4944 26.0401 28.7365 25.7164L30.6305 23.1848L35.1798 24.659C36.0846 24.9523 36.6926 25.7258 36.6926 26.5838V31.3942C36.6926 31.7394 37.0067 32.0192 37.394 32.0192C37.7813 32.0192 38.0953 31.7394 38.0953 31.3942V26.5838C38.0953 25.7148 37.7079 24.8998 37.058 24.297L37.2313 24.2529C37.406 24.2084 37.6445 24.1475 37.8839 24.0429L39.6745 25.6387V31.3942C39.6745 31.7394 39.9885 32.0192 40.3758 32.0192C40.7632 32.0192 41.0772 31.7394 41.0772 31.3942V25.6387L42.8554 24.054C42.9499 24.0969 43.0492 24.133 43.1538 24.1596L46.0503 24.8971C46.7114 25.0654 47.1733 25.611 47.1733 26.2239V31.3942C47.1733 31.7394 47.4873 32.0192 47.8746 32.0192C48.2619 32.0192 48.576 31.7394 48.576 31.3942V26.2239C48.576 25.0557 47.6958 24.0158 46.4357 23.6949ZM5.19786 22.5909C3.88601 22.1703 3.22797 21.6094 2.94707 21.3032C3.13858 20.857 3.26276 20.346 3.34682 19.8066C3.73358 20.633 4.38133 21.3385 5.19786 21.8419V22.5909ZM9.21554 24.2824C8.61735 24.7889 7.68028 24.7889 7.08228 24.2824L6.43005 23.73C6.54011 23.5463 6.60061 23.3379 6.60061 23.1197V22.4535C7.08986 22.5898 7.60996 22.6633 8.14896 22.6633C8.6873 22.6633 9.20712 22.5894 9.69721 22.4539L9.69712 23.1196C9.69712 23.3379 9.75753 23.5464 9.86768 23.7302L9.21554 24.2824ZM8.14915 21.4133C6.05489 21.4133 4.35122 19.8949 4.35122 18.0287C4.35122 17.6835 4.03721 17.4037 3.64989 17.4037C3.61062 17.4037 3.57228 17.4073 3.53478 17.4129C3.53684 17.3591 3.5388 17.3053 3.54086 17.252C3.55647 16.8223 3.57153 16.4164 3.5993 16.0682C3.68889 14.9452 4.19244 13.9104 5.0172 13.1542C5.84935 12.3912 6.96156 11.971 8.14896 11.971C9.33635 11.971 10.4485 12.3912 11.2807 13.1542C12.1055 13.9104 12.609 14.9452 12.6986 16.0682C12.7263 16.4163 12.7414 16.8221 12.7573 17.2518C12.7587 17.2887 12.7601 17.3261 12.7615 17.3633C11.9985 16.3156 10.8201 15.5435 9.29745 15.1075C7.89078 14.7048 6.68094 14.7297 6.62988 14.7309C6.44623 14.7355 6.27192 14.804 6.14447 14.9218L4.87909 16.0913C4.61024 16.3398 4.61829 16.7355 4.89713 16.975C5.17598 17.2146 5.61997 17.2074 5.88881 16.959L6.94174 15.9859C7.84851 16.0254 10.7658 16.3277 11.9003 18.5541C11.6148 20.1948 10.0324 21.4133 8.14915 21.4133ZM11.0997 22.593L11.0998 21.8476C11.9157 21.347 12.5643 20.6429 12.9514 19.8102C13.0354 20.3484 13.1595 20.8582 13.3507 21.3034C13.0713 21.6067 12.4102 22.1725 11.0997 22.593ZM17.8487 12.4535V10.9029C17.8487 10.8088 17.8249 10.7159 17.7789 10.6311C17.3277 9.79829 17.0988 8.91462 17.0988 8.00462V6.66812C17.0988 4.06488 19.4754 1.94704 22.3965 1.94704H32.1935V8.00471C32.1935 8.91471 31.9647 9.79837 31.5134 10.6312C31.4675 10.716 31.4436 10.8089 31.4436 10.903V12.6825C31.4436 14.3751 30.6801 15.945 29.2937 17.1031C29.1206 17.2476 28.941 17.3831 28.7553 17.5094C28.7512 17.5119 28.7472 17.5146 28.7432 17.5172C27.4445 18.3959 25.8537 18.823 24.1924 18.7271C20.6351 18.5219 17.8487 15.7662 17.8487 12.4535ZM21.7976 25.0294C21.7927 25.0338 21.7814 25.044 21.7585 25.0419C21.7357 25.0399 21.7267 25.0279 21.7228 25.0228L19.5417 22.1071L20.2436 21.4499L23.5525 23.4654L21.7976 25.0294ZM24.6462 22.6175L20.8482 20.304V19.1374C21.8309 19.6108 22.9313 19.9069 24.1016 19.9744C24.2864 19.985 24.4702 19.9903 24.6534 19.9903C25.9944 19.9903 27.285 19.7046 28.4441 19.1624V20.304L24.6462 22.6175ZM27.5695 25.0229C27.5657 25.0281 27.5567 25.04 27.5339 25.042C27.511 25.0446 27.4997 25.0339 27.4948 25.0296L25.7399 23.4657L29.0487 21.45L29.7507 22.1073L27.5695 25.0229ZM40.3758 24.4956L38.7843 23.0774C38.8121 22.9649 38.8278 22.8419 38.8277 22.7061L38.8276 22.4424C39.2692 22.5715 39.7347 22.6482 40.2164 22.661C40.2704 22.6625 40.324 22.6632 40.3779 22.6632C40.9102 22.6632 41.4297 22.5915 41.9242 22.4548V22.7064C41.9242 22.8311 41.9418 22.9533 41.9749 23.0707L40.3758 24.4956ZM43.0206 20.4578C42.2773 21.1006 41.2953 21.4401 40.2586 21.4116C38.229 21.3574 36.5779 19.7643 36.5779 17.8605V16.6921C36.5779 16.595 36.5526 16.4994 36.5038 16.4126L36.0706 15.6405C35.9119 15.3575 35.828 15.0409 35.828 14.7245V14.6873C35.828 13.1895 37.1954 11.971 38.8761 11.971H44.9237V14.5668C44.9237 14.9863 44.8124 15.4064 44.6019 15.7816L44.2479 16.4126C44.1992 16.4994 44.1739 16.595 44.1739 16.6921V18.0286C44.1739 18.9519 43.7643 19.8146 43.0206 20.4578Z" fill="#727272"/>
<path d="M44.875 26.7593C44.4877 26.7593 44.1737 27.0391 44.1737 27.3843V31.3939C44.1737 31.739 44.4877 32.0189 44.875 32.0189C45.2623 32.0189 45.5764 31.739 45.5764 31.3939V27.3843C45.5764 27.0392 45.2623 26.7593 44.875 26.7593Z" fill="#727272"/>
<path d="M4.39945 27.5854C4.01213 27.5854 3.69812 27.8653 3.69812 28.2104V31.3939C3.69812 31.739 4.01213 32.0189 4.39945 32.0189C4.78677 32.0189 5.10078 31.739 5.10078 31.3939V28.2104C5.10078 27.8654 4.78677 27.5854 4.39945 27.5854Z" fill="#727272"/>
<path d="M30.3912 8.23103C27.7387 5.8672 22.1889 6.31912 19.9258 6.62312C19.213 6.71887 18.6957 7.25645 18.6957 7.90136V9.3412C18.6957 9.68636 19.0097 9.96619 19.397 9.96619C19.7843 9.96619 20.0983 9.68636 20.0983 9.3412V7.90128C20.0983 7.88003 20.114 7.86187 20.135 7.85903C21.039 7.73762 22.8328 7.55028 24.6913 7.6607C26.8783 7.79045 28.4624 8.2797 29.3994 9.11486C29.6733 9.35895 30.1174 9.35895 30.3912 9.11486C30.6651 8.87078 30.6651 8.47503 30.3912 8.23103Z" fill="#727272"/>
<path d="M16.3975 28.0959C16.0102 28.0959 15.6962 28.3757 15.6962 28.7209V31.394C15.6962 31.7391 16.0102 32.019 16.3975 32.019C16.7848 32.019 17.0988 31.7391 17.0988 31.394V28.7209C17.0988 28.3758 16.7848 28.0959 16.3975 28.0959Z" fill="#727272"/>
<path d="M32.8948 28.0959C32.5075 28.0959 32.1935 28.3757 32.1935 28.7209V31.394C32.1935 31.7391 32.5075 32.019 32.8948 32.019C33.2821 32.019 33.5961 31.7391 33.5961 31.394V28.7209C33.5961 28.3758 33.2821 28.0959 32.8948 28.0959Z" fill="#727272"/>
</svg>
