<svg width="355" height="257" viewBox="0 0 355 257" fill="none" xmlns="http://www.w3.org/2000/svg">
<g clip-path="url(#clip0)">
<path d="M179.608 257C276.474 257 355 251.488 355 244.688C355 237.888 276.474 232.375 179.608 232.375C82.7417 232.375 4.21606 237.888 4.21606 244.688C4.21606 251.488 82.7417 257 179.608 257Z" fill="#3F3D56"/>
<path d="M274.345 73.1174C274.345 73.1174 275.441 86.4115 275.441 86.9039C275.441 87.3963 267.77 121.37 267.77 121.37C267.77 121.37 256.811 140.08 267.77 139.588C278.729 139.096 275.441 121.862 275.441 121.862L286.948 93.3048L282.017 73.1174L274.345 73.1174Z" fill="#A0616A"/>
<path d="M278.954 99.194H61.2053V236.639H278.954V99.194Z" fill="#F2F2F2"/>
<path d="M134.631 159.591H79.957V245.352H134.631V159.591Z" fill="#3F3D56"/>
<path d="M104.798 164.736H90.0703V177.073H104.798V164.736Z" fill="#F2F2F2"/>
<path d="M124.518 164.736H109.791V177.073H124.518V164.736Z" fill="#F2F2F2"/>
<path d="M104.798 181.559H90.0703V194.344H104.798V181.559Z" fill="#F2F2F2"/>
<path d="M124.518 181.559H109.791V194.344H124.518V181.559Z" fill="#F2F2F2"/>
<path d="M127.679 211.369C129.599 211.369 131.155 209.971 131.155 208.245C131.155 206.52 129.599 205.122 127.679 205.122C125.759 205.122 124.202 206.52 124.202 208.245C124.202 209.971 125.759 211.369 127.679 211.369Z" fill="#6C63FF"/>
<path d="M268.635 151.071H160.551V232.572H268.635V151.071Z" fill="#3F3D56"/>
<path d="M302.13 133.026H38.8723L56.425 100.05L60.3532 92.6668L65.4923 83.0115L69.4204 75.6282L73.9743 67.075H281.389L284.078 75.6282L286.401 83.0115L289.438 92.6668L291.761 100.05L302.13 133.026Z" fill="#3F3D56"/>
<path d="M286.401 83.0116H65.4924L69.4206 75.6282H284.078L286.401 83.0116Z" fill="#4F88DD"/>
<path d="M291.761 100.05H56.425L60.3532 92.6668H289.438L291.761 100.05Z" fill="#4F88DD"/>
<g clip-path="url(#clip1)">
<path d="M200.399 158.761C200.436 158.651 200.467 158.541 200.491 158.43C200.491 158.389 200.491 158.348 200.513 158.309C200.534 158.271 200.541 158.156 200.547 158.079C200.553 158.002 200.547 157.971 200.547 157.917C200.547 157.863 200.547 157.784 200.547 157.717C200.547 157.651 200.547 157.61 200.547 157.558C200.547 157.507 200.547 157.415 200.528 157.343C200.51 157.271 200.513 157.253 200.507 157.21C200.507 157.128 200.476 157.046 200.458 156.953V156.915L193.619 131.148C189.185 131.661 191.543 131.21 189.185 131.661C186.827 132.112 189.185 131.661 185.052 132.784L186.772 139.264L180.614 131.535C180.267 131.09 179.807 130.713 179.267 130.431C178.726 130.15 178.119 129.971 177.487 129.908C175.958 129.771 174.446 129.532 172.963 129.193C171.915 128.939 170.829 128.81 169.737 128.811H159.311C158.219 128.81 157.132 128.938 156.082 129.193C154.6 129.532 153.087 129.771 151.559 129.908C150.927 129.971 150.32 130.15 149.779 130.431C149.239 130.713 148.779 131.09 148.431 131.535L132.617 151.401L117.346 134.535C113.694 136.537 115.601 135.273 113.694 136.537C111.787 137.8 113.694 136.537 110.407 139.123L129.355 160.042C129.719 160.445 130.18 160.78 130.708 161.025C131.236 161.27 131.82 161.421 132.421 161.468H132.525H132.795H133.028H133.172C133.289 161.468 133.409 161.447 133.528 161.432H133.544C134.146 161.352 134.723 161.168 135.235 160.891C135.748 160.613 136.185 160.249 136.518 159.822L147.208 146.749L148.818 168.306C148.818 171.554 152.24 174.202 156.046 174.202H173.006C176.812 174.202 179.927 171.547 179.927 168.306L181.246 146.749L192.534 159.822C192.534 159.837 192.561 159.853 192.574 159.871C192.586 159.889 192.644 159.95 192.681 159.991C192.718 160.032 192.795 160.119 192.859 160.181C192.859 160.196 192.89 160.209 192.902 160.224C193.358 160.662 193.932 161.003 194.576 161.219C194.593 161.223 194.609 161.228 194.625 161.234C194.736 161.268 194.846 161.301 194.959 161.329C195.016 161.343 195.073 161.355 195.131 161.365L195.361 161.411C195.435 161.424 195.511 161.432 195.588 161.442L195.778 161.462H195.996H196.214H196.382C196.477 161.462 196.569 161.462 196.664 161.447L196.769 161.434C196.885 161.434 197.005 161.403 197.121 161.383H197.155C197.288 161.358 197.419 161.326 197.548 161.288H197.563C197.933 161.183 198.285 161.038 198.609 160.855C199.48 160.355 200.109 159.611 200.384 158.758L200.399 158.761Z" fill="url(#paint0_linear)"/>
<path d="M158.165 240.221H149.667V249.072H158.165V240.221Z" fill="url(#paint1_linear)"/>
<path d="M179.265 240.221H170.768V249.072H179.265V240.221Z" fill="url(#paint2_linear)"/>
<path d="M171.755 163.675H157.843C148.901 163.675 145.883 169.727 145.883 176.873L148.582 243.212H160.796V191.059C160.802 190.249 161.164 189.469 161.812 188.867C162.461 188.266 163.35 187.883 164.313 187.793C166.732 187.562 168.808 189.075 168.808 190.971V243.212H181.019L184.199 176.873C184.196 169.727 180.694 163.675 171.755 163.675Z" fill="url(#paint3_linear)"/>
<path d="M158.165 249.074V258.003H146.086C145.827 258.013 145.572 257.956 145.353 257.841C145.134 257.725 144.963 257.556 144.863 257.357C144.762 257.158 144.738 256.938 144.792 256.726C144.846 256.515 144.977 256.322 145.166 256.175C147.591 254.309 150.686 251.369 149.667 249.074" fill="url(#paint4_linear)"/>
<path d="M170.903 249.074V258.003H182.985C183.244 258.013 183.499 257.956 183.718 257.841C183.937 257.725 184.108 257.556 184.208 257.357C184.309 257.158 184.333 256.938 184.279 256.726C184.225 256.515 184.094 256.322 183.905 256.175C181.483 254.309 178.385 251.369 179.403 249.074" fill="url(#paint5_linear)"/>
<path d="M158.303 239.418H150.262V248.177H158.303V239.418Z" fill="#FFD9CB"/>
<path d="M178.269 239.418H170.228V248.177H178.269V239.418Z" fill="#FFD9CB"/>
<path d="M171.16 163.675H157.996C149.535 163.675 146.677 169.662 146.677 176.735L149.232 242.379H160.79V190.779C160.78 189.995 161.112 189.235 161.725 188.641C162.337 188.047 163.188 187.66 164.117 187.552C164.649 187.498 165.189 187.54 165.702 187.673C166.214 187.807 166.686 188.029 167.088 188.326C167.49 188.624 167.812 188.988 168.033 189.397C168.254 189.806 168.369 190.249 168.37 190.697V242.379H179.928L182.933 176.735C182.933 169.662 179.621 163.675 171.16 163.675Z" fill="#212121"/>
<path d="M158.302 248.177V257.013H146.883C146.632 257.013 146.387 256.95 146.18 256.832C145.972 256.715 145.811 256.548 145.718 256.353C145.625 256.159 145.603 255.945 145.656 255.74C145.709 255.535 145.834 255.348 146.015 255.203C148.309 253.358 151.228 250.448 150.274 248.177" fill="#212121"/>
<path d="M170.357 248.177V257.013H181.789C182.04 257.013 182.285 256.95 182.492 256.832C182.7 256.715 182.861 256.548 182.954 256.353C183.047 256.159 183.069 255.945 183.016 255.74C182.963 255.535 182.838 255.348 182.657 255.203C180.363 253.358 177.444 250.448 178.398 248.177" fill="#212121"/>
<path d="M164.669 131.969C181.276 131.969 194.739 120.111 194.739 105.484C194.739 90.8574 181.276 79 164.669 79C148.061 79 134.599 90.8574 134.599 105.484C134.599 120.111 148.061 131.969 164.669 131.969Z" fill="url(#paint6_linear)"/>
<path d="M164.669 130.649C180.448 130.649 193.239 119.382 193.239 105.484C193.239 91.5865 180.448 80.3201 164.669 80.3201C148.89 80.3201 136.098 91.5865 136.098 105.484C136.098 119.382 148.89 130.649 164.669 130.649Z" fill="#4F88DD"/>
<path d="M164.248 127.493C177.264 127.493 187.815 118.468 187.815 107.335C187.815 96.2021 177.264 87.177 164.248 87.177C151.233 87.177 140.682 96.2021 140.682 107.335C140.682 118.468 151.233 127.493 164.248 127.493Z" fill="#6C63FF"/>
<path opacity="0.3" d="M164.555 126.724C177.57 126.724 188.121 117.699 188.121 106.566C188.121 95.4331 177.57 86.408 164.555 86.408C151.54 86.408 140.989 95.4331 140.989 106.566C140.989 117.699 151.54 126.724 164.555 126.724Z" fill="black"/>
<path d="M185.597 118.146L181.709 129.55C181.501 130.158 181.923 130.792 182.651 130.966L188.068 132.256C188.796 132.43 189.555 132.077 189.762 131.469L193.651 120.065C193.859 119.456 193.437 118.822 192.709 118.649L187.291 117.358C186.563 117.184 185.805 117.537 185.597 118.146Z" fill="#BDBDBD"/>
<path d="M111.994 127.261L111.527 127.459C111.227 127.587 111.107 127.894 111.26 128.145L114.108 132.824C114.261 133.075 114.628 133.175 114.929 133.047L115.396 132.849C115.696 132.721 115.816 132.414 115.663 132.163L112.815 127.484C112.662 127.233 112.295 127.133 111.994 127.261Z" fill="#FFCFBE"/>
<path d="M107.342 129.561L107.08 129.94C106.912 130.184 107.012 130.496 107.304 130.637L112.642 133.213C112.933 133.354 113.307 133.271 113.475 133.027L113.737 132.647C113.906 132.403 113.806 132.091 113.514 131.95L108.176 129.374C107.884 129.233 107.511 129.317 107.342 129.561Z" fill="#FFCFBE"/>
<path d="M110.922 132.825C110.235 133.15 106.65 135.106 111.259 138.685C111.542 138.903 111.907 139.031 112.291 139.049C112.675 139.066 113.054 138.971 113.363 138.779L116.614 136.767C116.896 136.593 117.104 136.347 117.208 136.067C117.312 135.787 117.307 135.486 117.193 135.209L116.273 132.943C116.138 132.612 115.908 132.313 115.603 132.073C115.299 131.832 114.929 131.657 114.526 131.563C114.123 131.469 113.698 131.458 113.289 131.531C112.88 131.604 112.498 131.76 112.176 131.984L111.167 132.689C111.092 132.741 111.009 132.787 110.922 132.825Z" fill="#FFCFBE"/>
<path d="M192.283 124.13H191.758C191.421 124.13 191.148 124.358 191.148 124.64V127.652C191.148 127.934 191.421 128.162 191.758 128.162H192.283C192.62 128.162 192.893 127.934 192.893 127.652V124.64C192.893 124.358 192.62 124.13 192.283 124.13Z" fill="#FFCFBE"/>
<path d="M188.112 127.27C188.112 127.27 182.047 127.357 185.907 133.753L192.347 132.656L193.031 127.273C193.05 127.146 193.031 127.018 192.976 126.9C192.922 126.781 192.833 126.676 192.717 126.593C192.602 126.51 192.463 126.452 192.315 126.425C192.166 126.398 192.012 126.402 191.866 126.437L188.112 127.27Z" fill="#FFCFBE"/>
<path d="M187.641 121.897L187.167 122.084C186.862 122.204 186.731 122.508 186.874 122.763L189.646 127.689C189.79 127.944 190.153 128.054 190.458 127.934L190.933 127.747C191.238 127.627 191.369 127.324 191.225 127.069L188.453 122.142C188.31 121.887 187.946 121.778 187.641 121.897Z" fill="#FFCFBE"/>
<path d="M186.509 122.69L186.035 122.876C185.73 122.996 185.599 123.3 185.742 123.555L188.069 127.691C188.213 127.946 188.576 128.055 188.881 127.935L189.356 127.749C189.661 127.629 189.792 127.325 189.648 127.07L187.321 122.934C187.178 122.679 186.814 122.57 186.509 122.69Z" fill="#FFCFBE"/>
<path d="M185.321 123.999L184.847 124.186C184.542 124.306 184.411 124.61 184.554 124.865L186.734 128.738C186.877 128.993 187.241 129.103 187.546 128.983L188.02 128.796C188.325 128.676 188.456 128.372 188.313 128.117L186.133 124.244C185.99 123.989 185.626 123.879 185.321 123.999Z" fill="#FFCFBE"/>
<path d="M184.35 125.674L183.875 125.86C183.57 125.98 183.44 126.284 183.583 126.539L185.436 129.833C185.58 130.088 185.943 130.197 186.248 130.077L186.723 129.891C187.028 129.771 187.159 129.467 187.015 129.212L185.162 125.918C185.018 125.663 184.655 125.554 184.35 125.674Z" fill="#FFCFBE"/>
<path d="M199.805 158.184C199.839 158.079 199.869 157.971 199.894 157.863C199.894 157.825 199.894 157.787 199.915 157.748C199.937 157.71 199.943 157.599 199.949 157.525C199.955 157.451 199.949 157.42 199.949 157.366C199.949 157.312 199.949 157.238 199.949 157.174C199.949 157.11 199.949 157.071 199.949 157.02C199.949 156.969 199.949 156.879 199.934 156.81C199.918 156.741 199.934 156.725 199.912 156.682C199.891 156.638 199.881 156.523 199.863 156.443C199.863 156.443 199.863 156.418 199.863 156.408L193.098 131.41C188.713 131.907 191.044 131.471 188.713 131.907C186.383 132.343 188.713 131.907 184.623 132.997L186.324 139.279L180.237 131.787C179.889 131.352 179.432 130.985 178.898 130.713C178.364 130.44 177.765 130.268 177.143 130.208C175.632 130.076 174.136 129.845 172.669 129.516C171.632 129.269 170.559 129.144 169.48 129.144H159.164C158.086 129.144 157.013 129.269 155.975 129.516C154.508 129.845 153.012 130.076 151.501 130.208C150.881 130.269 150.284 130.442 149.752 130.714C149.219 130.987 148.763 131.353 148.416 131.787L132.777 151.045L117.675 134.694C114.062 136.634 115.948 135.411 114.062 136.634C112.176 137.857 114.062 136.634 110.812 139.143L129.548 159.427C129.912 159.82 130.369 160.146 130.891 160.384C131.413 160.622 131.988 160.767 132.581 160.809C132.615 160.809 132.651 160.809 132.685 160.809H132.952H133.179H133.323C133.44 160.809 133.556 160.791 133.676 160.775H133.697C134.29 160.7 134.858 160.523 135.365 160.254C135.871 159.986 136.306 159.633 136.641 159.217L147.803 145.444L149.082 167.44C149.087 168.956 149.811 170.409 151.094 171.481C152.377 172.553 154.115 173.157 155.929 173.161H172.7C174.514 173.157 176.252 172.553 177.535 171.481C178.818 170.409 179.542 168.956 179.547 167.44L180.823 145.444L192.022 159.222L192.065 159.268L192.169 159.384C192.224 159.448 192.283 159.512 192.344 159.571L192.39 159.612C192.843 160.037 193.409 160.367 194.043 160.575C194.06 160.579 194.076 160.585 194.092 160.591C194.202 160.624 194.313 160.658 194.423 160.683L194.592 160.719L194.819 160.763C194.892 160.775 194.969 160.783 195.043 160.791L195.233 160.811H195.45H195.662H195.831C195.923 160.811 196.018 160.811 196.11 160.796L196.211 160.783C196.327 160.77 196.444 160.755 196.56 160.734H196.594C196.723 160.709 196.855 160.678 196.984 160.645C197.349 160.544 197.697 160.403 198.017 160.224C198.876 159.746 199.499 159.025 199.774 158.194L199.805 158.184Z" fill="#4F88DD"/>
<path d="M164.325 124.417C175.745 124.417 185.003 116.679 185.003 107.133C185.003 97.5866 175.745 89.848 164.325 89.848C152.905 89.848 143.648 97.5866 143.648 107.133C143.648 116.679 152.905 124.417 164.325 124.417Z" fill="#E53935"/>
<path d="M168.885 123.748C168.885 121.8 166.997 120.221 164.667 120.221C162.338 120.221 160.449 121.8 160.449 123.748V129.764C160.449 131.712 162.338 133.291 164.667 133.291C166.997 133.291 168.885 131.712 168.885 129.764V123.748Z" fill="#FFE0B2"/>
<path d="M164.325 123.497C173.157 123.497 180.317 117.512 180.317 110.129C180.317 102.746 173.157 96.7614 164.325 96.7614C155.493 96.7614 148.333 102.746 148.333 110.129C148.333 117.512 155.493 123.497 164.325 123.497Z" fill="#FFE0B2"/>
<path d="M158.993 107.248C159.526 107.248 159.959 106.886 159.959 106.44C159.959 105.995 159.526 105.633 158.993 105.633C158.459 105.633 158.027 105.995 158.027 106.44C158.027 106.886 158.459 107.248 158.993 107.248Z" fill="#DB7657"/>
<path d="M169.655 107.248C170.188 107.248 170.621 106.886 170.621 106.44C170.621 105.995 170.188 105.633 169.655 105.633C169.121 105.633 168.689 105.995 168.689 106.44C168.689 106.886 169.121 107.248 169.655 107.248Z" fill="#DB7657"/>
<path d="M168.275 114.628C168.275 115.707 166.505 116.584 164.322 116.584C162.139 116.584 160.375 115.697 160.375 114.628C160.375 113.559 168.275 113.549 168.275 114.628Z" fill="white"/>
<path d="M156.42 95.6104C156.42 95.6104 153.847 106.376 181.418 104.215L174.616 94.8439L156.42 95.6104Z" fill="#E53935"/>
<path d="M149.289 111.569C150.149 111.313 150.418 110.101 149.89 108.862C149.361 107.624 148.236 106.827 147.376 107.083C146.516 107.339 146.248 108.551 146.776 109.79C147.304 111.029 148.43 111.826 149.289 111.569Z" fill="#FFCFBE"/>
<path d="M166.668 105.636H162.669V107.248H166.668V105.636Z" fill="#6C63FF"/>
<path d="M188.965 121.567C189.441 121.567 189.826 121.244 189.826 120.846C189.826 120.449 189.441 120.126 188.965 120.126C188.489 120.126 188.103 120.449 188.103 120.846C188.103 121.244 188.489 121.567 188.965 121.567Z" fill="white"/>
<path d="M163.651 147.144C162.484 146.173 160.905 145.63 159.26 145.634C157.614 145.637 156.038 146.187 154.877 147.162C153.717 148.136 153.067 149.457 153.071 150.832C153.075 152.207 153.733 153.525 154.899 154.495L163.694 161.808L172.442 154.459C173.034 153.98 173.505 153.407 173.829 152.773C174.152 152.14 174.322 151.459 174.327 150.771C174.333 150.082 174.174 149.399 173.86 148.762C173.547 148.126 173.084 147.547 172.5 147.061C171.916 146.576 171.223 146.192 170.459 145.932C169.696 145.673 168.879 145.544 168.055 145.551C167.231 145.559 166.417 145.704 165.661 145.977C164.905 146.25 164.221 146.647 163.651 147.144Z" fill="white"/>
<path d="M182.413 110.288C182.948 109.052 182.686 107.84 181.828 107.58C180.97 107.321 179.84 108.113 179.306 109.349C178.771 110.585 179.033 111.798 179.891 112.057C180.749 112.317 181.878 111.525 182.413 110.288Z" fill="#FFCFBE"/>
<path d="M158.352 129.141C158.999 129.141 159.523 128.703 159.523 128.162C159.523 127.621 158.999 127.183 158.352 127.183C157.705 127.183 157.18 127.621 157.18 128.162C157.18 128.703 157.705 129.141 158.352 129.141Z" fill="white"/>
<path d="M158.459 128.162H158.152C157.958 128.162 157.8 128.294 157.8 128.457V137.893C157.8 138.055 157.958 138.187 158.152 138.187H158.459C158.654 138.187 158.812 138.055 158.812 137.893V128.457C158.812 128.294 158.654 128.162 158.459 128.162Z" fill="white"/>
<path d="M171.568 129.141C172.215 129.141 172.74 128.703 172.74 128.162C172.74 127.621 172.215 127.183 171.568 127.183C170.921 127.183 170.397 127.621 170.397 128.162C170.397 128.703 170.921 129.141 171.568 129.141Z" fill="white"/>
<path d="M171.722 128.162H171.415C171.22 128.162 171.062 128.294 171.062 128.457V136.221C171.062 136.384 171.22 136.516 171.415 136.516H171.722C171.917 136.516 172.074 136.384 172.074 136.221V128.457C172.074 128.294 171.917 128.162 171.722 128.162Z" fill="white"/>
<path d="M155.613 112.949C159.914 112.949 163.399 110.035 163.399 106.44C163.399 102.846 159.914 99.9321 155.613 99.9321C151.313 99.9321 147.828 102.846 147.828 106.44C147.828 110.035 151.313 112.949 155.613 112.949Z" fill="#6C63FF"/>
<path opacity="0.3" d="M155.613 111.001C158.626 111.001 161.069 108.959 161.069 106.44C161.069 103.922 158.626 101.88 155.613 101.88C152.6 101.88 150.158 103.922 150.158 106.44C150.158 108.959 152.6 111.001 155.613 111.001Z" fill="black"/>
<path d="M173.632 112.949C177.932 112.949 181.418 110.035 181.418 106.44C181.418 102.846 177.932 99.9321 173.632 99.9321C169.332 99.9321 165.846 102.846 165.846 106.44C165.846 110.035 169.332 112.949 173.632 112.949Z" fill="#6C63FF"/>
<path opacity="0.3" d="M173.632 111.001C176.645 111.001 179.087 108.959 179.087 106.44C179.087 103.922 176.645 101.88 173.632 101.88C170.619 101.88 168.177 103.922 168.177 106.44C168.177 108.959 170.619 111.001 173.632 111.001Z" fill="black"/>
<path d="M297.887 209.202C297.786 215.213 291.717 219.968 284.523 219.968H283.523C282.638 219.964 281.787 220.251 281.153 220.768C280.671 221.145 280.336 221.634 280.19 222.172C280.122 222.389 280.088 222.612 280.089 222.836V233.451C280.093 235.492 279.394 237.49 278.077 239.208C276.162 241.642 275.123 244.485 275.084 247.398C275.084 248.079 274.923 248.752 274.608 249.38C274.294 250.007 273.833 250.576 273.252 251.053C272.672 251.531 271.984 251.906 271.228 252.159C270.472 252.412 269.664 252.536 268.85 252.525C265.477 252.473 262.849 250.056 262.849 247.244V244.576L261.181 244.74V247.398C261.181 248.079 261.019 248.753 260.704 249.38C260.39 250.008 259.928 250.577 259.348 251.054C258.767 251.532 258.079 251.907 257.323 252.16C256.566 252.412 255.758 252.536 254.944 252.525C251.57 252.473 248.942 250.056 248.942 247.244V245.888C247.274 246.468 237.82 246.468 235.195 245.906L234.484 245.86V247.398C234.484 248.079 234.322 248.753 234.007 249.38C233.693 250.008 233.231 250.577 232.651 251.054C232.07 251.532 231.382 251.907 230.626 252.16C229.869 252.412 229.061 252.536 228.247 252.525C224.873 252.473 222.245 250.056 222.245 247.244V245.035L221.69 244.994V247.411C221.693 248.092 221.533 248.767 221.219 249.395C220.905 250.024 220.445 250.593 219.864 251.071C219.283 251.549 218.594 251.924 217.837 252.176C217.08 252.428 216.271 252.551 215.456 252.538C212.39 252.491 209.915 250.469 209.51 247.972C209.475 247.735 209.456 247.496 209.455 247.257V236.125C209.452 232.314 210.98 228.613 213.794 225.615C214.283 225.084 214.556 224.437 214.575 223.767C214.593 223.097 214.357 222.44 213.898 221.89C210.783 218.079 206.18 211.637 206.327 207.085C206.367 205.764 206.802 204.606 207.787 203.709C207.848 203.652 207.91 203.596 207.971 203.545C212.451 199.623 220.344 202.709 219.66 208.102C219.43 209.906 219.59 211.729 220.133 213.485C220.447 214.479 220.871 215.446 221.399 216.374C221.921 217.308 222.782 218.08 223.86 218.58C224.937 219.081 226.176 219.285 227.4 219.163C228.233 219.08 229.07 219.038 229.909 219.037H255.634C257.144 219.037 258.616 218.641 259.843 217.906C261.07 217.17 261.99 216.132 262.475 214.936C262.735 214.31 262.867 213.651 262.864 212.988V196.257C262.864 195.821 262.969 195.389 263.172 194.988C263.375 194.586 263.673 194.223 264.047 193.919C264.421 193.615 264.865 193.378 265.351 193.22C265.838 193.063 266.357 192.988 266.878 193.002C267.387 193.016 267.887 193.116 268.349 193.296C268.811 193.476 269.224 193.731 269.565 194.047C270.262 194.69 270.649 195.526 270.65 196.393C270.65 196.619 270.704 196.844 270.807 197.053C270.911 197.262 271.063 197.452 271.255 197.612C271.447 197.772 271.674 197.899 271.924 197.985C272.175 198.072 272.443 198.116 272.714 198.116H284.833C286.566 198.115 288.282 198.402 289.88 198.961C291.479 199.52 292.929 200.339 294.145 201.371C295.361 202.402 296.32 203.626 296.965 204.971C297.61 206.315 297.929 207.754 297.902 209.202H297.887Z" fill="#F3AD55"/>
<path d="M221.5 248.667C221.156 249.782 220.372 250.768 219.276 251.466C218.179 252.163 216.834 252.532 215.456 252.512C212.39 252.466 209.915 250.443 209.51 247.947C213.215 247.111 218.348 246.534 221.5 248.667Z" fill="#FBDCA3"/>
<path d="M234.294 248.667C233.949 249.783 233.165 250.769 232.068 251.466C230.971 252.164 229.625 252.532 228.247 252.512C225.18 252.466 222.708 250.443 222.304 247.947C225.999 247.111 231.141 246.534 234.294 248.667Z" fill="#FBDCA3"/>
<path d="M260.99 248.667C260.646 249.783 259.862 250.769 258.765 251.466C257.668 252.164 256.322 252.532 254.943 252.512C251.877 252.466 249.405 250.443 249 247.947C252.705 247.111 257.838 246.534 260.99 248.667Z" fill="#FBDCA3"/>
<path d="M274.894 248.667C274.55 249.782 273.767 250.768 272.67 251.466C271.574 252.163 270.228 252.532 268.85 252.512C265.784 252.466 263.309 250.443 262.904 247.947C266.609 247.111 271.742 246.534 274.894 248.667Z" fill="#FBDCA3"/>
<path d="M220.133 213.483C215.812 212.032 210.537 209.381 206.333 207.074C206.373 205.754 206.809 204.596 207.793 203.698C207.854 203.642 207.916 203.586 207.977 203.534C212.457 199.613 220.35 202.699 219.666 208.092C219.433 209.898 219.591 211.724 220.133 213.483Z" fill="#FBDCA3"/>
<path d="M225.364 219.068C225.364 219.068 237.265 231.59 256.731 219.037L225.364 219.068Z" fill="#FBDCA3"/>
<path d="M262.849 195.793C262.849 195.793 270.08 203.696 262.849 213.46V195.793Z" fill="#FBDCA3"/>
<path d="M280.089 222.757C280.089 222.757 273.723 229.373 280.009 234.628L280.089 222.757Z" fill="#FBDCA3"/>
<path opacity="0.1" d="M280.647 221.362C280.175 221.734 280.34 222.093 280.19 222.644L259.512 218.117C260.623 217.399 262.002 216.548 262.459 215.415C264.943 217.015 269.85 219.712 280.647 221.362Z" fill="black"/>
<path d="M281.153 220.768C280.671 221.145 280.336 221.634 280.19 222.172L260.037 217.779C261.163 217.054 262.007 216.067 262.462 214.941C264.943 216.551 270.346 219.117 281.153 220.768Z" fill="#383F4D"/>
<path opacity="0.1" d="M263.217 215.872C263.217 215.872 269.522 219.837 280.083 221.065L263.217 215.872Z" fill="black"/>
<path d="M263.217 215.41C263.217 215.41 269.522 219.373 280.083 220.601L263.217 215.41Z" fill="#F3AD55"/>
<path opacity="0.1" d="M278.979 215.785C278.979 215.785 289.546 218.573 292.327 209.74L278.979 215.785Z" fill="black"/>
<path d="M278.979 215.318C278.979 215.318 289.546 218.109 292.327 209.274L278.979 215.318Z" fill="#FBDCA3"/>
<path d="M297.89 209.74C298.505 209.74 299.003 209.011 299.003 208.113C299.003 207.214 298.505 206.485 297.89 206.485C297.275 206.485 296.777 207.214 296.777 208.113C296.777 209.011 297.275 209.74 297.89 209.74Z" fill="#383F4D"/>
<path opacity="0.1" d="M213.625 241.587L215.852 226.72C215.852 226.72 209.176 235.553 213.625 241.587Z" fill="black"/>
<path d="M216.407 226.709C216.407 226.709 209.734 235.543 214.184 241.577L216.407 226.709Z" fill="#FBDCA3"/>
</g>
</g>
<defs>
<linearGradient id="paint0_linear" x1="155.487" y1="174.215" x2="155.487" y2="128.811" gradientUnits="userSpaceOnUse">
<stop stop-color="#808080" stop-opacity="0.25"/>
<stop offset="0.54" stop-color="#808080" stop-opacity="0.12"/>
<stop offset="1" stop-color="#808080" stop-opacity="0.1"/>
</linearGradient>
<linearGradient id="paint1_linear" x1="1331.98" y1="5960.02" x2="1567.52" y2="5960.02" gradientUnits="userSpaceOnUse">
<stop stop-color="#808080" stop-opacity="0.25"/>
<stop offset="0.54" stop-color="#808080" stop-opacity="0.12"/>
<stop offset="1" stop-color="#808080" stop-opacity="0.1"/>
</linearGradient>
<linearGradient id="paint2_linear" x1="1937.78" y1="5960.02" x2="2173.24" y2="5960.02" gradientUnits="userSpaceOnUse">
<stop stop-color="#808080" stop-opacity="0.25"/>
<stop offset="0.54" stop-color="#808080" stop-opacity="0.12"/>
<stop offset="1" stop-color="#808080" stop-opacity="0.1"/>
</linearGradient>
<linearGradient id="paint3_linear" x1="15998.4" y1="46798.2" x2="20785.9" y2="46798.2" gradientUnits="userSpaceOnUse">
<stop stop-color="#808080" stop-opacity="0.25"/>
<stop offset="0.54" stop-color="#808080" stop-opacity="0.12"/>
<stop offset="1" stop-color="#808080" stop-opacity="0.1"/>
</linearGradient>
<linearGradient id="paint4_linear" x1="5640.02" y1="7229.4" x2="6226.05" y2="7229.4" gradientUnits="userSpaceOnUse">
<stop stop-color="#808080" stop-opacity="0.25"/>
<stop offset="0.54" stop-color="#808080" stop-opacity="0.12"/>
<stop offset="1" stop-color="#808080" stop-opacity="0.1"/>
</linearGradient>
<linearGradient id="paint5_linear" x1="6810.39" y1="7229.4" x2="7396.55" y2="7229.4" gradientUnits="userSpaceOnUse">
<stop stop-color="#808080" stop-opacity="0.25"/>
<stop offset="0.54" stop-color="#808080" stop-opacity="0.12"/>
<stop offset="1" stop-color="#808080" stop-opacity="0.1"/>
</linearGradient>
<linearGradient id="paint6_linear" x1="11444.6" y1="11025" x2="11444.6" y2="79" gradientUnits="userSpaceOnUse">
<stop stop-color="#808080" stop-opacity="0.25"/>
<stop offset="0.54" stop-color="#808080" stop-opacity="0.12"/>
<stop offset="1" stop-color="#808080" stop-opacity="0.1"/>
</linearGradient>
<clipPath id="clip0">
<rect width="355" height="257" fill="white"/>
</clipPath>
<clipPath id="clip1">
<rect x="107" y="79" width="192" height="179" fill="white"/>
</clipPath>
</defs>
</svg>
