<svg width="268" height="177" viewBox="0 0 268 177" fill="none" xmlns="http://www.w3.org/2000/svg">
<g clip-path="url(#clip0)">
<path d="M184.364 69.8201H149.062V62.8182C149.062 62.3737 148.869 61.9474 148.527 61.6331C148.184 61.3187 147.72 61.1422 147.235 61.1422H136.869V53.6783C136.869 53.3985 136.748 53.1301 136.532 52.9322C136.316 52.7344 136.024 52.6232 135.719 52.6232H122.366C122.061 52.6232 121.768 52.7344 121.553 52.9322C121.337 53.1301 121.216 53.3985 121.216 53.6783V61.1422H109.028C108.544 61.1422 108.08 61.3187 107.737 61.6331C107.395 61.9474 107.202 62.3737 107.202 62.8182V69.8201H73.5392C73.4412 69.8208 73.3475 69.857 73.2784 69.9208C73.2094 69.9847 73.1707 70.071 73.1707 70.1609V163.185C73.1707 163.275 73.2094 163.362 73.2784 163.425C73.3475 163.489 73.4412 163.526 73.5392 163.526H95.9115C95.9603 163.526 96.0086 163.517 96.0536 163.5C96.0987 163.483 96.1396 163.458 96.1741 163.426C96.2086 163.395 96.2359 163.357 96.2546 163.316C96.2732 163.274 96.2828 163.23 96.2828 163.185V150.671C96.2835 150.581 96.3229 150.494 96.3924 150.431C96.4619 150.367 96.5559 150.331 96.6541 150.33H106.105C106.203 150.331 106.297 150.367 106.367 150.431C106.436 150.494 106.475 150.581 106.476 150.671V163.185C106.476 163.275 106.515 163.362 106.584 163.425C106.653 163.489 106.747 163.526 106.845 163.526H151.053C151.151 163.526 151.245 163.489 151.315 163.426C151.384 163.362 151.423 163.276 151.424 163.185V150.671C151.424 150.581 151.463 150.495 151.532 150.431C151.601 150.367 151.695 150.331 151.793 150.33H161.243C161.342 150.33 161.436 150.366 161.506 150.43C161.576 150.494 161.615 150.58 161.615 150.671V163.185C161.615 163.276 161.655 163.362 161.724 163.426C161.794 163.489 161.888 163.526 161.986 163.526H184.358C184.457 163.526 184.551 163.489 184.62 163.426C184.69 163.362 184.729 163.276 184.73 163.185V70.1659C184.73 70.0758 184.692 69.9889 184.624 69.9242C184.555 69.8595 184.462 69.8221 184.364 69.8201ZM92.2781 145.983C92.2781 146.073 92.2393 146.159 92.1702 146.223C92.1011 146.286 92.0073 146.322 91.9096 146.322H78.0912C78.0426 146.322 77.9944 146.313 77.9494 146.297C77.9043 146.28 77.8634 146.255 77.8288 146.224C77.7943 146.192 77.7669 146.155 77.7482 146.113C77.7295 146.072 77.7199 146.028 77.7199 145.983V141.652C77.7199 141.562 77.759 141.475 77.8287 141.411C77.8983 141.347 77.9928 141.311 78.0912 141.311H91.9178C92.0158 141.312 92.1096 141.348 92.1786 141.412C92.2477 141.476 92.2864 141.562 92.2864 141.652L92.2781 145.983ZM92.2781 134.791C92.2785 134.836 92.2692 134.88 92.2509 134.922C92.2325 134.963 92.2054 135.001 92.1712 135.032C92.1369 135.064 92.0962 135.089 92.0513 135.106C92.0064 135.123 91.9582 135.132 91.9096 135.132H78.0912C78.0424 135.133 77.9939 135.124 77.9487 135.107C77.9035 135.09 77.8624 135.065 77.8279 135.033C77.7933 135.001 77.766 134.964 77.7474 134.922C77.7289 134.881 77.7196 134.836 77.7199 134.791V130.463C77.7196 130.418 77.7289 130.373 77.7474 130.332C77.766 130.29 77.7933 130.253 77.8279 130.221C77.8624 130.189 77.9035 130.164 77.9487 130.147C77.9939 130.13 78.0424 130.121 78.0912 130.122H91.9178C91.9665 130.122 92.0146 130.131 92.0595 130.148C92.1044 130.165 92.1452 130.19 92.1794 130.222C92.2137 130.253 92.2408 130.291 92.2591 130.332C92.2775 130.374 92.2868 130.418 92.2864 130.463L92.2781 134.791ZM92.2781 123.602C92.2782 123.692 92.2394 123.778 92.1704 123.842C92.1013 123.906 92.0076 123.942 91.9096 123.943H78.0912C77.9928 123.943 77.8983 123.907 77.8287 123.843C77.759 123.779 77.7199 123.692 77.7199 123.602V119.27C77.7199 119.18 77.759 119.093 77.8287 119.03C77.8983 118.966 77.9928 118.93 78.0912 118.93H91.9178C92.0158 118.93 92.1096 118.967 92.1786 119.03C92.2477 119.094 92.2864 119.181 92.2864 119.27L92.2781 123.602ZM92.2781 112.41C92.2785 112.455 92.2692 112.499 92.2509 112.54C92.2325 112.581 92.2054 112.619 92.1712 112.651C92.1369 112.682 92.0962 112.708 92.0513 112.725C92.0064 112.742 91.9582 112.751 91.9096 112.751H78.0912C78.0424 112.751 77.9939 112.742 77.9487 112.725C77.9035 112.708 77.8624 112.683 77.8279 112.652C77.7933 112.62 77.766 112.582 77.7474 112.541C77.7289 112.499 77.7196 112.455 77.7199 112.41V108.081C77.7196 108.036 77.7289 107.992 77.7474 107.95C77.766 107.909 77.7933 107.871 77.8279 107.839C77.8624 107.808 77.9035 107.783 77.9487 107.766C77.9939 107.748 78.0424 107.74 78.0912 107.74H91.9178C91.9665 107.74 92.0146 107.749 92.0595 107.766C92.1044 107.783 92.1452 107.809 92.1794 107.84C92.2137 107.872 92.2408 107.909 92.2591 107.951C92.2775 107.992 92.2868 108.036 92.2864 108.081L92.2781 112.41ZM92.2781 101.22C92.2782 101.31 92.2394 101.397 92.1704 101.46C92.1013 101.524 92.0076 101.56 91.9096 101.561H78.0912C78.0425 101.561 77.9942 101.552 77.9491 101.535C77.9041 101.518 77.8632 101.493 77.8287 101.461C77.7942 101.43 77.7669 101.392 77.7482 101.351C77.7295 101.309 77.7199 101.265 77.7199 101.22V96.889C77.7199 96.8443 77.7295 96.8002 77.7482 96.759C77.7669 96.7178 77.7943 96.6804 77.8288 96.6489C77.8634 96.6175 77.9043 96.5926 77.9494 96.5758C77.9944 96.5589 78.0426 96.5504 78.0912 96.5507H91.9178C92.0156 96.5507 92.1093 96.5864 92.1784 96.6498C92.2476 96.7132 92.2864 96.7993 92.2864 96.889L92.2781 101.22ZM92.2781 90.0309C92.2781 90.1206 92.2393 90.2066 92.1702 90.2701C92.1011 90.3335 92.0073 90.3691 91.9096 90.3691H78.0912C78.0426 90.3695 77.9944 90.361 77.9494 90.3441C77.9043 90.3273 77.8634 90.3024 77.8288 90.271C77.7943 90.2395 77.7669 90.2021 77.7482 90.1609C77.7295 90.1197 77.7199 90.0755 77.7199 90.0309V85.6995C77.7199 85.6091 77.759 85.5224 77.8287 85.4585C77.8983 85.3946 77.9928 85.3587 78.0912 85.3587H91.9178C92.0158 85.3594 92.1096 85.3956 92.1786 85.4594C92.2477 85.5233 92.2864 85.6095 92.2864 85.6995L92.2781 90.0309ZM92.2781 78.8389C92.2785 78.8835 92.2692 78.9278 92.2509 78.9691C92.2325 79.0104 92.2054 79.048 92.1712 79.0797C92.1369 79.1114 92.0962 79.1365 92.0513 79.1537C92.0064 79.1708 91.9582 79.1796 91.9096 79.1796H78.0912C78.0424 79.18 77.9939 79.1714 77.9487 79.1544C77.9035 79.1374 77.8624 79.1123 77.8279 79.0806C77.7933 79.0489 77.766 79.0112 77.7474 78.9697C77.7289 78.9282 77.7196 78.8837 77.7199 78.8389V74.51C77.7196 74.4651 77.7289 74.4207 77.7474 74.3792C77.766 74.3377 77.7933 74.3 77.8279 74.2683C77.8624 74.2366 77.9035 74.2115 77.9487 74.1945C77.9939 74.1775 78.0424 74.1689 78.0912 74.1692H91.9178C91.9665 74.1692 92.0146 74.1781 92.0595 74.1952C92.1044 74.2124 92.1452 74.2375 92.1794 74.2692C92.2137 74.3009 92.2408 74.3384 92.2591 74.3798C92.2775 74.4211 92.2868 74.4654 92.2864 74.51L92.2781 78.8389ZM125.039 145.981C125.039 146.026 125.029 146.07 125.011 146.111C124.992 146.152 124.965 146.19 124.93 146.221C124.896 146.252 124.855 146.277 124.81 146.294C124.764 146.311 124.716 146.319 124.668 146.319H110.849C110.751 146.319 110.657 146.284 110.588 146.22C110.518 146.157 110.479 146.071 110.478 145.981V141.652C110.479 141.562 110.518 141.476 110.588 141.412C110.657 141.348 110.751 141.312 110.849 141.311H124.668C124.766 141.311 124.861 141.347 124.93 141.411C125 141.475 125.039 141.562 125.039 141.652V145.981ZM125.039 134.789C125.039 134.834 125.03 134.878 125.011 134.92C124.993 134.961 124.966 134.999 124.931 135.031C124.896 135.062 124.855 135.087 124.81 135.104C124.765 135.121 124.717 135.13 124.668 135.13H110.849C110.801 135.13 110.752 135.121 110.707 135.104C110.662 135.087 110.621 135.061 110.587 135.03C110.552 134.998 110.525 134.961 110.506 134.919C110.488 134.878 110.478 134.834 110.478 134.789V130.463C110.478 130.372 110.517 130.285 110.587 130.222C110.656 130.158 110.751 130.122 110.849 130.122H124.668C124.717 130.121 124.765 130.13 124.81 130.147C124.855 130.164 124.896 130.189 124.931 130.221C124.966 130.253 124.993 130.29 125.011 130.332C125.03 130.373 125.039 130.418 125.039 130.463V134.789ZM125.039 123.599C125.039 123.69 125 123.776 124.93 123.84C124.861 123.904 124.766 123.94 124.668 123.94H110.849C110.751 123.939 110.657 123.903 110.588 123.84C110.518 123.776 110.479 123.69 110.478 123.599V119.27C110.479 119.18 110.518 119.094 110.588 119.03C110.657 118.967 110.751 118.93 110.849 118.93H124.668C124.766 118.93 124.861 118.966 124.93 119.03C125 119.093 125.039 119.18 125.039 119.27V123.599ZM125.039 112.407C125.039 112.452 125.03 112.497 125.011 112.538C124.993 112.58 124.966 112.617 124.931 112.649C124.896 112.681 124.855 112.706 124.81 112.723C124.765 112.74 124.717 112.748 124.668 112.748H110.849C110.751 112.748 110.656 112.712 110.587 112.648C110.517 112.584 110.478 112.498 110.478 112.407V108.081C110.478 107.991 110.517 107.904 110.587 107.84C110.656 107.776 110.751 107.74 110.849 107.74H124.668C124.717 107.74 124.765 107.748 124.81 107.766C124.855 107.783 124.896 107.808 124.931 107.839C124.966 107.871 124.993 107.909 125.011 107.95C125.03 107.992 125.039 108.036 125.039 108.081V112.407ZM125.039 101.218C125.039 101.308 125 101.395 124.93 101.459C124.861 101.523 124.766 101.559 124.668 101.559H110.849C110.751 101.558 110.657 101.522 110.588 101.458C110.518 101.394 110.479 101.308 110.478 101.218V96.889C110.479 96.799 110.518 96.713 110.588 96.6497C110.657 96.5863 110.751 96.5507 110.849 96.5507H124.668C124.716 96.5504 124.764 96.5589 124.81 96.5758C124.855 96.5926 124.896 96.6175 124.93 96.6489C124.965 96.6804 124.992 96.7178 125.011 96.759C125.029 96.8002 125.039 96.8443 125.039 96.889V101.218ZM125.039 90.0284C125.039 90.073 125.029 90.1172 125.011 90.1584C124.992 90.1996 124.965 90.237 124.93 90.2684C124.896 90.2999 124.855 90.3247 124.81 90.3416C124.764 90.3584 124.716 90.3669 124.668 90.3666H110.849C110.751 90.3666 110.657 90.3311 110.588 90.2677C110.518 90.2043 110.479 90.1183 110.478 90.0284V85.6995C110.479 85.6093 110.518 85.523 110.588 85.4593C110.657 85.3955 110.751 85.3594 110.849 85.3587H124.668C124.766 85.3587 124.861 85.3946 124.93 85.4585C125 85.5224 125.039 85.6091 125.039 85.6995V90.0284ZM125.039 78.8364C125.039 78.8812 125.03 78.9257 125.011 78.9672C124.993 79.0086 124.966 79.0463 124.931 79.0781C124.896 79.1098 124.855 79.1349 124.81 79.1519C124.765 79.1689 124.717 79.1775 124.668 79.1771H110.849C110.801 79.1771 110.752 79.1683 110.707 79.1512C110.662 79.134 110.621 79.1089 110.587 79.0773C110.552 79.0457 110.525 79.0081 110.506 78.9668C110.488 78.9254 110.478 78.8811 110.478 78.8364V74.51C110.478 74.4196 110.517 74.3329 110.587 74.269C110.656 74.2051 110.751 74.1692 110.849 74.1692H124.668C124.717 74.1689 124.765 74.1775 124.81 74.1945C124.855 74.2115 124.896 74.2366 124.931 74.2683C124.966 74.3 124.993 74.3377 125.011 74.3792C125.03 74.4207 125.039 74.4651 125.039 74.51V78.8364ZM147.425 145.978C147.425 146.023 147.415 146.067 147.397 146.108C147.378 146.15 147.351 146.187 147.316 146.218C147.282 146.25 147.241 146.275 147.196 146.292C147.151 146.308 147.102 146.317 147.054 146.317H133.235C133.137 146.317 133.043 146.281 132.974 146.218C132.904 146.154 132.865 146.068 132.864 145.978V141.652C132.865 141.562 132.904 141.476 132.974 141.412C133.043 141.348 133.137 141.312 133.235 141.311H147.054C147.152 141.311 147.247 141.347 147.316 141.411C147.386 141.475 147.425 141.562 147.425 141.652V145.978ZM147.425 134.786C147.425 134.831 147.416 134.876 147.397 134.917C147.379 134.959 147.352 134.996 147.317 135.028C147.283 135.06 147.241 135.085 147.196 135.102C147.151 135.119 147.103 135.127 147.054 135.127H133.235C133.187 135.127 133.138 135.118 133.093 135.101C133.048 135.084 133.007 135.059 132.973 135.027C132.938 134.996 132.911 134.958 132.892 134.917C132.874 134.875 132.864 134.831 132.864 134.786V130.463C132.864 130.418 132.874 130.373 132.892 130.332C132.911 130.291 132.938 130.253 132.973 130.222C133.007 130.19 133.048 130.165 133.093 130.148C133.138 130.131 133.187 130.122 133.235 130.122H147.054C147.103 130.121 147.151 130.13 147.196 130.147C147.241 130.164 147.283 130.189 147.317 130.221C147.352 130.253 147.379 130.29 147.397 130.332C147.416 130.373 147.425 130.418 147.425 130.463V134.786ZM147.425 123.597C147.425 123.642 147.415 123.686 147.397 123.727C147.378 123.769 147.351 123.806 147.316 123.838C147.282 123.869 147.241 123.895 147.196 123.912C147.151 123.929 147.102 123.938 147.054 123.938H133.235C133.137 123.937 133.043 123.901 132.974 123.837C132.904 123.773 132.865 123.687 132.864 123.597V119.27C132.865 119.18 132.904 119.094 132.974 119.03C133.043 118.967 133.137 118.93 133.235 118.93H147.054C147.152 118.93 147.247 118.966 147.316 119.03C147.386 119.093 147.425 119.18 147.425 119.27V123.597ZM147.425 112.405C147.425 112.45 147.416 112.494 147.397 112.536C147.379 112.577 147.352 112.615 147.317 112.647C147.283 112.678 147.241 112.703 147.196 112.72C147.151 112.737 147.103 112.746 147.054 112.746H133.235C133.187 112.746 133.138 112.737 133.093 112.72C133.048 112.703 133.007 112.677 132.973 112.646C132.938 112.614 132.911 112.577 132.892 112.535C132.874 112.494 132.864 112.45 132.864 112.405V108.081C132.864 108.036 132.874 107.992 132.892 107.951C132.911 107.909 132.938 107.872 132.973 107.84C133.007 107.808 133.048 107.783 133.093 107.766C133.138 107.749 133.187 107.74 133.235 107.74H147.054C147.103 107.74 147.151 107.748 147.196 107.766C147.241 107.783 147.283 107.808 147.317 107.839C147.352 107.871 147.379 107.909 147.397 107.95C147.416 107.992 147.425 108.036 147.425 108.081V112.405ZM147.425 101.215C147.425 101.306 147.386 101.392 147.316 101.456C147.247 101.52 147.152 101.556 147.054 101.556H133.235C133.137 101.555 133.043 101.519 132.974 101.456C132.904 101.392 132.865 101.306 132.864 101.215V96.889C132.865 96.799 132.904 96.713 132.974 96.6497C133.043 96.5863 133.137 96.5507 133.235 96.5507H147.054C147.102 96.5504 147.151 96.5589 147.196 96.5758C147.241 96.5926 147.282 96.6175 147.316 96.6489C147.351 96.6804 147.378 96.7178 147.397 96.759C147.415 96.8002 147.425 96.8443 147.425 96.889V101.215ZM147.425 90.0258C147.425 90.0705 147.415 90.1147 147.397 90.1559C147.378 90.1971 147.351 90.2345 147.316 90.2659C147.282 90.2974 147.241 90.3222 147.196 90.3391C147.151 90.3559 147.102 90.3644 147.054 90.3641H133.235C133.137 90.3641 133.043 90.3285 132.974 90.2652C132.904 90.2018 132.865 90.1158 132.864 90.0258V85.6995C132.865 85.6093 132.904 85.523 132.974 85.4593C133.043 85.3955 133.137 85.3594 133.235 85.3587H147.054C147.152 85.3587 147.247 85.3946 147.316 85.4585C147.386 85.5224 147.425 85.6091 147.425 85.6995V90.0258ZM147.425 78.8338C147.425 78.8787 147.416 78.9231 147.397 78.9646C147.379 79.0061 147.352 79.0438 147.317 79.0755C147.283 79.1072 147.241 79.1323 147.196 79.1493C147.151 79.1663 147.103 79.1749 147.054 79.1746H133.235C133.187 79.1746 133.138 79.1658 133.093 79.1487C133.048 79.1315 133.007 79.1064 132.973 79.0748C132.938 79.0431 132.911 79.0056 132.892 78.9642C132.874 78.9229 132.864 78.8786 132.864 78.8338V74.51C132.864 74.4652 132.874 74.4209 132.892 74.3796C132.911 74.3382 132.938 74.3007 132.973 74.269C133.007 74.2374 133.048 74.2123 133.093 74.1952C133.138 74.178 133.187 74.1692 133.235 74.1692H147.054C147.103 74.1689 147.151 74.1775 147.196 74.1945C147.241 74.2115 147.283 74.2366 147.317 74.2683C147.352 74.3 147.379 74.3377 147.397 74.3792C147.416 74.4207 147.425 74.4651 147.425 74.51V78.8338ZM180.186 145.976C180.185 146.066 180.146 146.152 180.076 146.215C180.007 146.279 179.913 146.314 179.815 146.314H165.996C165.948 146.314 165.899 146.306 165.854 146.289C165.809 146.272 165.768 146.247 165.734 146.216C165.699 146.184 165.672 146.147 165.653 146.106C165.634 146.065 165.625 146.02 165.625 145.976V141.652C165.625 141.562 165.664 141.475 165.734 141.411C165.803 141.347 165.898 141.311 165.996 141.311H179.815C179.913 141.312 180.007 141.348 180.076 141.412C180.146 141.476 180.185 141.562 180.186 141.652V145.976ZM180.186 134.784C180.186 134.874 180.147 134.961 180.077 135.025C180.007 135.089 179.913 135.125 179.815 135.125H165.996C165.9 135.124 165.808 135.089 165.739 135.026C165.671 134.964 165.632 134.88 165.63 134.791V130.463C165.63 130.418 165.639 130.373 165.658 130.332C165.676 130.29 165.704 130.253 165.738 130.221C165.773 130.189 165.814 130.164 165.859 130.147C165.904 130.13 165.953 130.121 166.002 130.122H179.82C179.918 130.122 180.013 130.158 180.083 130.222C180.152 130.285 180.191 130.372 180.191 130.463L180.186 134.784ZM180.186 123.594C180.185 123.685 180.146 123.771 180.076 123.835C180.007 123.898 179.913 123.934 179.815 123.935H165.996C165.898 123.935 165.803 123.899 165.734 123.835C165.664 123.771 165.625 123.685 165.625 123.594V119.27C165.625 119.18 165.664 119.093 165.734 119.03C165.803 118.966 165.898 118.93 165.996 118.93H179.815C179.913 118.93 180.007 118.967 180.076 119.03C180.146 119.094 180.185 119.18 180.186 119.27V123.594ZM180.186 112.402C180.186 112.493 180.147 112.579 180.077 112.643C180.007 112.707 179.913 112.743 179.815 112.743H165.996C165.947 112.743 165.899 112.735 165.854 112.718C165.808 112.701 165.767 112.676 165.733 112.644C165.698 112.612 165.671 112.575 165.652 112.533C165.634 112.492 165.624 112.447 165.625 112.402V108.081C165.624 108.036 165.634 107.992 165.652 107.95C165.671 107.909 165.698 107.871 165.733 107.839C165.767 107.808 165.808 107.783 165.854 107.766C165.899 107.748 165.947 107.74 165.996 107.74H179.815C179.913 107.74 180.007 107.776 180.077 107.84C180.147 107.904 180.186 107.991 180.186 108.081V112.402ZM180.186 101.213C180.185 101.303 180.146 101.389 180.076 101.453C180.007 101.517 179.913 101.553 179.815 101.554H165.996C165.9 101.552 165.808 101.517 165.74 101.455C165.672 101.393 165.632 101.309 165.63 101.22V96.889C165.63 96.8443 165.64 96.8002 165.659 96.759C165.677 96.7178 165.705 96.6804 165.739 96.6489C165.774 96.6175 165.815 96.5926 165.86 96.5758C165.905 96.5589 165.953 96.5504 166.002 96.5507H179.82C179.918 96.5507 180.012 96.5863 180.082 96.6497C180.151 96.713 180.191 96.799 180.191 96.889L180.186 101.213ZM180.186 90.0233C180.185 90.1133 180.146 90.1993 180.076 90.2626C180.007 90.326 179.913 90.3616 179.815 90.3616H165.996C165.948 90.3619 165.899 90.3534 165.854 90.3365C165.809 90.3197 165.768 90.2948 165.734 90.2634C165.699 90.232 165.672 90.1946 165.653 90.1534C165.634 90.1121 165.625 90.068 165.625 90.0233V85.6995C165.625 85.6091 165.664 85.5224 165.734 85.4585C165.803 85.3946 165.898 85.3587 165.996 85.3587H179.815C179.913 85.3594 180.007 85.3955 180.076 85.4593C180.146 85.523 180.185 85.6093 180.186 85.6995V90.0233ZM180.186 78.8313C180.186 78.9217 180.147 79.0084 180.077 79.0723C180.007 79.1362 179.913 79.1721 179.815 79.1721H165.996C165.947 79.1724 165.899 79.1638 165.854 79.1468C165.808 79.1298 165.767 79.1047 165.733 79.073C165.698 79.0413 165.671 79.0036 165.652 78.9621C165.634 78.9206 165.624 78.8762 165.625 78.8313V74.51C165.624 74.4651 165.634 74.4207 165.652 74.3792C165.671 74.3377 165.698 74.3 165.733 74.2683C165.767 74.2366 165.808 74.2115 165.854 74.1945C165.899 74.1775 165.947 74.1689 165.996 74.1692H179.815C179.913 74.1692 180.007 74.2051 180.077 74.269C180.147 74.3329 180.186 74.4196 180.186 74.51V78.8313Z" fill="#F2F2F2"/>
<path d="M70.4036 8.61449L66.1349 11.0982L68.7259 6.77187C67.9922 6.23467 67.0844 5.93714 66.1459 5.92628H66.0772C65.7806 5.93036 65.4842 5.91008 65.1915 5.8657L63.7448 6.71633L64.3636 5.68144C63.3376 5.35315 62.4516 4.73448 61.8332 3.91454L59.245 5.42903L60.8788 2.70043C59.366 1.03198 57.3252 0.00970459 55.078 0.00970459C52.3853 0.00970459 49.9869 1.47875 48.4384 3.76814C47.9805 4.45557 47.3316 5.01888 46.5583 5.40033C45.785 5.78178 44.915 5.96766 44.0377 5.9389H43.8946C40.9214 5.9389 38.512 9.03349 38.512 12.85C38.512 16.6665 40.9214 19.7585 43.8946 19.7585C44.5478 19.7554 45.1904 19.6073 45.7677 19.3269C46.7796 18.8751 47.8866 18.6307 49.0117 18.6106C50.1368 18.5906 51.2533 18.7954 52.2836 19.2108C53.1549 19.5685 54.0987 19.7534 55.0533 19.7534C56.0078 19.7534 56.9517 19.5685 57.823 19.2108C58.8451 18.804 59.9506 18.6039 61.0644 18.6239C62.1783 18.6439 63.2744 18.8837 64.2784 19.3269C64.8516 19.6015 65.4883 19.746 66.1349 19.7485C69.1082 19.7485 71.5176 16.6539 71.5176 12.8399C71.539 11.3679 71.1559 9.9147 70.4036 8.61449Z" fill="#F2F2F2"/>
<path opacity="0.03" d="M62.3585 18.7241C60.8054 18.4527 59.1994 18.6126 57.746 19.1834C56.8749 19.5403 55.9316 19.7248 54.9776 19.7248C54.0237 19.7248 53.0804 19.5403 52.2093 19.1834C50.1767 18.3581 47.6325 18.3757 45.6934 19.3021C45.1151 19.582 44.4715 19.7293 43.8176 19.7312C41.1771 19.7312 38.9795 17.2903 38.5229 14.0696C39.05 13.7162 39.4982 13.2731 39.8432 12.7646C41.3917 10.46 43.7846 8.98846 46.4828 8.98846C49.181 8.98846 51.5437 10.4398 53.0839 12.7065C53.5452 13.3911 54.1916 13.9545 54.9603 14.342C55.729 14.7294 56.5939 14.9278 57.4709 14.9177H57.5397C59.652 14.9202 61.4728 16.4675 62.3585 18.7241Z" fill="black"/>
<path d="M216.173 51.9316L214.039 53.1608L215.331 51.0027C214.965 50.735 214.512 50.5867 214.044 50.5812H214.011C213.863 50.5838 213.715 50.5737 213.568 50.5509L212.848 50.9724L213.156 50.4549C212.645 50.2906 212.204 49.9834 211.893 49.5765L210.603 50.3338L211.428 48.9708C211.085 48.5652 210.647 48.2348 210.147 48.0034C209.647 47.772 209.097 47.6455 208.538 47.633C207.195 47.633 205.999 48.3675 205.237 49.5084C205.008 49.8516 204.683 50.1328 204.297 50.3231C203.91 50.5133 203.475 50.6059 203.037 50.5913H202.965C201.483 50.5913 200.281 52.1335 200.281 54.0367C200.281 55.9399 201.483 57.4821 202.965 57.4821C203.291 57.4812 203.612 57.4075 203.9 57.2676C204.405 57.0426 204.957 56.9209 205.518 56.9108C206.078 56.9008 206.635 57.0027 207.149 57.2095C207.584 57.3877 208.055 57.4797 208.531 57.4797C209.007 57.4797 209.478 57.3877 209.913 57.2095C210.423 57.007 210.975 56.9074 211.53 56.9174C212.086 56.9274 212.633 57.0468 213.134 57.2676C213.419 57.4045 213.736 57.4764 214.058 57.4771C215.54 57.4771 216.742 55.9349 216.742 54.0317C216.746 53.299 216.551 52.5771 216.173 51.9316Z" fill="#F2F2F2"/>
<path opacity="0.03" d="M212.16 56.9723C211.385 56.8385 210.584 56.9184 209.858 57.202C209.425 57.3787 208.956 57.4699 208.483 57.4695C208.009 57.4673 207.54 57.3745 207.107 57.1969C206.593 56.9901 206.036 56.8881 205.475 56.8982C204.914 56.9082 204.361 57.0299 203.856 57.255C203.568 57.3952 203.247 57.4689 202.921 57.4695C201.604 57.4695 200.509 56.2529 200.281 54.645C200.544 54.4687 200.768 54.2477 200.941 53.9938C201.711 52.8529 202.907 52.1184 204.241 52.1184C205.575 52.1184 206.766 52.8428 207.542 53.9736C207.773 54.3167 208.098 54.5988 208.483 54.7921C208.869 54.9855 209.303 55.0836 209.742 55.0767H209.778C210.81 55.0767 211.717 55.849 212.16 56.9723Z" fill="black"/>
<path d="M268 167.845V169.107C267.999 169.778 267.845 170.442 267.549 171.055C267.252 171.669 266.819 172.218 266.278 172.67C265.737 173.121 265.099 173.464 264.405 173.676C263.712 173.889 262.977 173.966 262.249 173.903C251.481 172.964 240.763 171.217 229.959 171.52C210.04 172.078 189.956 179.554 170.675 174.935C165.238 173.633 159.86 171.369 154.266 171.856C149.246 172.293 144.78 174.897 139.917 176.119C125.127 179.845 110.071 170.43 94.7375 170.808C84.6323 171.061 74.9562 175.576 64.862 175.074C59.0117 174.786 53.4393 172.823 47.7321 171.614C33.5232 168.6 18.8907 170.286 4.24993 171.331C3.72191 171.368 3.19122 171.305 2.69102 171.145C2.19082 170.986 1.73187 170.733 1.34286 170.403C0.953849 170.073 0.643137 169.674 0.430144 169.229C0.217151 168.784 0.106457 168.303 0.10498 167.817V166.747C0.10498 165.81 0.510672 164.911 1.23281 164.248C1.95495 163.586 2.93438 163.213 3.95563 163.213L262.753 163.021C264.145 163.024 265.479 163.533 266.463 164.438C267.447 165.342 268 166.567 268 167.845Z" fill="#3F3D56"/>
<path opacity="0.1" d="M268 167.845V169.107C267.999 169.778 267.845 170.442 267.549 171.055C267.252 171.669 266.819 172.218 266.278 172.67C265.737 173.121 265.099 173.464 264.405 173.676C263.712 173.889 262.977 173.966 262.249 173.903C251.481 172.964 240.763 171.217 229.959 171.52C210.04 172.078 189.956 179.554 170.675 174.935C165.238 173.633 159.86 171.369 154.266 171.856C149.246 172.293 144.78 174.897 139.917 176.119C125.127 179.845 110.071 170.43 94.7375 170.808C84.6323 171.061 74.9562 175.576 64.862 175.074C59.0117 174.786 53.4393 172.823 47.7321 171.614C33.5232 168.6 18.8907 170.286 4.24993 171.331C3.72191 171.368 3.19122 171.305 2.69102 171.145C2.19082 170.986 1.73187 170.733 1.34286 170.403C0.953849 170.073 0.643137 169.674 0.430144 169.229C0.217151 168.784 0.106457 168.303 0.10498 167.817V166.747C0.10498 165.81 0.510672 164.911 1.23281 164.248C1.95495 163.586 2.93438 163.213 3.95563 163.213L262.753 163.021C264.145 163.024 265.479 163.533 266.463 164.438C267.447 165.342 268 166.567 268 167.845Z" fill="black"/>
<path d="M268 165.535V166.797C268 166.973 267.99 167.148 267.97 167.322C267.824 168.585 267.141 169.743 266.07 170.546C264.999 171.349 263.626 171.733 262.249 171.614C251.481 170.672 240.763 168.925 229.959 169.231C210.04 169.791 189.956 177.268 170.675 172.646C165.238 171.343 159.86 169.079 154.266 169.566C149.246 170.003 144.78 172.595 139.917 173.832C125.127 177.538 110.071 168.123 94.7375 168.514C84.6323 168.766 74.9562 173.282 64.862 172.782C59.0117 172.492 53.4393 170.531 47.7321 169.319C33.5259 166.308 18.8907 167.991 4.24994 169.036C3.29772 169.104 2.35217 168.844 1.59688 168.308C0.841586 167.771 0.330461 166.996 0.162749 166.134C0.123826 165.932 0.104497 165.728 0.10499 165.523V164.442C0.10499 163.505 0.510682 162.606 1.23282 161.944C1.95496 161.281 2.93439 160.909 3.95564 160.909L68.8144 160.858L201.335 160.757L262.747 160.712C264.141 160.712 265.477 161.221 266.462 162.125C267.447 163.03 268 164.257 268 165.535Z" fill="#3F3D56"/>
<path d="M244.511 161.891C245.336 160.5 244.398 158.796 243.331 157.554C242.264 156.312 240.963 155.03 240.99 153.442C241.032 151.17 243.658 149.83 245.757 148.626C247.314 147.732 248.75 146.672 250.037 145.468C250.574 145.004 251.019 144.458 251.351 143.853C251.786 142.965 251.772 141.955 251.745 140.981C251.655 137.74 251.481 134.501 251.222 131.265" stroke="#3F3D56" stroke-width="4" stroke-miterlimit="10"/>
<path d="M255.213 131.088C255.184 130.495 254.992 129.918 254.656 129.411C254.319 128.903 253.849 128.482 253.288 128.186L252.424 129.756L252.449 127.855C252.037 127.743 251.607 127.696 251.178 127.716C250.418 127.751 249.687 127.991 249.076 128.407C248.464 128.823 248.001 129.395 247.744 130.053C247.488 130.71 247.449 131.422 247.632 132.099C247.816 132.777 248.215 133.389 248.777 133.859C249.34 134.329 250.042 134.636 250.794 134.74C251.546 134.844 252.315 134.742 253.004 134.445C253.693 134.149 254.27 133.672 254.664 133.074C255.058 132.477 255.25 131.786 255.216 131.088H255.213Z" fill="#57B894"/>
<path d="M248.329 155.065C247.924 155.785 247.261 156.356 246.453 156.681C245.644 157.007 244.738 157.067 243.886 156.852C243.035 156.638 242.289 156.161 241.775 155.502C241.261 154.843 241.01 154.042 241.063 153.233C241.116 152.424 241.47 151.656 242.067 151.058C242.663 150.461 243.465 150.069 244.339 149.95C245.212 149.83 246.104 149.99 246.864 150.402C247.625 150.814 248.208 151.453 248.516 152.213L246.103 154.015L248.758 153.45C248.757 154.012 248.61 154.566 248.329 155.065Z" fill="#57B894"/>
<path d="M246.423 148.19C245.461 148.255 244.508 147.988 243.751 147.44C242.994 146.892 242.489 146.103 242.335 145.229C242.181 144.356 242.39 143.461 242.92 142.722C243.45 141.983 244.263 141.453 245.199 141.238L245.177 142.697L246.051 141.109C246.558 141.087 247.065 141.156 247.542 141.313C248.019 141.471 248.458 141.713 248.833 142.027C249.208 142.341 249.512 142.719 249.727 143.141C249.942 143.562 250.064 144.019 250.086 144.484C250.109 144.893 250.053 145.302 249.921 145.693C249.687 146.388 249.226 147.001 248.601 147.447C247.975 147.894 247.214 148.153 246.423 148.19Z" fill="#57B894"/>
<path d="M255.793 142.465C254.772 142.509 253.773 142.179 253.017 141.548C252.261 140.916 251.809 140.035 251.761 139.098C251.713 138.16 252.072 137.244 252.761 136.55C253.449 135.856 254.409 135.441 255.43 135.397C256.152 135.364 256.869 135.52 257.499 135.846L256.816 137.56L258.222 136.326C258.973 136.957 259.421 137.836 259.468 138.769C259.486 139.098 259.454 139.426 259.372 139.746C259.179 140.495 258.725 141.166 258.079 141.656C257.434 142.147 256.631 142.431 255.793 142.465Z" fill="#57B894"/>
<path opacity="0.1" d="M254.693 132.032C253.802 132.123 252.936 132.378 252.042 132.429C251.148 132.479 250.166 132.282 249.599 131.644C249.297 131.3 249.143 130.866 248.887 130.49C248.642 130.142 248.308 129.854 247.913 129.652C247.68 130.099 247.551 130.586 247.536 131.082C247.521 131.577 247.62 132.07 247.826 132.528C248.032 132.986 248.341 133.399 248.732 133.741C249.124 134.082 249.589 134.344 250.098 134.51C250.607 134.676 251.148 134.742 251.687 134.703C252.225 134.664 252.749 134.522 253.223 134.285C253.698 134.049 254.113 133.723 254.441 133.33C254.77 132.937 255.005 132.484 255.13 132.002C254.985 132.01 254.839 132.017 254.693 132.032Z" fill="black"/>
<path opacity="0.1" d="M255.793 142.465C255.128 142.496 254.464 142.368 253.869 142.093C253.273 141.818 252.766 141.406 252.395 140.897C252.025 140.389 251.806 139.8 251.758 139.19C251.71 138.58 251.835 137.969 252.121 137.417C252.428 137.606 252.692 137.848 252.897 138.131C253.172 138.512 253.34 138.951 253.662 139.3C254.264 139.951 255.29 140.163 256.222 140.122C257.155 140.082 258.054 139.842 258.973 139.764C259.102 139.751 259.231 139.744 259.363 139.741C259.172 140.49 258.72 141.161 258.076 141.652C257.432 142.144 256.63 142.429 255.793 142.465Z" fill="black"/>
<path opacity="0.1" d="M246.422 148.19C245.763 148.221 245.105 148.095 244.513 147.826C243.922 147.556 243.415 147.152 243.043 146.651C242.671 146.15 242.446 145.569 242.389 144.965C242.332 144.361 242.445 143.754 242.718 143.202C243.04 143.392 243.32 143.636 243.543 143.921C243.843 144.31 244.03 144.757 244.368 145.115C245.02 145.781 246.114 146.014 247.099 145.994C248.084 145.973 248.978 145.759 249.927 145.693C249.692 146.389 249.231 147.002 248.604 147.449C247.977 147.895 247.215 148.154 246.422 148.19Z" fill="black"/>
<path opacity="0.1" d="M248.329 155.065C248.122 155.489 247.826 155.872 247.458 156.191C247.09 156.51 246.657 156.76 246.184 156.926C245.711 157.091 245.207 157.17 244.701 157.157C244.195 157.144 243.697 157.04 243.235 156.85C242.773 156.66 242.356 156.389 242.008 156.051C241.66 155.713 241.388 155.316 241.207 154.882C241.027 154.448 240.941 153.986 240.955 153.521C240.97 153.057 241.083 152.599 241.29 152.175C241.608 152.367 241.894 152.601 242.137 152.869C242.506 153.281 242.748 153.745 243.171 154.131C243.961 154.841 245.234 155.141 246.37 155.161C247.024 155.165 247.678 155.133 248.329 155.065Z" fill="black"/>
<path d="M238.688 160.29C238.688 160.29 241.736 160.202 242.654 159.604C243.573 159.005 247.33 158.286 247.567 159.248C247.803 160.209 252.146 164.044 248.705 164.061C245.265 164.079 240.729 163.556 239.797 163.052C238.864 162.547 238.688 160.29 238.688 160.29Z" fill="#656380"/>
<path opacity="0.2" d="M248.769 163.718C245.328 163.743 240.776 163.226 239.86 162.708C239.161 162.32 238.884 160.919 238.79 160.273H238.688C238.688 160.273 238.881 162.527 239.788 163.049C240.696 163.572 245.259 164.079 248.697 164.059C249.69 164.059 250.034 163.726 250.015 163.246C249.885 163.539 249.52 163.718 248.769 163.718Z" fill="black"/>
<path d="M168.048 131.245C168.048 135.46 170.403 135.708 174.327 138.875C178.252 142.043 180.604 135.46 180.604 131.245C180.604 127.03 177.793 123.612 174.327 123.612C170.862 123.612 168.048 127.03 168.048 131.245Z" fill="#915766"/>
<path d="M127.982 93.3729C127.611 94.1983 128.125 95.1726 128.892 95.7178C129.66 96.263 130.631 96.4977 131.552 96.7804C135.678 98.0425 139.369 100.678 141.41 104.206C143.451 107.735 143.723 112.165 141.789 115.747C140.758 117.658 139.16 119.281 138.214 121.222C136.31 125.084 137.276 129.821 140.01 133.239C142.744 136.657 148.099 137.316 152.568 138.376C152.568 138.376 164.12 146.705 168.246 144.434" stroke="#3F3D56" stroke-miterlimit="10"/>
<path d="M137.98 158.569C137.98 158.569 137.43 162.86 139.905 163.112C141.112 163.212 142.324 163.248 143.536 163.221C144.238 163.213 144.925 163.034 145.527 162.702C146.129 162.371 146.624 161.898 146.962 161.333C147.299 160.768 147.467 160.131 147.449 159.487C147.43 158.843 147.225 158.215 146.856 157.668L146.781 157.562C144.306 154.025 137.98 158.569 137.98 158.569Z" fill="#915766"/>
<path d="M139.355 155.035C139.355 155.035 145.406 162.355 154.483 155.792C163.559 149.229 152.558 146.201 152.558 146.201H141.006L134.129 148.977L139.355 155.035Z" fill="#B56D7E"/>
<path d="M164.109 148.977C164.109 148.977 166.86 152.006 169.335 151.754C171.321 151.552 175.254 153.298 174.603 156.474C174.512 156.94 174.321 157.386 174.042 157.785C173.763 158.183 173.4 158.527 172.975 158.797C172.55 159.066 172.071 159.256 171.566 159.354C171.06 159.453 170.539 159.459 170.031 159.371C169.504 159.279 169.011 159.064 168.6 158.747C168.189 158.429 167.874 158.02 167.685 157.559C167.685 157.559 158.884 158.064 159.159 155.792C159.434 153.52 164.109 148.977 164.109 148.977Z" fill="#915766"/>
<path d="M141.426 150.365C141.426 150.365 145.002 155.414 141.426 158.695C137.851 161.976 134 162.481 134 162.481C134 162.481 135.375 164.753 130.149 164.5C124.923 164.248 123.273 162.734 124.923 160.462C126.574 158.19 130.699 155.666 129.874 153.899C129.049 152.132 127.949 148.346 129.599 146.074C128.934 145.569 128.351 144.979 127.866 144.323C126.406 142.283 129.33 139.986 131.351 141.574L132.9 142.793C132.9 142.793 137.576 139.259 147.752 141.026C147.752 141.026 151.878 140.774 152.703 137.997C152.703 137.997 148.302 129.163 159.854 122.6C161.932 121.772 164.198 121.426 166.456 121.59C170.306 121.843 174.432 122.095 177.182 127.648C177.182 127.648 179.429 131.434 182.07 132.893C182.782 133.3 183.39 133.843 183.851 134.485C184.313 135.127 184.619 135.853 184.746 136.614C185.541 140.963 184.534 147.879 168.381 144.307C168.381 144.307 167.143 153.52 159.442 157.307C159.442 157.307 158.892 159.831 159.442 160.588C159.992 161.345 162.742 164.879 158.342 164.627C156.141 164.503 154.444 164.5 153.275 164.533C152.775 164.548 152.281 164.437 151.845 164.212C151.409 163.988 151.047 163.658 150.8 163.26C150.552 162.861 150.428 162.408 150.44 161.949C150.452 161.49 150.6 161.043 150.869 160.656C150.882 160.633 150.899 160.611 150.915 160.588C150.932 160.565 151.741 157.054 148.99 154.278L148.44 151.249L141.426 150.365Z" fill="#9C5E6D"/>
<path d="M180.2 136.99C182.174 136.99 183.775 136.425 183.775 135.728C183.775 135.031 182.174 134.466 180.2 134.466C178.225 134.466 176.624 135.031 176.624 135.728C176.624 136.425 178.225 136.99 180.2 136.99Z" fill="#915766"/>
<path d="M86.1144 140.112C85.3011 140.529 84.443 140.867 83.5537 141.122C81.9639 141.521 80.2531 141.374 78.6551 141.715C77.9977 141.854 77.2799 142.147 77.0736 142.725C76.9196 143.156 77.0736 143.623 77.2469 144.055C79.0209 148.831 80.0908 153.899 82.9238 158.233C84.1141 160.05 85.5916 161.695 87.3081 163.115C87.9517 163.647 88.6833 164.17 89.5414 164.253C89.9388 164.292 90.3401 164.233 90.705 164.084C91.0698 163.934 91.3853 163.699 91.6196 163.403C91.854 163.106 91.9988 162.757 92.0396 162.392C92.0803 162.028 92.0156 161.66 91.8518 161.325C91.596 160.82 91.1257 160.406 90.8204 159.912C90.4464 159.306 90.3446 158.594 90.2511 157.892C89.976 155.85 89.701 153.715 90.4739 151.779C90.9909 150.481 91.9399 149.376 92.7292 148.202C93.5186 147.028 94.1787 145.678 94.0027 144.307C93.8817 143.371 93.3839 142.515 92.8585 141.705C92.3332 140.895 91.2907 138.711 90.2318 138.441C89.1729 138.171 87.0743 139.66 86.1144 140.112Z" fill="white"/>
<path d="M115.071 156.615C115.088 157.078 115.018 157.54 114.865 157.981C114.532 158.783 113.71 159.334 113.286 160.098C112.695 161.161 112.964 162.448 113.355 163.587C113.6 164.301 113.922 165.043 114.579 165.485C115.113 165.841 115.792 165.949 116.444 166.033C122.096 166.75 127.833 166.338 133.535 166.49C134.575 166.517 135.675 166.55 136.583 166.083C137.49 165.616 138.051 164.445 137.433 163.678C136.882 162.989 135.782 162.996 134.853 162.953C132.424 162.841 130.111 161.967 128.301 160.477C127.944 160.198 127.634 159.871 127.382 159.508C127.188 159.186 127.026 158.848 126.901 158.498C126.101 156.512 125.15 154.579 124.054 152.715C123.749 152.193 123.402 151.65 122.83 151.37C122.414 151.197 121.962 151.107 121.505 151.105C120.083 151.019 116.403 150.575 115.305 151.59C114.29 152.523 115.093 155.426 115.071 156.615Z" fill="white"/>
<path d="M123.815 40.8203C128.828 40.8203 132.892 37.091 132.892 32.4907C132.892 27.8904 128.828 24.161 123.815 24.161C118.802 24.161 114.739 27.8904 114.739 32.4907C114.739 37.091 118.802 40.8203 123.815 40.8203Z" fill="#FBBEBE"/>
<path d="M115.618 39.3664C115.068 40.6941 114.164 41.9385 112.832 42.6478L125.385 44.9978C124.929 43.3166 124.869 41.5653 125.209 39.8611C125.332 39.4501 125.357 39.0198 125.284 38.5991C125.047 37.7636 124.021 37.3597 123.105 37.1679C120.814 36.6883 118.787 36.4308 116.658 35.5045C116.009 36.5268 116.1 38.1876 115.618 39.3664Z" fill="#FBBEBE"/>
<path d="M112.725 39.5305C114.076 38.9704 115.547 38.698 117.029 38.7338C118.511 38.7697 119.965 39.1128 121.282 39.7375C122.891 40.5149 124.225 41.6912 125.534 42.8497C126.741 43.9174 128.029 45.1417 128.114 46.6789C128.155 47.4235 127.902 48.1504 127.773 48.8875C127.544 50.41 127.836 51.9602 128.61 53.3233C129.384 54.6864 130.6 55.7949 132.091 56.4952C133.087 58.0097 133.293 59.8675 133.31 61.647C133.367 68.3839 131.051 75.2041 132.704 81.7694C133.092 83.3091 133.695 84.7984 134.03 86.3532C134.465 88.3726 134.443 90.4297 134.671 92.4692C134.917 94.6764 135.455 96.848 136.272 98.9361C135.722 99.7337 134.589 100.039 133.565 99.9735C132.542 99.9079 131.582 99.5015 130.669 99.0724C126.246 96.995 122.192 94.2563 117.61 92.4894C114.584 91.3207 111.35 90.5938 108.41 89.2434C105.469 87.893 102.733 85.7525 101.833 82.8523C101.445 81.5902 101.421 80.2751 101.399 78.9701C101.311 73.4751 101.228 67.9195 102.532 62.5632C103.679 57.833 105.896 53.3098 106.382 48.4836C106.539 46.9111 106.542 45.23 107.499 43.92C108.847 42.0546 111.765 41.5826 112.725 39.5305Z" fill="#3F3D56"/>
<path d="M118.652 32.6068C119.189 31.9657 120.22 31.8799 121.076 32.0692C121.931 32.2585 122.726 32.6623 123.579 32.8264C123.775 32.8772 123.981 32.8899 124.183 32.8638C124.385 32.8378 124.579 32.7734 124.753 32.675C125.086 32.4402 125.188 32.0288 125.259 31.6476C125.561 29.9976 125.631 28.3188 125.468 26.6524C125.423 26.4182 125.44 26.1776 125.518 25.9507C125.732 25.4786 126.384 25.3651 126.915 25.2136C127.793 24.9417 128.548 24.4089 129.059 23.6995C129.571 22.99 129.81 22.1444 129.74 21.2961C129.727 20.8889 129.54 20.5025 129.22 20.2209C128.851 19.9457 128.337 19.9281 127.861 19.923C125.422 19.9062 122.983 19.9062 120.542 19.923C119.64 19.923 118.691 19.9508 117.907 20.3647C117.329 20.6702 116.898 21.1598 116.378 21.546C115.025 22.5557 113.19 22.7526 111.542 23.2675C110.737 23.4781 110.006 23.8784 109.422 24.4286C108.872 25.0041 108.61 25.8573 108.954 26.5539C109.132 26.8438 109.329 27.1228 109.546 27.3894C110.519 28.8155 109.87 30.6708 110.016 32.3443C110.197 34.4393 113.575 37.8393 115.866 38.3341C119.566 39.1266 117.428 33.9774 118.652 32.6068Z" fill="#3F3D56"/>
<path d="M113.528 124.47C113.762 126 114.062 127.537 113.982 129.079C113.869 131.232 113.025 133.31 112.868 135.46C112.75 137.068 113.022 138.694 112.777 140.289C112.621 141.299 112.26 142.293 112.035 143.318C111.681 144.962 111.693 146.655 112.068 148.295C112.443 149.935 113.175 151.489 114.219 152.864C114.371 153.101 114.59 153.296 114.851 153.43C115.103 153.515 115.371 153.547 115.638 153.526C118.28 153.474 120.915 153.253 123.524 152.864C123.599 152.873 123.675 152.867 123.748 152.847C123.821 152.827 123.888 152.793 123.946 152.748C124.004 152.703 124.051 152.648 124.084 152.585C124.118 152.522 124.136 152.454 124.14 152.385C124.624 150.113 123.521 147.816 123.24 145.506C122.94 143.04 123.584 140.569 124.225 138.156C124.515 136.967 124.878 135.794 125.311 134.642C125.619 133.865 125.993 133.113 126.263 132.323C126.642 131.087 126.874 129.818 126.953 128.537C127.137 126.517 127.235 124.485 127.248 122.441C127.248 120.512 127.187 118.571 126.728 116.688C126.139 114.293 124.935 112.067 123.738 109.873C123.092 109.967 122.528 110.312 121.981 110.63C120.441 111.545 118.833 112.359 117.17 113.069C116.053 113.543 113.869 113.881 113.165 114.876C112.461 115.87 112.918 117.849 112.97 118.93C113.063 120.785 113.251 122.635 113.528 124.47Z" fill="#3F3D56"/>
<path opacity="0.1" d="M113.528 124.47C113.762 126 114.062 127.537 113.982 129.079C113.869 131.232 113.025 133.31 112.868 135.46C112.75 137.068 113.022 138.694 112.777 140.289C112.621 141.299 112.26 142.293 112.035 143.318C111.681 144.962 111.693 146.655 112.068 148.295C112.443 149.935 113.175 151.489 114.219 152.864C114.371 153.101 114.59 153.296 114.851 153.43C115.103 153.515 115.371 153.547 115.638 153.526C118.28 153.474 120.915 153.253 123.524 152.864C123.599 152.873 123.675 152.867 123.748 152.847C123.821 152.827 123.888 152.793 123.946 152.748C124.004 152.703 124.051 152.648 124.084 152.585C124.118 152.522 124.136 152.454 124.14 152.385C124.624 150.113 123.521 147.816 123.24 145.506C122.94 143.04 123.584 140.569 124.225 138.156C124.515 136.967 124.878 135.794 125.311 134.642C125.619 133.865 125.993 133.113 126.263 132.323C126.642 131.087 126.874 129.818 126.953 128.537C127.137 126.517 127.235 124.485 127.248 122.441C127.248 120.512 127.187 118.571 126.728 116.688C126.139 114.293 124.935 112.067 123.738 109.873C123.092 109.967 122.528 110.312 121.981 110.63C120.441 111.545 118.833 112.359 117.17 113.069C116.053 113.543 113.869 113.881 113.165 114.876C112.461 115.87 112.918 117.849 112.97 118.93C113.063 120.785 113.251 122.635 113.528 124.47Z" fill="black"/>
<path d="M101.269 91.7953C100.065 94.7737 101.836 97.992 103.376 100.837C107.155 107.846 109.796 115.328 112.409 122.777C112.604 123.334 112.802 123.943 112.582 124.493C112.394 124.885 112.088 125.218 111.699 125.455C109.892 126.717 107.593 127.163 105.442 127.822C103.362 128.459 101.371 129.316 99.5063 130.374C97.9496 131.26 96.4808 132.285 95.0313 133.307L90.3913 136.558C90.0902 136.744 89.8276 136.977 89.6157 137.247C89.1673 137.891 89.3406 138.732 89.5744 139.469C90.1637 141.418 90.9235 143.321 91.8463 145.158C92.0388 145.544 92.2644 145.948 92.6714 146.15C93.3976 146.506 94.2832 146.034 94.8361 145.474C95.3889 144.913 95.8675 144.211 96.6459 143.982C97.4242 143.752 98.2824 144.032 99.0938 143.929C100.411 143.757 101.294 142.647 102.232 141.793C106.105 138.305 112.571 138.557 116.834 135.483C117.483 135.014 118.075 134.473 118.784 134.082C119.494 133.691 120.322 133.479 121.07 133.133C123.342 132.083 124.772 129.91 125.537 127.683C126.301 125.457 126.521 123.105 127.072 120.823C127.347 119.644 127.729 118.478 127.855 117.289C127.937 116.171 127.911 115.048 127.778 113.934L126.241 96.4801C126.114 95.059 125.991 93.6379 125.746 92.2294C121.18 92.3783 116.617 92.5474 112.048 92.5979C108.421 92.6156 104.707 92.8503 101.269 91.7953Z" fill="#3F3D56"/>
<path d="M99.5806 95.8768C100.199 96.7931 101.707 96.7729 102.744 96.2731C103.781 95.7733 104.589 94.9277 105.629 94.433C107.029 93.7641 108.682 93.7893 110.258 93.8297C112.753 93.8953 115.277 93.9635 117.684 94.5869C120.16 95.2357 122.583 96.4851 125.152 96.2352C125.597 96.1923 126.087 96.0737 126.329 95.7304C126.47 95.4788 126.537 95.1978 126.524 94.9151L126.607 92.8554C126.657 92.5002 126.595 92.1391 126.428 91.8154C126.213 91.5452 125.918 91.3375 125.578 91.2172C121.923 89.5942 117.758 89.2913 113.701 89.1626C111.639 89.1003 109.575 89.0742 107.51 89.0843C105.761 89.0843 103.66 88.8622 101.954 89.2913C99.6631 89.8693 98.4199 94.1679 99.5806 95.8768Z" fill="#3F3D56"/>
<path d="M122.522 41.9764C117.734 41.9385 113.396 39.0383 108.611 38.9676C108.031 38.932 107.452 39.0238 106.919 39.2352C106.253 39.5431 105.819 40.1388 105.307 40.6437C103.893 42.0496 101.842 42.8018 100.389 44.1774C99.0141 45.4648 98.266 47.3806 98.8051 49.1071C99.3442 50.8336 101.374 52.1562 103.277 51.7423C104.044 49.4649 105.627 47.4921 107.769 46.1437C108.882 45.4866 110.057 44.9207 111.278 44.4526C113.432 43.5565 115.836 42.6453 118.083 43.3167C118.912 43.6034 119.693 43.9941 120.405 44.4778L124.148 46.7849C123.713 45.2048 123.32 43.4328 122.522 41.9764Z" fill="#4F88DD"/>
<path d="M102.727 50.2126C102.092 50.9396 103.002 51.9947 102.867 52.9185C102.774 53.5319 102.224 54.0014 101.993 54.5844C101.762 55.1675 101.883 55.8465 101.792 56.4927C101.701 56.9558 101.568 57.4109 101.393 57.8532C100.989 59.1753 100.708 60.5263 100.551 61.8918L99.7126 67.6367C99.5633 68.5 99.4714 69.3707 99.4375 70.2442C99.4375 70.8979 99.4815 71.5643 99.2945 72.1953C99.1075 72.8264 98.7004 73.3741 98.4226 73.9622C98.1448 74.5504 98.0183 75.2849 98.3923 75.8377C97.1409 76.7918 96.7696 78.6697 97.6442 79.9293C97.811 80.1253 97.9412 80.3453 98.0293 80.5805C98.0779 80.9087 98.0185 81.2427 97.8587 81.5397L97.0116 83.612C96.7943 84.1421 96.7365 84.9498 97.3307 85.071C96.8305 85.5467 96.4412 86.111 96.1865 86.7293C96.0622 87.0395 96.025 87.3735 96.0784 87.7003C96.1317 88.0272 96.2739 88.3365 96.4918 88.5997C96.7012 88.77 96.8803 88.9692 97.0226 89.1903C97.1519 89.4831 97.0391 89.8138 96.9593 90.1217C96.8326 90.5742 96.8082 91.0458 96.8877 91.5072C96.9671 91.9687 97.1488 92.4103 97.4214 92.8049C97.7033 93.1947 98.1031 93.5005 98.5716 93.6848C99.0402 93.869 99.5571 93.9238 100.059 93.8423C101.753 93.4915 103.277 92.9387 104.985 93.2264C108.665 93.8448 112.356 94.4683 115.921 95.5133C119.986 96.7047 123.925 98.4514 128.177 98.8174C128.458 98.8725 128.752 98.8312 129.002 98.7013C129.219 98.513 129.353 98.2593 129.382 97.987L130.699 92.3354C131.229 90.2465 131.632 88.1322 131.907 86.0024C132.058 84.6292 132.099 83.246 132.143 81.8653L132.482 70.8752C132.644 69.2558 132.411 67.6235 131.799 66.097L129.852 60.3925C128.752 57.1363 126.191 54.2487 125.284 50.9396C124.709 48.8446 124.285 46.5981 122.742 44.965C120.542 42.6377 116.746 42.2768 113.421 42.6756C111.916 42.8573 110.395 43.1804 109.103 43.8846C107.598 44.71 106.492 46.0125 105.42 47.2872C104.529 48.3347 103.629 49.1777 102.727 50.2126Z" fill="#4F88DD" fill-opacity="0.81"/>
<path d="M110.494 82.5392C110.769 83.6246 111.344 84.6242 111.696 85.6894C112.285 87.4739 112.246 89.3973 112.824 91.1819C113.072 91.9391 113.432 92.6509 113.608 93.4157C114.023 95.2028 113.418 97.048 112.667 98.7391C111.916 100.43 111.003 102.096 110.758 103.909C110.588 105.183 110.835 106.625 111.905 107.442C113.019 108.303 114.634 108.245 116.083 108.129C116.604 108.115 117.118 108.018 117.602 107.841C118.702 107.359 119.175 106.155 119.436 105.065C120.302 101.379 120.055 97.5604 119.802 93.7969L119.147 83.9553C119.021 82.0622 118.872 80.1287 118.248 78.3088C118.017 77.6475 117.615 76.3097 116.955 75.8856C116.295 75.4616 114.441 75.4489 113.633 75.4136C109.837 75.2521 109.881 80.106 110.494 82.5392Z" fill="#FBBEBE"/>
<path d="M114.692 46.2018C113.919 45.8307 112.945 45.9897 112.197 46.4062C111.449 46.8227 110.88 47.4512 110.324 48.0722C108.652 49.9451 106.883 52.0956 107.131 54.5062C107.224 55.4098 107.601 56.2731 107.857 57.1439C108.976 60.9882 107.739 65.0571 107.879 69.0376C107.961 71.3371 108.506 73.5987 109.051 75.8528C109.161 76.3097 109.326 76.8397 109.821 76.9962C110.184 77.1098 110.577 76.9609 110.921 76.8372C112.259 76.3833 113.697 76.2316 115.112 76.395C116.528 76.5585 117.88 77.0322 119.054 77.7762C119.953 77.337 119.604 75.9487 119.414 75.0324C118.817 72.314 119.629 69.5096 120.614 66.8871C121.598 64.2645 122.778 61.647 122.943 58.878C123.127 55.738 121.994 52.6762 120.875 49.7053C120.63 49.0566 120.363 48.3776 119.797 47.9384C119.312 47.6087 118.757 47.3765 118.168 47.2569C116.994 46.9161 115.789 46.7293 114.692 46.2018Z" fill="#3F3D56"/>
<path d="M152.557 138.376C152.557 138.376 160.809 146.705 168.235 144.434" stroke="#3F3D56" stroke-miterlimit="10"/>
<path d="M162.547 131.245C162.547 135.46 160.195 135.708 156.27 138.875C152.346 142.043 149.994 135.46 149.994 131.245C149.994 127.03 152.805 123.612 156.27 123.612C159.736 123.612 162.547 127.03 162.547 131.245Z" fill="#915766"/>
<path d="M23.9812 135.147C24.5828 134.185 24.8933 133.092 24.8807 131.982C24.8807 129.122 22.9553 126.805 20.5679 126.805C18.1805 126.805 16.2579 129.122 16.2579 131.982C16.2453 133.092 16.5558 134.185 17.1573 135.147C16.5676 136.114 16.258 137.204 16.258 138.313C16.258 139.421 16.5676 140.511 17.1573 141.478C16.5676 142.445 16.258 143.535 16.258 144.643C16.258 145.751 16.5676 146.841 17.1573 147.808C16.5676 148.776 16.258 149.865 16.258 150.974C16.258 152.082 16.5676 153.172 17.1573 154.139C16.5562 155.102 16.2457 156.194 16.2579 157.304C16.2579 160.164 18.1833 162.484 20.5679 162.484C22.9526 162.484 24.8807 160.164 24.8807 157.304C24.8929 156.194 24.5824 155.102 23.9812 154.139C24.5695 153.173 24.8783 152.084 24.8783 150.977C24.8783 149.871 24.5695 148.782 23.9812 147.816C24.571 146.849 24.8806 145.759 24.8806 144.651C24.8806 143.542 24.571 142.453 23.9812 141.485C24.571 140.518 24.8806 139.428 24.8806 138.32C24.8806 137.212 24.571 136.122 23.9812 135.155V135.147Z" fill="#3F3D56"/>
<path d="M20.5571 130.834C22.9374 130.834 24.867 128.515 24.867 125.654C24.867 122.793 22.9374 120.474 20.5571 120.474C18.1767 120.474 16.2471 122.793 16.2471 125.654C16.2471 128.515 18.1767 130.834 20.5571 130.834Z" fill="#3F3D56"/>
<path d="M20.5571 124.503C22.9374 124.503 24.867 122.184 24.867 119.323C24.867 116.463 22.9374 114.144 20.5571 114.144C18.1767 114.144 16.2471 116.463 16.2471 119.323C16.2471 122.184 18.1767 124.503 20.5571 124.503Z" fill="#3F3D56"/>
<path d="M4.42001 76.0042C3.83157 75.3158 3.2949 74.5914 2.81374 73.836L14.1429 72.1272L1.88958 72.2105C0.715374 69.8644 0.0748784 67.3231 0.00725161 64.7421C-0.0603752 62.1611 0.446287 59.5946 1.49626 57.1994L17.9303 65.0242L2.77523 54.7939C4.19361 52.5395 6.10289 50.5774 8.38403 49.03C10.6652 47.4826 13.2692 46.3831 16.0338 45.8C18.7984 45.217 21.6643 45.1629 24.4527 45.6411C27.2411 46.1194 29.8922 47.1197 32.2407 48.5797C34.5893 50.0397 36.5848 51.9282 38.103 54.1272C39.6212 56.3262 40.6294 58.7887 41.0648 61.3611C41.5001 63.9335 41.3533 66.5607 40.6335 69.0787C39.9137 71.5967 38.6363 73.9517 36.881 75.9967C37.8002 77.0667 38.5897 78.2253 39.2354 79.4522L24.5314 86.4794L40.2091 81.6507C41.3097 84.6376 41.5815 87.8292 40.9999 90.9367C40.4183 94.0443 39.0017 96.9697 36.8783 99.4484C39.2753 102.244 40.7667 105.601 41.1821 109.138C41.5975 112.674 40.9199 116.247 39.227 119.446C37.5341 122.646 34.8942 125.344 31.6091 127.231C28.324 129.119 24.5264 130.12 20.6505 130.12C16.7747 130.12 12.977 129.119 9.69193 127.231C6.40684 125.344 3.76689 122.646 2.07399 119.446C0.381084 116.247 -0.296426 112.674 0.118935 109.138C0.534295 105.601 2.02576 102.244 4.42276 99.4484C1.55947 96.1081 0.00278404 91.9814 0.00278404 87.7314C0.00278404 83.4814 1.55947 79.3547 4.42276 76.0143L4.42001 76.0042Z" fill="#57B894"/>
<path opacity="0.1" d="M41.31 87.7213C41.316 91.9723 39.7586 96.1007 36.89 99.4384C39.287 102.233 40.7785 105.591 41.1938 109.128C41.6092 112.664 40.9317 116.236 39.2388 119.436C37.5459 122.636 34.9059 125.334 31.6208 127.221C28.3357 129.109 24.5381 130.11 20.6622 130.11C16.7864 130.11 12.9888 129.109 9.70366 127.221C6.41856 125.334 3.77861 122.636 2.0857 119.436C0.392803 116.236 -0.284707 112.664 0.130654 109.128C0.546014 105.591 2.03747 102.233 4.43448 99.4384C1.65376 96.2125 41.31 85.5935 41.31 87.7213Z" fill="black"/>
</g>
<defs>
<clipPath id="clip0">
<rect width="268" height="177" fill="white"/>
</clipPath>
</defs>
</svg>
