<svg width="347" height="240" viewBox="0 0 347 240" fill="none" xmlns="http://www.w3.org/2000/svg">
<g clip-path="url(#clip0)">
<path d="M104.287 92.342C107.313 92.342 109.767 89.8073 109.767 86.6805C109.767 83.5537 107.313 81.019 104.287 81.019C101.26 81.019 98.8069 83.5537 98.8069 86.6805C98.8069 89.8073 101.26 92.342 104.287 92.342Z" fill="#F2F2F2"/>
<path d="M123.138 137.066C123.138 137.066 114.614 124.87 128.186 110.688L123.138 137.066Z" fill="#F2F2F2"/>
<path d="M116.532 138.472C116.532 138.472 110.707 124.686 91.9836 129.54L116.532 138.472Z" fill="#F2F2F2"/>
<path d="M227.439 184.409C227.439 184.409 229.18 161.971 257.962 159.415L227.439 184.409Z" fill="#F2F2F2"/>
<path d="M218.593 179.39C218.593 179.39 224.902 157.845 199.011 144.608L218.593 179.39Z" fill="#F2F2F2"/>
<path d="M39.5988 160.376C36.8651 170.816 27.5017 177.282 27.5017 177.282C27.5017 177.282 22.5704 166.821 25.304 156.381C28.0377 145.941 37.4012 139.475 37.4012 139.475C37.4012 139.475 42.3325 149.936 39.5988 160.376Z" fill="#4F88DD"/>
<path d="M14.7301 160.376C17.4638 170.816 26.8272 177.282 26.8272 177.282C26.8272 177.282 31.7585 166.821 29.0248 156.381C26.2912 145.941 16.9277 139.475 16.9277 139.475C16.9277 139.475 11.9964 149.936 14.7301 160.376Z" fill="#4F88DD"/>
<path d="M18.747 158.132C26.2482 165.676 27.1645 177.273 27.1645 177.273C27.1645 177.273 15.9187 176.639 8.41748 169.095C0.916223 161.551 0 149.954 0 149.954C0 149.954 11.2457 150.588 18.747 158.132Z" fill="#3F3D56"/>
<path d="M35.5818 158.132C28.0805 165.676 27.1643 177.273 27.1643 177.273C27.1643 177.273 38.41 176.639 45.9113 169.095C53.4125 161.551 54.3288 149.954 54.3288 149.954C54.3288 149.954 43.083 150.588 35.5818 158.132Z" fill="#3F3D56"/>
<path d="M317 199.714H2.77075V200.469H317V199.714Z" fill="#2F2E41"/>
<path d="M168.626 83.4293C168.626 83.4293 165.364 80.06 157.863 80.7339C157.863 80.7339 85.4625 72.9845 83.8318 86.7986C82.2012 100.613 81.8751 108.699 86.1148 111.731C86.1148 111.731 99.9753 124.703 92.8004 136.159L88.8869 142.898L242.494 141.55C242.494 141.55 244.125 116.954 249.017 112.237C253.909 107.52 255.539 82.587 249.017 81.9131C242.494 81.2393 166.832 77.533 168.626 83.4293Z" fill="#3F3D56"/>
<path d="M87.5822 111.226C87.5822 111.226 41.5979 122.345 59.8611 143.234L62.7963 146.267L61.4918 192.763H273.476L275.759 147.278L278.368 141.887C278.368 141.887 294.616 121.755 247.682 114.469L239.233 136.496L96.3877 135.485C96.3877 135.485 95.4093 110.552 87.5822 111.226Z" fill="#3F3D56"/>
<path d="M78.7768 189.731H65.4055V200.176H78.7768V189.731Z" fill="#3F3D56"/>
<path d="M271.193 189.731H257.822V200.176H271.193V189.731Z" fill="#3F3D56"/>
<path d="M166.145 136.664C166.145 136.664 134.219 113.248 94.4311 136.833L82.6904 154.353L84.9733 168.841C84.9733 168.841 167.484 170.189 168.463 161.092C169.441 151.995 166.145 136.664 166.145 136.664Z" fill="#3F3D56"/>
<path d="M240.863 136.833C240.863 136.833 184.85 118.302 168.014 136.833L170.093 163.45C170.093 163.45 251.952 169.852 253.256 165.472C254.561 161.092 255.213 153.342 255.213 153.342L240.863 136.833Z" fill="#3F3D56"/>
<path opacity="0.1" d="M240.863 136.833C240.863 136.833 184.85 118.302 168.014 136.833L168.06 137.427C168.005 137.151 167.973 137.001 167.973 137.001C167.973 137.001 134.219 113.248 94.4311 136.833L82.6904 154.353L84.9733 168.841C84.9733 168.841 164.87 170.597 170.003 162.296L170.093 163.45C170.093 163.45 251.952 169.852 253.256 165.472C254.561 161.092 255.213 153.342 255.213 153.342L240.863 136.833Z" fill="black"/>
<path d="M88.8867 90.3364C104.738 89.9881 119.764 87.9098 133.567 83.2609C133.902 99.6629 136.185 115.003 141.394 128.746C125.963 125.85 110.302 128.716 94.4309 136.833C97.2814 122.006 94.817 106.419 88.8867 90.3364Z" fill="#4F88DD"/>
<path d="M250.973 93.0318C235.123 92.6835 220.096 90.6052 206.294 85.9563C205.958 102.358 203.675 117.698 198.467 131.442C213.897 128.545 229.558 131.412 245.429 139.528C242.579 124.701 245.043 109.114 250.973 93.0318Z" fill="#4F88DD" fill-opacity="0.81"/>
<path d="M183.468 75.8573L183.384 75.8435C183.355 75.8387 183.326 75.8597 183.322 75.8905L183.071 77.5245C183.067 77.5553 183.087 77.5842 183.117 77.5891L183.201 77.6029C183.231 77.6077 183.259 77.5867 183.263 77.5559L183.514 75.9219C183.519 75.8911 183.498 75.8622 183.468 75.8573Z" fill="#464353"/>
<path opacity="0.1" d="M192.172 107.042C191.885 107.841 192.146 108.725 192.368 109.547C193.01 111.93 193.31 114.398 193.258 116.871C193.267 116.915 193.266 116.96 193.254 117.002C193.243 117.045 193.221 117.084 193.191 117.115C193.161 117.147 193.124 117.171 193.083 117.184C193.042 117.197 192.998 117.199 192.956 117.191C192.014 117.25 190.936 117.257 190.296 116.539" fill="black"/>
<path d="M40.7826 199.67H13.7138L9.00526 183.087C8.71832 182.076 8.66327 181.01 8.84447 179.974C9.02568 178.938 9.43815 177.959 10.0492 177.116C10.6602 176.273 11.453 175.589 12.3646 175.117C13.2762 174.646 14.2816 174.401 15.301 174.401H38.9809C39.9935 174.401 40.9923 174.643 41.8993 175.108C42.8062 175.573 43.5965 176.249 44.2084 177.083C44.8203 177.916 45.2372 178.885 45.4264 179.912C45.6156 180.94 45.572 181.999 45.2989 183.007L40.7826 199.67Z" fill="#3F3D56"/>
</g>
<g clip-path="url(#clip1)">
<path opacity="0.4" d="M146.51 95.9294H137.548V108.273H146.51V95.9294Z" fill="white"/>
<path opacity="0.4" d="M157.132 108.273H166.094V95.9295H157.132V108.273Z" fill="white"/>
<path opacity="0.4" d="M146.51 115.68H137.548V128.024H146.51V115.68Z" fill="white"/>
<path opacity="0.4" d="M146.51 135.43H137.548V147.774H146.51V135.43Z" fill="white"/>
<path opacity="0.4" d="M146.51 155.18H137.548V167.524H146.51V155.18Z" fill="white"/>
<g opacity="0.5">
<path opacity="0.5" d="M203.281 156.242L198.458 132.118H198.953L198.876 131.709H199.016L196.519 118.66C196.519 118.66 196.646 105.029 197.253 99.7561C197.698 95.9083 198.402 91.006 197.887 86.8796C197.958 86.7658 198.024 86.6481 198.083 86.527C198.296 86.0881 198.425 85.6085 198.461 85.1162C198.647 83.9629 198.502 82.7768 198.043 81.7129L203.059 78.3835C203.172 78.3835 203.288 78.4082 203.391 78.4153C203.391 78.3659 203.344 78.2883 203.308 78.186C205.68 78.3186 208.031 77.6425 210.017 76.2564C212.003 74.8702 213.52 72.8464 214.348 70.4799C214.789 71.1844 215.335 71.8085 215.964 72.328C217.315 73.4037 219.443 73.6435 220.568 72.3068C220.978 71.7734 221.256 71.1392 221.375 70.4623C221.441 70.159 221.488 69.8486 221.528 69.5418C222.165 65.9374 220.768 62.2201 218.965 59.0601C216.711 55.1136 213.72 51.5409 209.92 49.2979C206.119 47.0548 201.455 46.2507 197.343 47.7461C193.23 49.2414 189.087 53.3008 188.712 57.9033C188.526 60.2557 188.792 61.3455 188.334 63.6556C188.105 64.8053 188.599 67.0448 188.593 68.3145C188.553 68.5476 188.526 68.7832 188.513 69.0198C188.447 70.4306 188.975 71.7637 189.36 73.118C183.936 73.4072 169.672 74.5746 165.553 79.0254C160.428 84.559 147.861 86.5375 147.861 86.5375L126.932 91.0131L119.63 94.3071L119.713 94.6598L119.566 94.7268C119.566 94.7268 119.825 95.7531 120.197 97.1074C118.568 98.6742 117.501 100.793 117.18 103.103C116.775 105.498 116.991 108.58 118.418 112.513C118.418 112.513 125.624 126.574 126.122 132.245L135.217 151.533C134.437 153.187 126.643 169.904 125.302 179.261C125.196 179.935 125.124 180.614 125.087 181.296C125.087 181.296 125.037 181.79 124.914 182.612C124.38 186.078 122.69 194.603 118.564 198.588L118.617 198.637L118.498 198.761L118.591 198.846C117.352 201.36 119.142 204.767 119.142 204.767L121.176 214.423L123.453 214.815L125.85 213.778L127.178 216.49C127.178 216.49 137.518 218.254 140.455 218.151C143.393 218.049 137.966 212.759 136.064 211.189C135.008 210.322 134.182 206.756 133.657 203.755C133.934 203.516 134.183 203.243 134.397 202.94C134.397 202.94 133.133 195.887 136.94 186.209C138.563 182.09 140.309 177.353 141.786 173.273C142.58 178.753 143.413 184.4 144.027 188.255C144.92 193.837 144.804 197.244 144.528 199.166C144.477 199.837 144.328 200.495 144.087 201.117C144.099 201.135 144.11 201.154 144.12 201.173C144.102 201.223 144.081 201.271 144.057 201.318C144.077 201.353 144.097 201.385 144.113 201.42C142.035 203.945 144.2 208.065 144.2 208.065L146.234 217.693L148.511 218.084L150.908 217.047L152.236 219.76C152.236 219.76 162.576 221.523 165.513 221.421C168.451 221.318 163.024 216.028 161.118 214.459C159.635 213.235 158.606 206.665 158.224 203.847C158.499 203.818 158.652 203.797 158.652 203.797L158.622 203.603H158.685L157.384 195.52C155.16 193.485 155.469 164.575 155.469 164.575C155.469 164.575 154.31 167.598 154.274 167.355C154.387 166.868 154.805 165.492 155.774 162.562C156.344 160.881 156.765 159.148 157.032 157.384C158.084 150.503 156.123 146.296 156.123 146.296C156.252 144.913 154.881 139.542 153.261 133.822L158.35 123.283C159.058 123.566 159.826 123.634 160.567 123.477L164.421 116.071C164.421 116.071 172.388 111.028 174.668 111.419C176.789 111.772 183.435 110.227 186.004 107.286C186.189 107.071 186.357 106.841 186.508 106.598C188.576 103.23 187.726 124.183 187.726 124.183L186.621 131.441L186.561 131.843L189.858 131.914L197.625 160.22C197.625 160.22 198.113 169.82 206.939 171.954C215.765 174.087 203.281 156.242 203.281 156.242ZM150.228 123.527C149.75 121.961 149.331 120.61 149.016 119.598L150.659 118.237C150.659 118.237 150.865 118.42 151.213 118.713L150.228 123.527Z" fill="url(#paint0_linear)"/>
</g>
<path d="M158.237 200.785C158.237 200.785 159.362 210.858 161.225 212.389C163.087 213.919 168.371 219.058 165.507 219.171C162.642 219.283 152.561 217.555 152.561 217.555L151.257 214.91L148.933 215.919L146.712 215.538L144.721 206.125C144.721 206.125 141.926 200.806 145.859 198.659C149.793 196.511 158.237 200.785 158.237 200.785Z" fill="#3A384D"/>
<path opacity="0.1" d="M148.78 118.205C148.78 118.205 156.597 142.924 156.302 146.098C156.302 146.098 159.167 152.235 156.007 161.775C152.847 171.315 155.675 163.937 155.675 163.937C155.675 163.937 155.376 192.113 157.54 194.098L158.808 201.977C158.808 201.977 146.619 203.515 144.568 199.533C144.568 199.533 146.155 196.581 144.601 186.837C143.048 177.092 140.054 155.621 140.054 155.621L131.941 106.644L148.78 118.205Z" fill="black"/>
<path d="M148.81 118.007C148.81 118.007 156.627 142.741 156.332 145.915C156.332 145.915 159.196 152.052 156.036 161.592C152.876 171.132 155.704 163.754 155.704 163.754C155.704 163.754 155.406 191.933 157.57 193.915L158.838 201.797C158.838 201.797 146.649 203.332 144.598 199.35C144.598 199.35 146.184 196.398 144.631 186.653C143.078 176.909 140.08 155.427 140.08 155.427L131.971 106.446L148.81 118.007Z" fill="#BEC7DE"/>
<path opacity="0.1" d="M133.982 107.73L141.932 155.744C141.932 155.744 144.92 177.226 146.483 186.971C148.047 196.715 146.45 199.667 146.45 199.667C147.047 200.828 148.498 201.515 150.257 201.914C147.788 201.607 145.56 200.891 144.784 199.382C144.784 199.382 146.374 196.43 144.82 186.685C143.267 176.94 140.269 155.459 140.269 155.459L132.157 106.478L133.982 107.73Z" fill="black"/>
<path d="M133.86 197.608C133.86 197.608 134.982 207.68 136.847 209.211C138.713 210.741 143.994 215.88 141.129 215.993C138.265 216.106 128.184 214.378 128.184 214.378L126.879 211.732L124.556 212.745L122.335 212.36L120.343 202.947C120.343 202.947 117.548 197.629 121.478 195.481C125.409 193.333 133.86 197.608 133.86 197.608Z" fill="#3A384D"/>
<path opacity="0.1" d="M148.78 118.205C148.78 118.205 156.597 142.924 156.302 146.098C156.302 146.098 159.167 152.235 156.007 161.775C152.847 171.315 155.675 163.937 155.675 163.937C155.675 163.937 155.376 192.113 157.54 194.098L158.808 201.977C158.808 201.977 146.619 203.515 144.568 199.533C144.568 199.533 146.155 196.581 144.601 186.837C143.048 177.092 140.054 155.621 140.054 155.621L131.941 106.644L148.78 118.205Z" fill="black"/>
<path opacity="0.1" d="M124.008 96.4091C124.008 96.4091 115.308 99.9571 119.988 112.858C119.988 112.858 127.015 126.563 127.503 132.093L136.399 150.962C136.399 150.962 126.912 170.91 126.491 179.91C126.491 179.91 125.223 191.993 120.104 196.959C120.104 196.959 131.115 206.915 135.214 201.166C135.214 201.166 133.983 194.303 137.697 184.858C141.411 175.413 145.816 162.674 145.816 162.674C145.816 162.674 156.468 155.025 149.371 139.288L141.405 104.249L141.275 96.3633L135.164 94.1061L124.008 96.4091Z" fill="black"/>
<path opacity="0.1" d="M123.61 96.5396C123.61 96.5396 114.909 100.088 119.59 112.989C119.59 112.989 126.614 126.697 127.101 132.227L135.997 151.096C135.997 151.096 126.511 171.04 126.096 180.044C126.096 180.044 124.828 192.123 119.706 197.093C119.706 197.093 130.716 207.049 134.819 201.3C134.819 201.3 133.584 194.434 137.299 184.992C141.013 175.551 145.418 162.794 145.418 162.794C145.418 162.794 156.073 155.145 148.976 139.408L141.01 104.369L140.88 96.4832L134.773 94.226L123.61 96.5396Z" fill="black"/>
<path d="M123.639 96.3456C123.639 96.3456 114.939 99.8971 119.62 112.795C119.62 112.795 124.781 122.864 126.56 129.223C127.337 131.954 128.337 134.608 129.548 137.154L136.027 150.909C136.027 150.909 126.54 170.857 126.122 179.857C126.122 179.857 124.854 191.94 119.732 196.906C119.732 196.906 130.743 206.862 134.845 201.113C134.845 201.113 133.611 194.25 137.325 184.805C141.039 175.36 145.444 162.607 145.444 162.607C145.444 162.607 156.099 154.958 149.003 139.221L141.036 104.182L140.907 96.2962L134.799 94.0391L123.639 96.3456Z" fill="#BEC7DE"/>
<path opacity="0.1" d="M123.639 96.3456L134.809 94.0285L136.266 94.5681L125.86 96.723C125.86 96.723 117.16 100.271 121.84 113.172C121.84 113.172 126.998 123.241 128.781 129.6C129.558 132.331 130.557 134.985 131.768 137.532L138.251 151.286C138.251 151.286 128.751 171.227 128.343 180.227C128.343 180.227 127.072 192.31 121.953 197.276C121.953 197.276 126.696 201.565 131.115 202.887C126.242 202.782 119.732 196.892 119.732 196.892C124.854 191.926 126.122 179.843 126.122 179.843C126.54 170.843 136.027 150.895 136.027 150.895L129.548 137.14C128.337 134.594 127.337 131.94 126.56 129.209C124.781 122.86 119.62 112.781 119.62 112.781C114.939 99.8971 123.639 96.3456 123.639 96.3456Z" fill="black"/>
<path d="M159.485 121.453L152.558 135.79C152.558 135.79 154.589 154.891 150.709 155.434C146.828 155.977 148.385 134.471 148.385 134.471L152.119 116.156L159.485 121.453Z" fill="#BE7C5E"/>
<path d="M197.349 130.778L202.302 155.621C202.302 155.621 214.457 173.033 205.853 170.952C197.25 168.871 196.775 159.5 196.775 159.5L188.477 129.24L197.349 130.778Z" fill="#BE7C5E"/>
<path d="M202.285 79.6003L190.037 87.7825L185.665 75.3363C185.665 75.3363 195.803 76.0699 196.984 72.0388C198.166 68.0076 202.285 79.6003 202.285 79.6003Z" fill="#BE7C5E"/>
<path d="M195.995 84.7741L195.212 81.2085L183.139 81.9597L178.276 102.701L187.335 103.047L192.407 94.6422L195.172 86.4458L195.995 84.7741Z" fill="#BE7C5E"/>
<path opacity="0.1" d="M191.819 81.0322L192.815 75.0542C192.815 75.0542 170.472 75.3505 165.477 80.743C160.481 86.1355 148.233 88.0682 148.233 88.0682L127.832 92.4273L120.698 95.6402C120.698 95.6402 122.71 103.646 123.573 104.2C124.436 104.754 134.069 96.3209 134.069 96.3209L137.72 97.3507L125.83 110.633L147.775 133.557L148.18 120.924L150.991 118.589C150.991 118.589 157.673 124.585 160.654 123.675L164.411 116.456C164.411 116.456 172.179 111.539 174.399 111.92C176.467 112.273 182.947 110.76 185.449 107.892C185.625 107.691 185.785 107.476 185.927 107.247C187.946 103.964 187.116 124.387 187.116 124.387L185.981 131.854L198.086 132.118L195.657 119.4C195.657 119.4 195.779 106.115 196.37 100.973C196.961 95.8307 198.03 88.7594 195.862 84.3509L191.6 88.6607L184.185 101.308L187 90.2971L191.819 81.0322Z" fill="black"/>
<path d="M191.882 80.6372L190.823 74.504C190.823 74.504 170.545 74.9555 165.55 80.348C160.554 85.7405 148.289 87.6696 148.289 87.6696L127.888 92.0323L120.785 95.2488C120.785 95.2488 122.796 103.255 123.659 103.805C124.522 104.355 134.158 95.9294 134.158 95.9294L137.81 96.9593L125.92 110.241L147.864 133.166L148.269 120.529L151.091 118.191C151.091 118.191 157.772 124.186 160.753 123.28L164.511 116.061C164.511 116.061 172.235 111.144 174.469 111.536C176.537 111.888 183.016 110.372 185.519 107.504C185.695 107.304 185.855 107.088 185.997 106.859C188.015 103.576 187.185 124.003 187.185 124.003L186.05 131.469L198.156 131.734L195.726 119.016C195.726 119.016 195.849 105.727 196.44 100.588C197.031 95.4498 198.099 88.3715 195.932 83.9665L191.67 88.2586L184.244 100.895L187.059 89.8845L191.882 80.6372Z" fill="#4F88DD"/>
<path opacity="0.1" d="M166.307 88.4456C166.307 88.4456 154.221 99.2764 152.956 105.11L166.307 88.4456Z" fill="black"/>
<path opacity="0.1" d="M179.501 97.7811C179.501 97.7811 170.207 105.258 168.547 110.012L179.501 97.7811Z" fill="black"/>
<path opacity="0.1" d="M152.359 109.039C152.359 109.039 151.486 113.525 151.313 115.916L152.359 109.039Z" fill="black"/>
<path opacity="0.1" d="M147.94 119.369C147.94 119.369 134.019 106.09 132.071 106.362L147.94 119.369Z" fill="black"/>
<path opacity="0.1" d="M197.13 72.2645C198.262 68.4061 202.086 78.8667 202.408 79.766C202.044 79.7443 201.682 79.7019 201.323 79.6391C199.871 79.3923 198.482 78.8337 197.24 77.9975C195.998 77.1614 194.929 76.0651 194.1 74.7756C195.59 74.2783 196.778 73.4918 197.13 72.2645Z" fill="black"/>
<path d="M202.909 79.5615C208.911 79.5615 213.777 74.3918 213.777 68.0147C213.777 61.6376 208.911 56.4679 202.909 56.4679C196.907 56.4679 192.042 61.6376 192.042 68.0147C192.042 74.3918 196.907 79.5615 202.909 79.5615Z" fill="#BE7C5E"/>
<path opacity="0.1" d="M211.735 69.6794C212.589 71.1712 213.365 72.79 214.683 73.834C216.001 74.8779 218.075 75.1142 219.171 73.8128C219.569 73.2921 219.838 72.6737 219.954 72.0141C220.758 68.378 219.353 64.6078 217.531 61.4019C215.334 57.5542 212.416 54.0732 208.715 51.8795C205.014 49.6858 200.463 48.9064 196.453 50.3665C192.443 51.8266 189.15 55.7273 188.819 60.2134C188.636 62.5058 189.18 64.8441 188.732 67.0977C188.5 68.2722 187.999 69.3902 187.942 70.5893C187.836 72.8147 189.27 74.885 189.14 77.1104C189.061 78.4823 188.4 79.7273 187.995 81.0357C186.999 84.1887 187.537 87.6203 187.331 90.9355C187.126 94.2507 185.761 97.968 182.774 98.9484C186.077 100.712 190.631 98.8567 191.975 95.1959C192.384 94.0779 192.533 92.8365 193.154 91.8348C194.203 90.142 196.383 89.4719 197.263 87.6732C198.143 85.8745 197.379 83.6844 196.417 81.9386C195.454 80.1928 194.252 78.4365 194.232 76.4156C194.239 75.4288 194.529 74.4677 195.063 73.66C195.596 72.8524 196.349 72.2365 197.22 71.8942C198.126 71.5592 199.105 71.5415 200.058 71.4287C202.421 71.1061 204.679 70.191 206.644 68.7589C209.196 66.9849 209.88 66.4347 211.735 69.6794Z" fill="black"/>
<path d="M211.805 69.175C212.658 70.6704 213.435 72.2857 214.753 73.3331C216.07 74.3806 218.145 74.6134 219.24 73.312C219.638 72.7909 219.907 72.1727 220.024 71.5133C220.827 67.8771 219.423 64.107 217.601 60.9011C215.403 57.0498 212.486 53.5724 208.784 51.3787C205.083 49.185 200.532 48.4091 196.523 49.8657C192.513 51.3223 188.477 55.2829 188.121 59.769C187.939 62.0614 188.201 63.123 187.753 65.3731C187.521 66.5475 188.062 68.8999 188.005 70.092C187.899 72.3174 189.333 74.3877 189.203 76.6131C189.124 77.985 188.463 79.23 188.058 80.5349C187.062 83.6914 187.6 87.123 187.394 90.4382C187.189 93.7534 185.824 97.4672 182.837 98.4476C186.14 100.211 190.694 98.3559 192.038 94.6951C192.446 93.5806 192.596 92.3392 193.217 91.3376C194.266 89.6447 196.446 88.9746 197.326 87.1759C198.206 85.3772 197.442 83.1835 196.483 81.4378C195.524 79.692 194.315 77.9392 194.295 75.9148C194.303 74.9286 194.593 73.9683 195.127 73.1613C195.66 72.3544 196.412 71.739 197.283 71.3969C198.189 71.0619 199.168 71.0442 200.121 70.9314C202.484 70.6072 204.741 69.6923 206.707 68.2616C209.272 66.4805 209.956 65.9339 211.805 69.175Z" fill="#723647"/>
<path d="M189.252 75.8593L193.862 76.6509C194.221 76.7125 194.558 76.4545 194.616 76.0747C194.674 75.6949 194.43 75.3372 194.072 75.2757L189.461 74.484C189.103 74.4225 188.765 74.6805 188.708 75.0602C188.65 75.44 188.894 75.7977 189.252 75.8593Z" fill="#252A62"/>
<path d="M179.75 173.325C179.826 178.848 184.211 183.201 189.409 183.201H190.133C190.772 183.198 191.387 183.462 191.846 183.934C192.194 184.28 192.436 184.73 192.54 185.225C192.589 185.424 192.614 185.629 192.613 185.835V195.587C192.609 197.462 193.114 199.298 194.066 200.877C195.452 203.113 196.204 205.726 196.231 208.403C196.231 209.028 196.348 209.647 196.575 210.223C196.803 210.8 197.136 211.322 197.556 211.76C197.975 212.198 198.473 212.543 199.019 212.774C199.566 213.006 200.15 213.119 200.738 213.108C203.168 213.062 205.074 210.84 205.074 208.255V205.818L206.282 205.966V208.41C206.282 209.035 206.399 209.652 206.627 210.228C206.855 210.804 207.188 211.325 207.607 211.763C208.026 212.2 208.523 212.544 209.069 212.775C209.615 213.006 210.199 213.119 210.786 213.108C213.219 213.062 215.125 210.84 215.125 208.255V207.021C216.33 207.557 223.164 207.557 225.059 207.021L225.574 206.978V208.389C225.572 209.015 225.688 209.636 225.915 210.214C226.141 210.792 226.474 211.316 226.894 211.755C227.314 212.195 227.812 212.541 228.36 212.773C228.907 213.005 229.492 213.119 230.082 213.108C232.511 213.062 234.417 210.84 234.417 208.255V206.231L234.818 206.192V208.414C234.82 209.038 234.938 209.656 235.166 210.231C235.394 210.806 235.727 211.327 236.147 211.764C236.566 212.201 237.064 212.545 237.609 212.775C238.155 213.006 238.739 213.119 239.326 213.108C240.398 213.07 241.421 212.626 242.212 211.857C243.003 211.089 243.51 210.045 243.641 208.915C243.666 208.696 243.68 208.476 243.681 208.255V198.056C243.685 194.552 242.58 191.149 240.544 188.392C240.192 187.904 239.994 187.31 239.98 186.695C239.967 186.08 240.137 185.476 240.468 184.971C242.719 181.469 246.048 175.558 245.938 171.368C245.961 170.232 245.586 169.127 244.886 168.268C244.843 168.215 244.796 168.166 244.753 168.116C241.514 164.512 235.811 167.348 236.305 172.303C236.474 173.962 236.361 175.64 235.974 177.258C235.749 178.171 235.446 179.06 235.067 179.914C234.688 180.77 234.066 181.479 233.287 181.939C232.509 182.399 231.614 182.587 230.729 182.478C230.128 182.399 229.522 182.361 228.917 182.361H210.328C209.237 182.362 208.173 181.999 207.286 181.324C206.399 180.649 205.733 179.696 205.382 178.598C205.193 178.023 205.098 177.419 205.1 176.81V161.433C205.1 161.032 205.025 160.636 204.878 160.267C204.731 159.898 204.516 159.564 204.245 159.285C203.975 159.006 203.654 158.788 203.303 158.643C202.951 158.498 202.576 158.43 202.199 158.442C201.831 158.456 201.47 158.549 201.136 158.714C200.803 158.88 200.504 159.115 200.257 159.405C199.754 159.994 199.475 160.761 199.474 161.556C199.474 161.765 199.436 161.971 199.361 162.163C199.286 162.355 199.177 162.53 199.038 162.677C198.9 162.824 198.735 162.941 198.554 163.02C198.373 163.1 198.179 163.141 197.983 163.14H189.197C187.945 163.14 186.705 163.404 185.549 163.918C184.394 164.432 183.346 165.184 182.467 166.132C181.588 167.08 180.895 168.204 180.429 169.439C179.962 170.674 179.732 171.995 179.75 173.325Z" fill="#F3AD55"/>
<path d="M234.971 209.581C235.22 210.605 235.787 211.51 236.579 212.15C237.372 212.79 238.344 213.127 239.339 213.108C240.411 213.07 241.434 212.626 242.225 211.857C243.016 211.089 243.523 210.045 243.654 208.915C240.946 208.149 237.235 207.62 234.971 209.581Z" fill="#FBDCA3"/>
<path d="M225.71 209.581C225.96 210.605 226.527 211.51 227.32 212.15C228.113 212.79 229.086 213.128 230.082 213.108C231.15 213.065 232.169 212.62 232.956 211.851C233.743 211.083 234.247 210.042 234.377 208.915C231.701 208.149 228 207.62 225.71 209.581Z" fill="#FBDCA3"/>
<path d="M206.425 209.581C206.674 210.605 207.24 211.51 208.033 212.15C208.825 212.79 209.798 213.127 210.793 213.108C211.864 213.07 212.888 212.626 213.679 211.857C214.47 211.089 214.977 210.045 215.108 208.915C212.399 208.149 208.695 207.62 206.425 209.581Z" fill="#FBDCA3"/>
<path d="M196.367 209.581C196.616 210.606 197.183 211.511 197.976 212.151C198.769 212.791 199.742 213.128 200.738 213.108C201.806 213.065 202.825 212.62 203.612 211.851C204.4 211.083 204.903 210.042 205.034 208.915C202.358 208.149 198.647 207.62 196.367 209.581Z" fill="#FBDCA3"/>
<path d="M235.947 177.258C239.071 175.925 242.881 173.484 245.905 171.368C245.928 170.232 245.553 169.127 244.853 168.268C244.81 168.215 244.763 168.166 244.72 168.116C241.48 164.512 235.778 167.348 236.272 172.303C236.443 173.962 236.332 175.64 235.947 177.258Z" fill="#FBDCA3"/>
<path d="M232.166 182.389C232.166 182.389 223.566 193.894 209.495 182.361L232.166 182.389Z" fill="#FBDCA3"/>
<path d="M205.074 161.006C205.074 161.006 199.849 168.268 205.074 177.23V161.006Z" fill="#FBDCA3"/>
<path d="M192.613 185.779C192.613 185.779 197.217 191.852 192.672 196.684L192.613 185.779Z" fill="#FBDCA3"/>
<path opacity="0.1" d="M192.211 184.495C192.543 184.848 192.437 185.165 192.543 185.666L207.48 181.508C206.677 180.848 205.678 180.069 205.349 179.039C203.563 180.503 200.021 182.978 192.211 184.495Z" fill="black"/>
<path d="M191.846 183.948C192.194 184.295 192.436 184.744 192.539 185.239L207.108 181.204C206.295 180.538 205.685 179.632 205.356 178.598C203.563 180.076 199.656 182.425 191.846 183.948Z" fill="#383F4D"/>
<path opacity="0.1" d="M204.808 179.452C204.808 179.452 200.25 183.095 192.613 184.223L204.808 179.452Z" fill="black"/>
<path d="M204.808 179.025C204.808 179.025 200.25 182.668 192.613 183.797L204.808 179.025Z" fill="#F3AD55"/>
<path opacity="0.1" d="M193.416 179.37C193.416 179.37 185.781 181.934 183.77 173.819L193.416 179.37Z" fill="black"/>
<path d="M193.416 178.944C193.416 178.944 185.781 181.508 183.77 173.393L193.416 178.944Z" fill="#FBDCA3"/>
<path d="M179.75 173.819C180.194 173.819 180.553 173.15 180.553 172.324C180.553 171.498 180.194 170.828 179.75 170.828C179.306 170.828 178.947 171.498 178.947 172.324C178.947 173.15 179.306 173.819 179.75 173.819Z" fill="#383F4D"/>
<path opacity="0.1" d="M240.647 203.074L239.041 189.408C239.041 189.408 243.863 197.519 240.647 203.074Z" fill="black"/>
<path d="M238.639 189.408C238.639 189.408 243.462 197.519 240.246 203.074L238.639 189.408Z" fill="#FBDCA3"/>
</g>
<defs>
<linearGradient id="paint0_linear" x1="114.158" y1="123.007" x2="215.356" y2="129.265" gradientUnits="userSpaceOnUse">
<stop stop-color="#808080" stop-opacity="0.25"/>
<stop offset="0.54" stop-color="#808080" stop-opacity="0.12"/>
<stop offset="1" stop-color="#808080" stop-opacity="0.1"/>
</linearGradient>
<clipPath id="clip0">
<rect y="12" width="317" height="200" fill="white"/>
</clipPath>
<clipPath id="clip1">
<rect x="30" width="317" height="240" fill="white"/>
</clipPath>
</defs>
</svg>
