<svg width="375" height="667" viewBox="0 0 375 667" fill="none" xmlns="http://www.w3.org/2000/svg">
<g clip-path="url(#clip0)">
<rect width="375" height="667" fill="white"/>
<g clip-path="url(#clip1)">
<path d="M166.996 78.2236C167.501 75.8088 166.73 73.3825 164.884 71.5665C163.92 70.6197 162.689 69.872 161.323 69.4053C160.789 69.2224 160.234 69.0965 159.675 69.0007C161.725 64.8343 160.462 60.0833 156.373 57.5823C155.756 57.2046 155.086 56.8894 154.389 56.6511C151.269 55.5845 147.834 56.1046 145.087 57.8369C143.974 54.785 141.575 52.2707 138.456 51.2045C137.76 50.9666 137.04 50.8057 136.319 50.7273C131.555 50.2017 127.652 53.1844 126.722 57.7361C126.218 57.4683 125.706 57.2298 125.166 57.0453C123.804 56.5798 122.371 56.419 121.03 56.5757C118.455 56.8835 116.362 58.3309 115.286 60.5473C114.394 62.3837 114.254 64.6337 114.899 66.8859C115.715 69.7668 117.674 72.2297 120.198 73.7141C118.928 75.1274 117.913 76.7472 117.289 78.5731C116.528 80.7994 116.429 82.5723 116.971 84.1536C117.668 86.1724 119.371 87.7359 121.775 88.5579C123.544 89.1624 125.457 89.2989 127.491 89.446C129.656 89.6029 131.897 89.7664 133.933 90.4623C135.97 91.1586 137.844 92.402 139.649 93.6022C141.345 94.73 142.95 95.7962 144.716 96.3998C146.844 97.1274 152.037 98.0788 154.371 91.2506C154.996 89.4227 155.188 87.5239 155.047 85.628C157.946 85.9996 161.005 85.25 163.414 83.4736C165.307 82.0859 166.578 80.2224 166.996 78.2236ZM145.956 62.8619C147.994 60.1335 151.636 59.1408 154.095 60.6438C156.555 62.1477 156.896 65.5781 154.862 68.3063C152.822 71.0339 149.182 72.0274 146.721 70.5236C144.265 69.0214 143.92 65.5907 145.956 62.8619ZM136.256 54.5426C139.125 54.8605 141.397 57.8774 141.336 61.2792C141.275 64.6831 138.903 67.1859 136.037 66.8692C133.174 66.552 130.898 63.5339 130.961 60.1339C131.018 56.7318 133.39 54.2255 136.256 54.5426ZM119.22 66.3757C118.363 63.3659 119.66 60.684 122.127 60.3936C124.593 60.1018 127.279 62.3045 128.135 65.3184C128.994 68.3291 127.695 71.0091 125.23 71.3013C122.766 71.5925 120.076 69.3887 119.22 66.3757ZM135.157 86.902C127.28 84.2094 118.958 87.6902 121.574 80.038C124.19 72.3858 135.46 69.3056 140.573 71.057C145.686 72.8083 152.716 82.1371 150.1 89.7893C147.483 97.4411 143.037 89.5958 135.157 86.902ZM160.324 80.4269C157.803 82.2841 154.327 82.3817 152.556 80.6423C150.79 78.904 151.405 75.9923 153.925 74.1346C156.447 72.2764 159.92 72.178 161.69 73.9179C163.46 75.6565 162.843 78.5723 160.324 80.4269Z" fill="#EBE4E4" fill-opacity="0.5"/>
<path d="M99.7231 75.7994C98.7608 74.852 97.527 74.1045 96.1641 73.6387C95.628 73.4554 95.0749 73.3299 94.5145 73.2336C96.5632 69.0678 95.3015 64.3162 91.2122 61.8153C90.5953 61.4376 89.9253 61.1234 89.2292 60.8855C86.109 59.8189 82.6742 60.339 79.9258 62.0709C78.8115 59.0186 76.4151 56.5051 73.2949 55.4385C72.5988 55.2006 71.8804 55.0401 71.1576 54.9598C66.3932 54.4342 62.4903 57.4169 61.5591 61.9682C61.0571 61.7012 60.5429 61.4619 60.0043 61.2778C58.6415 60.8119 57.21 60.6505 55.8673 60.8078C53.294 61.114 51.2003 62.5624 50.1237 64.7784C49.2306 66.6168 49.0915 68.8673 49.738 71.1174C50.5529 74.0004 52.5116 76.4618 55.0338 77.9448C53.7695 79.3612 52.756 80.9814 52.1315 82.8084C51.3701 85.0356 51.2707 86.8106 51.8138 88.3898C52.5096 90.4082 54.2156 91.973 56.6165 92.7937C58.386 93.3986 60.3005 93.5356 62.3342 93.6827C64.4972 93.8387 66.7401 94.0006 68.777 94.6969C70.814 95.3932 72.6854 96.6378 74.4913 97.8384C76.1871 98.9662 77.7909 100.032 79.5568 100.636C81.6853 101.363 86.8816 102.313 89.2154 95.4862C89.8399 93.6593 90.0308 91.7602 89.8873 89.8659C92.7875 90.2354 95.8469 89.4848 98.2568 87.7098C100.143 86.32 101.414 84.4586 101.832 82.4612C102.339 80.0438 101.571 77.6169 99.7231 75.7994ZM80.7937 67.093C82.8323 64.365 86.4738 63.3719 88.9332 64.8753C91.3926 66.3788 91.7363 69.81 89.7001 72.5389C87.6614 75.2669 84.0199 76.2599 81.5606 74.7565C79.1005 73.2551 78.7567 69.8239 80.7937 67.093ZM71.0942 58.7761C73.9617 59.0936 76.2338 62.1105 76.173 65.5123C76.113 68.9156 73.7396 71.418 70.8757 71.1017C68.0107 70.7851 65.7361 67.7674 65.7966 64.3666C65.8562 60.9643 68.2271 58.4576 71.0942 58.7761ZM54.0568 70.6089C53.2003 67.6004 54.4955 64.9167 56.9612 64.6259C59.427 64.3351 62.114 66.5372 62.9692 69.5497C63.8278 72.56 62.5305 75.2418 60.0671 75.5334C57.6026 75.8246 54.9131 73.6218 54.0568 70.6089ZM69.9945 91.1355C62.1153 88.4421 53.7967 91.9217 56.4118 84.2715C59.028 76.6183 70.2979 73.5382 75.4116 75.2885C80.5253 77.0388 87.5532 86.3682 84.9366 94.0225C82.3215 101.673 77.8737 93.8289 69.9945 91.1355ZM95.1612 84.66C92.6397 86.5182 89.1646 86.6138 87.394 84.8748C85.6271 83.1371 86.2407 80.225 88.7622 78.3667C91.2837 76.5085 94.7564 76.4121 96.527 78.1511C98.2954 79.8882 97.6813 82.8058 95.1612 84.66Z" fill="#EBE4E4" fill-opacity="0.5"/>
</g>
<g clip-path="url(#clip2)">
<path d="M356.976 456.333C355.268 454.554 352.83 453.821 350.288 454.32C348.963 454.582 347.651 455.176 346.495 456.04C346.042 456.378 345.626 456.765 345.231 457.173C342.948 453.129 338.313 451.491 333.941 453.455C333.281 453.752 332.643 454.127 332.053 454.568C329.411 456.542 327.902 459.671 327.782 462.917C324.635 462.113 321.205 462.675 318.565 464.648C317.976 465.089 317.437 465.592 316.966 466.143C313.843 469.78 314.103 474.685 317.336 478.021C316.83 478.286 316.345 478.574 315.888 478.916C314.735 479.777 313.794 480.87 313.166 482.065C311.967 484.365 311.981 486.91 313.204 489.049C314.216 490.821 315.995 492.207 318.218 492.945C321.057 493.897 324.196 493.669 326.845 492.424C327.296 494.27 328.06 496.022 329.215 497.567C330.624 499.452 332.032 500.534 333.643 500.978C335.703 501.542 337.955 501.019 339.99 499.498C341.487 498.379 342.68 496.876 343.949 495.28C345.3 493.581 346.7 491.823 348.423 490.535C350.147 489.247 352.232 488.401 354.241 487.588C356.129 486.824 357.915 486.101 359.409 484.984C361.211 483.637 364.927 479.887 360.607 474.107C359.451 472.559 357.992 471.329 356.346 470.376C358.289 468.192 359.397 465.244 359.29 462.252C359.212 459.907 358.391 457.806 356.976 456.333ZM332.422 465.034C331.319 461.813 332.555 458.245 335.183 457.064C337.813 455.881 340.837 457.535 341.942 460.754C343.042 463.978 341.808 467.544 339.178 468.726C336.553 469.906 333.525 468.255 332.422 465.034ZM320.08 468.348C321.961 466.159 325.734 465.985 328.508 467.955C331.283 469.927 332.011 473.298 330.133 475.484C328.255 477.669 324.479 477.845 321.708 475.874C318.931 473.908 318.201 470.535 320.08 468.348ZM320.235 489.09C317.267 488.099 315.785 485.515 316.937 483.314C318.088 481.114 321.422 480.14 324.393 481.134C327.364 482.123 328.843 484.708 327.693 486.908C326.543 489.107 323.206 490.083 320.235 489.09ZM346.174 487.516C339.507 492.499 337.684 501.334 332.843 494.856C328.002 488.378 331.818 477.336 336.149 474.103C340.481 470.87 352.149 470.331 356.99 476.808C361.831 483.287 352.845 482.53 346.174 487.516ZM355.031 463.084C355.141 466.213 353.26 469.138 350.825 469.619C348.393 470.096 346.337 467.945 346.225 464.817C346.114 461.686 347.992 458.763 350.428 458.284C352.862 457.804 354.921 459.958 355.031 463.084Z" fill="#EBE4E4" fill-opacity="0.5"/>
<path d="M317.013 510.504C315.688 510.764 314.375 511.36 313.221 512.223C312.767 512.562 312.352 512.948 311.956 513.356C309.673 509.314 305.038 507.674 300.666 509.639C300.006 509.935 299.368 510.311 298.779 510.751C296.138 512.725 294.629 515.855 294.508 519.101C291.359 518.298 287.932 518.859 285.291 520.833C284.701 521.273 284.164 521.776 283.69 522.327C280.567 525.964 280.827 530.869 284.059 534.206C283.555 534.47 283.068 534.759 282.612 535.1C281.458 535.962 280.517 537.053 279.889 538.25C278.69 540.548 278.704 543.093 279.926 545.233C280.94 547.007 282.719 548.392 284.942 549.128C287.782 550.082 290.919 549.854 293.567 548.609C294.023 550.452 294.788 552.203 295.944 553.749C297.353 555.635 298.763 556.718 300.373 557.161C302.432 557.726 304.686 557.2 306.719 555.681C308.217 554.562 309.41 553.058 310.679 551.462C312.029 549.765 313.428 548.004 315.152 546.716C316.876 545.427 318.96 544.584 320.97 543.771C322.858 543.007 324.643 542.285 326.138 541.167C327.94 539.821 331.656 536.067 327.337 530.288C326.181 528.741 324.721 527.512 323.076 526.562C325.018 524.376 326.124 521.426 326.019 518.435C325.936 516.093 325.116 513.994 323.703 512.522C321.994 510.739 319.556 510.004 317.013 510.504ZM299.144 521.218C298.042 517.996 299.277 514.429 301.906 513.247C304.535 512.065 307.562 513.718 308.666 516.939C309.767 520.161 308.532 523.728 305.903 524.91C303.276 526.093 300.249 524.441 299.144 521.218ZM286.804 524.533C288.685 522.345 292.457 522.171 295.232 524.141C298.007 526.111 298.734 529.483 296.857 531.668C294.979 533.855 291.204 534.03 288.43 532.061C285.655 530.092 284.924 526.72 286.804 524.533ZM286.959 545.276C283.992 544.285 282.507 541.701 283.659 539.502C284.81 537.302 288.144 536.326 291.114 537.32C294.084 538.31 295.566 540.894 294.416 543.093C293.266 545.292 289.93 546.269 286.959 545.276ZM312.899 543.701C306.229 548.686 304.408 557.517 299.568 551.041C294.726 544.563 298.542 533.52 302.873 530.286C307.203 527.052 318.871 526.515 323.714 532.994C328.554 539.47 319.569 538.716 312.899 543.701ZM321.754 519.27C321.866 522.4 319.983 525.323 317.549 525.804C315.117 526.282 313.059 524.132 312.948 521.001C312.837 517.871 314.717 514.95 317.151 514.469C319.583 513.99 321.646 516.143 321.754 519.27Z" fill="#EBE4E4" fill-opacity="0.5"/>
</g>
<g clip-path="url(#clip3)">
<path d="M310.976 146.333C309.268 144.554 306.83 143.821 304.288 144.32C302.963 144.582 301.651 145.176 300.495 146.04C300.042 146.378 299.626 146.765 299.231 147.173C296.948 143.129 292.313 141.491 287.941 143.455C287.281 143.752 286.643 144.127 286.053 144.568C283.411 146.542 281.902 149.671 281.782 152.917C278.635 152.113 275.205 152.675 272.565 154.648C271.976 155.089 271.437 155.592 270.966 156.143C267.843 159.78 268.103 164.685 271.336 168.021C270.83 168.286 270.345 168.574 269.888 168.916C268.735 169.777 267.794 170.87 267.166 172.065C265.967 174.365 265.981 176.91 267.204 179.049C268.216 180.821 269.995 182.207 272.218 182.945C275.057 183.897 278.196 183.669 280.845 182.424C281.296 184.27 282.06 186.022 283.215 187.567C284.624 189.452 286.032 190.534 287.643 190.978C289.703 191.542 291.955 191.019 293.99 189.498C295.487 188.379 296.68 186.876 297.949 185.28C299.3 183.581 300.7 181.823 302.423 180.535C304.147 179.247 306.232 178.401 308.241 177.588C310.129 176.824 311.915 176.101 313.409 174.984C315.211 173.637 318.927 169.887 314.607 164.107C313.451 162.559 311.992 161.329 310.346 160.376C312.289 158.192 313.397 155.244 313.29 152.252C313.212 149.907 312.391 147.806 310.976 146.333ZM286.422 155.034C285.319 151.813 286.555 148.245 289.183 147.064C291.813 145.881 294.837 147.535 295.942 150.754C297.042 153.978 295.808 157.544 293.178 158.726C290.553 159.906 287.525 158.255 286.422 155.034ZM274.08 158.348C275.961 156.159 279.734 155.985 282.508 157.955C285.283 159.927 286.011 163.298 284.133 165.484C282.255 167.669 278.479 167.845 275.708 165.874C272.931 163.908 272.201 160.535 274.08 158.348ZM274.235 179.09C271.267 178.099 269.785 175.515 270.937 173.314C272.088 171.114 275.422 170.14 278.393 171.134C281.364 172.123 282.843 174.708 281.693 176.908C280.543 179.107 277.206 180.083 274.235 179.09ZM300.174 177.516C293.507 182.499 291.684 191.334 286.843 184.856C282.002 178.378 285.818 167.336 290.149 164.103C294.481 160.87 306.149 160.331 310.99 166.808C315.831 173.287 306.845 172.53 300.174 177.516ZM309.031 153.084C309.141 156.213 307.26 159.138 304.825 159.619C302.393 160.096 300.337 157.945 300.225 154.817C300.114 151.686 301.992 148.763 304.428 148.284C306.862 147.804 308.921 149.958 309.031 153.084Z" fill="#EBE4E4" fill-opacity="0.5"/>
<path d="M271.013 200.504C269.688 200.764 268.375 201.36 267.221 202.223C266.767 202.562 266.352 202.948 265.956 203.356C263.673 199.314 259.038 197.674 254.666 199.639C254.006 199.935 253.368 200.311 252.779 200.751C250.138 202.725 248.629 205.855 248.508 209.101C245.359 208.298 241.932 208.859 239.291 210.833C238.701 211.273 238.164 211.776 237.69 212.327C234.567 215.964 234.827 220.869 238.059 224.206C237.555 224.47 237.068 224.759 236.612 225.1C235.458 225.962 234.517 227.053 233.889 228.25C232.69 230.548 232.704 233.093 233.926 235.233C234.94 237.007 236.719 238.392 238.942 239.128C241.782 240.082 244.919 239.854 247.567 238.609C248.023 240.452 248.788 242.203 249.944 243.749C251.353 245.635 252.763 246.718 254.373 247.161C256.432 247.726 258.686 247.2 260.719 245.681C262.217 244.562 263.41 243.058 264.679 241.462C266.029 239.765 267.428 238.004 269.152 236.716C270.876 235.427 272.96 234.584 274.97 233.771C276.858 233.007 278.643 232.285 280.138 231.167C281.94 229.821 285.656 226.067 281.337 220.288C280.181 218.741 278.721 217.512 277.076 216.562C279.018 214.376 280.124 211.426 280.019 208.435C279.936 206.093 279.116 203.994 277.703 202.522C275.994 200.739 273.556 200.004 271.013 200.504ZM253.144 211.218C252.042 207.996 253.277 204.429 255.906 203.247C258.535 202.065 261.562 203.718 262.666 206.939C263.767 210.161 262.532 213.728 259.903 214.91C257.276 216.093 254.249 214.441 253.144 211.218ZM240.804 214.533C242.685 212.345 246.457 212.171 249.232 214.141C252.007 216.111 252.734 219.483 250.857 221.668C248.979 223.855 245.204 224.03 242.43 222.061C239.655 220.092 238.924 216.72 240.804 214.533ZM240.959 235.276C237.992 234.285 236.507 231.701 237.659 229.502C238.81 227.302 242.144 226.326 245.114 227.32C248.084 228.31 249.566 230.894 248.416 233.093C247.266 235.292 243.93 236.269 240.959 235.276ZM266.899 233.701C260.229 238.686 258.408 247.517 253.568 241.041C248.726 234.563 252.542 223.52 256.873 220.286C261.203 217.052 272.871 216.515 277.714 222.994C282.554 229.47 273.569 228.716 266.899 233.701ZM275.754 209.27C275.866 212.4 273.983 215.323 271.549 215.804C269.117 216.282 267.059 214.132 266.948 211.001C266.837 207.871 268.717 204.95 271.151 204.469C273.583 203.99 275.646 206.143 275.754 209.27Z" fill="#EBE4E4" fill-opacity="0.5"/>
</g>
<g clip-path="url(#clip4)">
<path d="M167.583 395.327C169.103 393.383 169.484 390.866 168.63 388.421C168.183 387.146 167.409 385.931 166.391 384.909C165.992 384.509 165.55 384.151 165.091 383.818C168.771 380.986 169.737 376.166 167.173 372.116C166.787 371.504 166.325 370.926 165.805 370.404C163.477 368.068 160.166 367.017 156.936 367.358C157.286 364.128 156.245 360.812 153.918 358.478C153.399 357.957 152.824 357.495 152.212 357.106C148.17 354.529 143.351 355.481 140.506 359.153C140.172 358.69 139.818 358.25 139.415 357.846C138.399 356.827 137.185 356.049 135.913 355.597C133.466 354.736 130.949 355.109 129.005 356.622C127.393 357.875 126.273 359.832 125.857 362.138C125.316 365.082 125.986 368.158 127.593 370.604C125.829 371.311 124.203 372.316 122.837 373.678C121.17 375.339 120.299 376.886 120.086 378.544C119.82 380.663 120.656 382.818 122.45 384.618C123.769 385.941 125.425 386.909 127.185 387.939C129.058 389.037 130.996 390.174 132.515 391.698C134.035 393.222 135.167 395.166 136.256 397.04C137.279 398.801 138.247 400.467 139.565 401.788C141.153 403.381 145.391 406.529 150.502 401.435C151.87 400.071 152.882 398.453 153.592 396.69C156.029 398.304 159.105 398.983 162.051 398.454C164.362 398.045 166.326 396.935 167.583 395.327ZM155.496 372.25C158.529 370.702 162.236 371.421 163.777 373.856C165.32 376.292 164.11 379.52 161.08 381.069C158.045 382.614 154.34 381.897 152.797 379.461C151.258 377.028 152.464 373.798 155.496 372.25ZM150.47 360.501C152.903 362.053 153.608 365.764 152.051 368.789C150.492 371.815 147.258 373.012 144.827 371.462C142.399 369.912 141.691 366.199 143.249 363.177C144.803 360.15 148.039 358.95 150.47 360.501ZM129.959 363.589C130.519 360.51 132.868 358.677 135.209 359.507C137.551 360.335 138.987 363.497 138.423 366.579C137.864 369.66 135.514 371.49 133.174 370.663C130.834 369.836 129.396 366.67 129.959 363.589ZM135.186 389.044C129.309 383.149 120.306 382.594 126.034 376.885C131.761 371.176 143.233 373.393 147.046 377.223C150.859 381.053 153.044 392.528 147.316 398.237C141.587 403.945 141.065 394.943 135.186 389.044ZM160.625 394.356C157.543 394.908 154.381 393.46 153.56 391.116C152.745 388.777 154.583 386.436 157.664 385.883C160.747 385.33 163.907 386.777 164.726 389.12C165.545 391.461 163.704 393.805 160.625 394.356Z" fill="#EBE4E4" fill-opacity="0.5"/>
<path d="M108.304 363.429C107.86 362.154 107.083 360.938 106.066 359.918C105.666 359.516 105.226 359.159 104.765 358.825C108.444 355.994 109.411 351.173 106.848 347.123C106.461 346.512 105.999 345.934 105.48 345.413C103.152 343.077 99.8407 342.026 96.6099 342.366C96.9589 339.135 95.9196 335.821 93.5918 333.486C93.0725 332.965 92.4988 332.504 91.8859 332.112C87.844 329.536 83.0248 330.487 80.1786 334.159C79.8462 333.697 79.4906 333.255 79.0888 332.852C78.0721 331.832 76.8592 331.055 75.5852 330.603C73.1414 329.74 70.6232 330.115 68.6783 331.627C67.0648 332.882 65.9457 334.839 65.5315 337.143C64.9887 340.09 65.6583 343.163 67.2658 345.608C65.5058 346.32 63.8807 347.326 62.5132 348.689C60.8461 350.35 59.9728 351.899 59.7622 353.556C59.4946 355.674 60.3337 357.831 62.1249 359.628C63.445 360.953 65.102 361.921 66.8615 362.952C68.7329 364.048 70.6735 365.184 72.1932 366.709C73.7129 368.233 74.8418 370.177 75.9314 372.052C76.9544 373.813 77.9223 375.477 79.2397 376.799C80.8278 378.392 85.0695 381.54 90.1796 376.447C91.5471 375.084 92.5575 373.465 93.2657 371.702C95.7042 373.315 98.7804 373.993 101.726 373.466C104.033 373.052 105.995 371.944 107.253 370.337C108.776 368.392 109.159 365.875 108.304 363.429ZM95.1696 347.254C98.2038 345.708 101.909 346.426 103.451 348.861C104.993 351.297 103.786 354.527 100.753 356.075C97.7191 357.622 94.0136 356.904 92.4716 354.468C90.928 352.034 92.1357 348.804 95.1696 347.254ZM90.1429 335.508C92.575 337.06 93.2804 340.77 91.7228 343.795C90.1653 346.821 86.9304 348.018 84.501 346.469C82.0707 344.919 81.3635 341.207 82.9204 338.182C84.4771 335.157 87.7115 333.955 90.1429 335.508ZM69.6305 338.595C70.1914 335.518 72.539 333.683 74.8796 334.511C77.2201 335.34 78.6577 338.503 78.0938 341.583C77.534 344.663 75.1853 346.495 72.8466 345.669C70.507 344.841 69.0676 341.677 69.6305 338.595ZM74.8589 364.051C68.9805 358.154 59.9805 357.6 65.7066 351.893C71.435 346.183 82.9062 348.399 86.7203 352.229C90.5344 356.058 92.7171 367.533 86.9879 373.243C81.2618 378.951 80.7373 369.949 74.8589 364.051ZM100.297 369.362C97.2139 369.915 94.0542 368.465 93.2341 366.123C92.4168 363.783 94.2539 361.442 97.337 360.889C100.42 360.336 103.578 361.784 104.398 364.126C105.217 366.466 103.377 368.812 100.297 369.362Z" fill="#EBE4E4" fill-opacity="0.5"/>
</g>
<g clip-path="url(#clip5)">
<path d="M133.812 633.909C135.317 631.954 135.678 629.434 134.804 626.996C134.348 625.724 133.564 624.516 132.537 623.502C132.135 623.105 131.69 622.75 131.229 622.421C134.886 619.56 135.813 614.732 133.218 610.702C132.826 610.094 132.36 609.519 131.836 609.001C129.49 606.684 126.17 605.66 122.943 606.026C123.267 602.793 122.2 599.486 119.854 597.17C119.331 596.654 118.753 596.196 118.138 595.812C114.075 593.268 109.264 594.257 106.448 597.952C106.11 597.492 105.753 597.055 105.347 596.654C104.323 595.643 103.102 594.875 101.826 594.433C99.3734 593.591 96.859 593.985 94.9271 595.513C93.3252 596.779 92.2208 598.744 91.8235 601.053C91.3057 604.002 91.9999 607.072 93.6269 609.506C91.8688 610.227 90.2508 611.244 88.895 612.617C87.242 614.291 86.3825 615.845 86.1836 617.505C85.9338 619.626 86.7872 621.774 88.5954 623.56C89.9252 624.873 91.5889 625.827 93.3565 626.844C95.2385 627.926 97.1856 629.048 98.7165 630.559C100.248 632.072 101.396 634.006 102.5 635.872C103.536 637.625 104.519 639.282 105.846 640.594C107.447 642.174 111.71 645.288 116.781 640.153C118.138 638.779 119.136 637.152 119.833 635.383C122.283 636.978 125.363 637.633 128.305 637.08C130.613 636.653 132.568 635.528 133.812 633.909ZM121.542 610.929C124.563 609.358 128.275 610.047 129.835 612.469C131.398 614.893 130.214 618.131 127.196 619.703C124.173 621.273 120.463 620.585 118.9 618.162C117.342 615.741 118.522 612.502 121.542 610.929ZM116.423 599.221C118.868 600.754 119.603 604.458 118.069 607.496C116.534 610.534 113.31 611.757 110.867 610.227C108.426 608.696 107.689 604.989 109.223 601.954C110.753 598.915 113.979 597.689 116.423 599.221ZM95.9363 602.472C96.4725 599.389 98.8066 597.537 101.155 598.348C103.502 599.157 104.963 602.308 104.424 605.395C103.89 608.48 101.555 610.329 99.2079 609.52C96.8617 608.711 95.3979 605.558 95.9363 602.472ZM101.366 627.885C95.443 622.036 86.4355 621.554 92.1175 615.799C97.7995 610.045 109.288 612.17 113.132 615.97C116.975 619.769 119.251 631.226 113.569 636.981C107.886 642.734 107.292 633.736 101.366 627.885ZM126.847 632.993C123.769 633.57 120.596 632.147 119.757 629.811C118.922 627.478 120.742 625.123 123.819 624.545C126.897 623.968 130.068 625.389 130.906 627.725C131.744 630.06 129.921 632.418 126.847 632.993Z" fill="#EBE4E4" fill-opacity="0.5"/>
<path d="M74.2814 602.484C73.8266 601.213 73.0403 600.003 72.0155 598.991C71.6123 598.593 71.1688 598.24 70.7059 597.909C74.3617 595.048 75.2908 590.22 72.6952 586.191C72.3038 585.582 71.8369 585.008 71.3135 584.491C68.9671 582.174 65.6477 581.15 62.4197 581.515C62.743 578.282 61.6773 574.976 59.331 572.66C58.8075 572.143 58.2302 571.686 57.6142 571.299C53.5519 568.755 48.7405 569.745 45.9236 573.439C45.5875 572.98 45.2284 572.541 44.8234 572.141C43.7986 571.129 42.5795 570.362 41.302 569.92C38.8514 569.077 36.3363 569.471 34.4034 570.999C32.8 572.266 31.6965 574.233 31.3007 576.54C30.7814 579.491 31.4754 582.559 33.1023 584.991C31.348 585.717 29.731 586.735 28.3744 588.109C26.7206 589.784 25.8596 591.339 25.6622 592.998C25.4115 595.118 26.2677 597.269 28.0732 599.051C29.4038 600.365 31.0684 601.321 32.8361 602.337C34.7162 603.418 36.6657 604.539 38.1975 606.051C39.7293 607.564 40.8737 609.498 41.9782 611.364C43.0151 613.117 43.9963 614.774 45.3242 616.085C46.9248 617.666 51.1916 620.78 56.2609 615.646C57.6175 614.272 58.6149 612.645 59.3091 610.877C61.7603 612.47 64.8419 613.124 67.7837 612.573C70.087 612.141 72.0403 611.017 73.2851 609.4C74.7927 607.444 75.1552 604.924 74.2814 602.484ZM61.0183 586.415C64.0401 584.844 67.7513 585.533 69.3126 587.956C70.874 590.379 69.6921 593.618 66.6721 595.191C63.6503 596.762 59.9392 596.073 58.3778 593.65C56.8149 591.228 57.9968 587.989 61.0183 586.415ZM55.8983 574.709C58.3427 576.241 59.0776 579.946 57.5441 582.983C56.0107 586.022 52.7855 587.244 50.3438 585.714C47.9012 584.184 47.1645 580.477 48.6973 577.441C50.2299 574.403 53.4546 573.176 55.8983 574.709ZM35.4111 577.959C35.9475 574.878 38.2805 573.024 40.6275 573.834C42.9746 574.644 44.4373 577.795 43.8979 580.88C43.3627 583.964 41.0286 585.815 38.6834 585.007C36.3373 584.198 34.8727 581.045 35.4111 577.959ZM40.842 603.373C34.9169 597.523 25.9127 597.04 31.5932 591.288C37.276 585.532 48.7644 587.657 52.6089 591.456C56.4534 595.255 58.7273 606.712 53.0438 612.468C47.3633 618.221 46.7671 609.224 40.842 603.373ZM66.3216 608.481C63.243 609.058 60.0718 607.634 59.2331 605.298C58.3972 602.965 60.2156 600.609 63.2942 600.032C66.3728 599.454 69.5421 600.877 70.3808 603.213C71.2184 605.546 69.3971 607.906 66.3216 608.481Z" fill="#EBE4E4" fill-opacity="0.5"/>
</g>
</g>
<defs>
<clipPath id="clip0">
<rect width="375" height="667" fill="white"/>
</clipPath>
<clipPath id="clip1">
<rect x="55.349" y="8" width="141.781" height="93.8253" transform="rotate(18.8725 55.349 8)" fill="white"/>
</clipPath>
<clipPath id="clip2">
<rect x="236" y="508.879" width="141.781" height="93.8253" transform="rotate(-36.7743 236 508.879)" fill="white"/>
</clipPath>
<clipPath id="clip3">
<rect x="190" y="198.879" width="141.781" height="93.8253" transform="rotate(-36.7743 190 198.879)" fill="white"/>
</clipPath>
<clipPath id="clip4">
<rect x="98.4524" y="283" width="141.781" height="93.8253" transform="rotate(45.0933 98.4524 283)" fill="white"/>
</clipPath>
<clipPath id="clip5">
<rect x="63.7896" y="522.136" width="141.781" height="93.8253" transform="rotate(44.6372 63.7896 522.136)" fill="white"/>
</clipPath>
</defs>
</svg>
