<svg width="32" height="12" viewBox="0 0 32 12" fill="none" xmlns="http://www.w3.org/2000/svg">
<path d="M30.6496 6C31.468 5.38618 31.9591 4.55754 31.9591 3.63682C31.9591 1.82608 29.9949 0.352936 27.5806 0.352936C25.3299 0.352936 23.4476 1.67263 23.243 3.32992H8.71611C8.51151 1.67263 6.62916 0.352936 4.37852 0.352936C1.96419 0.352936 0 1.82608 0 3.63682C0 4.55754 0.491049 5.38618 1.35038 6C0.491049 6.61381 0 7.47314 0 8.36317C0 10.1739 1.96419 11.6471 4.37852 11.6471C6.62916 11.6471 8.51151 10.3274 8.71611 8.67007H23.2839C23.4885 10.3274 25.3708 11.6471 27.6215 11.6471C30.0358 11.6471 32 10.1739 32 8.36317C32 7.44245 31.509 6.61381 30.6496 6ZM27.5806 11.0639C25.6164 11.0639 24.0205 9.867 24.0205 8.39386V8.36317C24.0205 8.17902 23.8568 8.05626 23.6113 8.05626H8.3069C8.06138 8.05626 7.8977 8.20971 7.8977 8.39386C7.8977 9.867 6.30179 11.0639 4.3376 11.0639C2.3734 11.0639 0.777494 9.867 0.777494 8.39386C0.777494 7.53452 1.30946 6.76726 2.20972 6.27621C2.33248 6.21483 2.3734 6.12276 2.3734 6.03069C2.3734 5.93861 2.33248 5.84654 2.20972 5.78516C1.30946 5.26342 0.777494 4.49616 0.777494 3.66751C0.777494 2.19437 2.3734 0.997437 4.3376 0.997437C6.30179 0.997437 7.8977 2.19437 7.8977 3.66751C7.8977 3.85166 8.06138 3.97442 8.3069 3.97442H23.6522C23.8977 3.97442 24.0614 3.85166 24.0614 3.66751C24.0614 2.19437 25.6573 0.997437 27.6215 0.997437C29.5857 0.997437 31.1816 2.19437 31.1816 3.66751C31.1816 4.52685 30.6496 5.29411 29.7494 5.78516C29.6266 5.84654 29.5857 5.93861 29.5857 6.03069C29.5857 6.12276 29.6266 6.21483 29.7494 6.27621C30.6087 6.76726 31.1407 7.53452 31.1407 8.39386C31.1407 9.867 29.5448 11.0639 27.5806 11.0639Z" fill="white"/>
</svg>
