<svg width="76" height="65" viewBox="0 0 76 65" fill="none" xmlns="http://www.w3.org/2000/svg">
<g clip-path="url(#clip0)">
<path d="M43.9374 35.7216C43.1181 35.7216 42.4531 36.2903 42.4531 36.9911C42.4531 37.6919 43.1181 38.2606 43.9374 38.2606C44.7568 38.2606 45.4218 37.6919 45.4218 36.9911C45.4218 36.2903 44.7568 35.7216 43.9374 35.7216Z" fill="#256CD6" fill-opacity="0.81"/>
<path d="M57.1813 42.557C55.7898 41.3676 52.4154 38.1483 49.7533 32.9275C47.7737 28.8652 43.1705 26.241 38.0225 26.241C32.8756 26.241 28.2731 28.8656 26.2931 32.9287C22.9533 39.4803 18.3906 42.9474 18.3468 42.9802C18.3415 42.9841 18.3363 42.9881 18.3311 42.9921C15.6399 45.0529 14.0964 48.0051 14.0964 51.0916C14.0964 54.8648 16.1973 58.1461 19.8417 60.2252C23.2374 62.1628 27.446 62.7437 31.3878 61.8194C33.3632 61.3565 35.6496 61.1118 38.0003 61.1118C40.3906 61.1118 42.7108 61.3647 44.7101 61.843C48.5361 62.759 52.7356 62.2568 56.2023 60.2977C59.8886 58.2146 62.0258 54.9022 62.0258 51.0916C62.0258 47.7401 60.2615 44.6342 57.1813 42.557ZM54.5653 58.1793C51.89 59.691 48.5895 60.1351 45.5099 59.3979C43.2535 58.858 40.6567 58.5727 37.9998 58.5727C35.3879 58.5727 32.8302 58.8487 30.6026 59.3707C27.4904 60.1006 24.1687 59.6421 21.4888 58.1131C18.6907 56.5167 17.0647 54.0209 17.0647 51.0915C17.0647 48.7283 18.2457 46.4677 20.305 44.8881C20.6218 44.6506 25.4389 40.9621 29.0192 33.9333C29.0225 33.9267 29.0259 33.9201 29.029 33.9135C30.5442 30.795 34.0741 28.78 38.0219 28.78C41.9713 28.7799 45.5019 30.7945 47.0167 33.9123C47.0198 33.9189 47.0232 33.9255 47.0265 33.9321C49.9338 39.6386 53.6771 43.1616 55.1514 44.4115C55.1938 44.4473 55.2387 44.4811 55.2856 44.5124C57.6822 46.105 59.0566 48.503 59.0566 51.0915C59.0569 54.0453 57.4045 56.575 54.5653 58.1793Z" fill="#256CD6" fill-opacity="0.81"/>
<path d="M47.9811 40.7757C47.5337 40.1883 46.6143 40.0218 45.9272 40.4046C45.24 40.7875 45.0459 41.574 45.4933 42.1614C47.7521 45.1274 49.8937 47.1028 50.9696 48.0163C51.5512 48.5102 52.4911 48.5075 53.069 48.0099C53.6465 47.5123 53.6431 46.7085 53.0614 46.2144C52.0692 45.3719 50.09 43.5452 47.9811 40.7757Z" fill="#256CD6" fill-opacity="0.81"/>
<path d="M33.1893 20.0516C34.6156 17.9194 35.2102 15.0875 34.8207 12.2827C34.0673 6.82206 29.6639 2.24755 24.7442 2.75283C22.5227 2.97766 20.5476 4.22485 19.1818 6.26461C17.7563 8.39514 17.1617 11.2271 17.5503 14.0339C18.781 22.9517 28.4878 27.0756 33.1893 20.0516ZM21.7584 7.52589C22.5709 6.31184 23.8384 5.25609 25.4723 5.25609C28.3937 5.25609 31.3247 8.61007 31.8728 12.5812C32.1889 14.8578 31.7297 17.121 30.6128 18.7905C27.1918 23.9021 21.3068 19.5926 20.4984 13.7358C20.183 11.4574 20.6424 9.19393 21.7584 7.52589Z" fill="#256CD6" fill-opacity="0.81"/>
<path d="M18.9706 33.7062C19.4004 31.4435 18.8782 28.9411 17.5004 26.6599C16.122 24.3781 14.0376 22.5656 11.631 21.5561C9.07503 20.4838 6.45748 20.4285 4.2606 21.4001C2.06372 22.3709 0.602796 24.2286 0.146498 26.6314C-0.283229 28.8942 0.238975 31.3965 1.61677 33.678C2.99532 35.9591 5.07968 37.7712 7.4863 38.7807C9.87467 39.7827 12.5207 39.9699 14.8562 38.9379C17.0534 37.9671 18.5146 36.109 18.9706 33.7062ZM13.4937 36.6821C12.1533 37.2747 10.4843 37.2103 8.79374 36.5012C6.9546 35.7297 5.34256 34.3129 4.25437 32.5123C3.16676 30.7115 2.74846 28.7677 3.07681 27.0384C3.37858 25.4492 4.28316 24.2481 5.6237 23.6558C5.62385 23.6556 5.624 23.6556 5.62415 23.6555C7.10645 23.0001 8.82328 23.2062 10.3237 23.8357C12.1627 24.6072 13.7747 26.0241 14.8629 27.8253C15.9505 29.6261 16.3688 31.5702 16.0405 33.2993C15.7388 34.8885 14.8343 36.0897 13.4937 36.6821Z" fill="#256CD6" fill-opacity="0.81"/>
<path d="M49.1327 23.6247C53.6326 23.6247 57.7403 19.4228 58.4841 14.0583C59.2745 8.34366 55.908 2.74133 50.5605 2.74133C46.0598 2.74133 41.9526 6.94336 41.2105 12.3076C40.4192 18.0327 43.7957 23.6247 49.1327 23.6247ZM44.1588 12.6059C44.7083 8.63502 47.64 5.28027 50.5608 5.28027C50.6982 5.28027 50.8167 5.28599 50.9228 5.29779C52.5056 5.44823 53.7308 6.63131 54.4525 7.83927C55.4343 9.48218 55.8291 11.6401 55.5361 13.7596C54.9657 17.8734 51.7775 21.4018 48.7708 21.0681C48.7653 21.0676 48.7598 21.0669 48.7543 21.0663C47.4045 20.9304 46.1243 20.005 45.242 18.5272C44.2605 16.8842 43.8658 14.726 44.1588 12.6059Z" fill="#256CD6" fill-opacity="0.81"/>
<path d="M75.8536 26.6365C74.9149 21.6921 69.689 19.3285 64.3691 21.5611C59.3922 23.6493 56.1402 29.0283 57.0295 33.7113C57.9793 38.7142 63.2573 40.9913 68.5138 38.7859C73.4923 36.6974 76.7428 31.319 75.8536 26.6365ZM67.2064 36.5062C65.516 37.2152 63.8469 37.2794 62.5064 36.6871V36.6872C61.1658 36.0948 60.2613 34.8933 59.9596 33.3043C59.281 29.7298 61.8653 25.4399 65.6766 23.8405C69.1693 22.375 72.2988 23.7548 72.9233 27.0434C73.6008 30.6113 71.0246 34.9046 67.2064 36.5062Z" fill="#256CD6" fill-opacity="0.81"/>
</g>
<defs>
<clipPath id="clip0">
<rect width="76" height="65" fill="white"/>
</clipPath>
</defs>
</svg>
