<svg width="1152" height="700" viewBox="0 0 1152 700" fill="none" xmlns="http://www.w3.org/2000/svg">
<rect width="1152" height="700" fill="white"/>
<path d="M187.995 562.224C188.5 559.809 187.73 557.382 185.883 555.567C184.92 554.62 183.688 553.872 182.323 553.405C181.788 553.222 181.234 553.096 180.675 553.001C182.725 548.834 181.462 544.083 177.372 541.582C176.756 541.205 176.086 540.889 175.389 540.651C172.268 539.584 168.834 540.105 166.086 541.837C164.973 538.785 162.574 536.271 159.456 535.205C158.759 534.967 158.04 534.806 157.319 534.727C152.555 534.202 148.652 537.184 147.722 541.736C147.217 541.468 146.706 541.23 146.166 541.045C144.804 540.58 143.371 540.419 142.03 540.576C139.455 540.884 137.361 542.331 136.286 544.547C135.394 546.384 135.253 548.634 135.899 550.886C136.715 553.767 138.674 556.23 141.197 557.714C139.927 559.127 138.913 560.747 138.288 562.573C137.527 564.799 137.429 566.572 137.971 568.154C138.668 570.172 140.37 571.736 142.775 572.558C144.543 573.162 146.457 573.299 148.49 573.446C150.656 573.603 152.897 573.766 154.932 574.462C156.969 575.159 158.844 576.402 160.649 577.602C162.344 578.73 163.949 579.796 165.715 580.4C167.844 581.127 173.037 582.079 175.371 575.251C175.996 573.423 176.188 571.524 176.047 569.628C178.946 570 182.005 569.25 184.414 567.474C186.307 566.086 187.578 564.222 187.995 562.224ZM166.956 546.862C168.993 544.133 172.636 543.141 175.094 544.644C177.555 546.148 177.896 549.578 175.862 552.306C173.822 555.034 170.181 556.027 167.721 554.524C165.265 553.021 164.92 549.591 166.956 546.862ZM157.256 538.543C160.125 538.861 162.397 541.877 162.336 545.279C162.274 548.683 159.902 551.186 157.037 550.869C154.174 550.552 151.898 547.534 151.961 544.134C152.018 540.732 154.39 538.226 157.256 538.543ZM140.22 550.376C139.362 547.366 140.66 544.684 143.127 544.394C145.593 544.102 148.278 546.304 149.134 549.318C149.994 552.329 148.695 555.009 146.23 555.301C143.765 555.593 141.076 553.389 140.22 550.376ZM156.156 570.902C148.28 568.209 139.958 571.69 142.574 564.038C145.189 556.386 156.459 553.306 161.573 555.057C166.686 556.808 173.716 566.137 171.1 573.789C168.483 581.441 164.037 573.596 156.156 570.902ZM181.324 564.427C178.803 566.284 175.327 566.382 173.555 564.642C171.79 562.904 172.405 559.992 174.925 558.135C177.446 556.276 180.92 556.178 182.69 557.918C184.459 559.656 183.843 562.572 181.324 564.427Z" fill="#EBE4E4" fill-opacity="0.5"/>
<path d="M120.723 559.799C119.761 558.852 118.527 558.105 117.164 557.639C116.628 557.455 116.075 557.33 115.514 557.234C117.563 553.068 116.301 548.316 112.212 545.815C111.595 545.438 110.925 545.123 110.229 544.885C107.109 543.819 103.674 544.339 100.926 546.071C99.8114 543.019 97.415 540.505 94.2948 539.439C93.5987 539.201 92.8802 539.04 92.1575 538.96C87.393 538.434 83.4901 541.417 82.559 545.968C82.057 545.701 81.5427 545.462 81.0042 545.278C79.6413 544.812 78.2098 544.651 76.8672 544.808C74.2939 545.114 72.2002 546.562 71.1236 548.778C70.2305 550.617 70.0914 552.867 70.7379 555.117C71.5528 558 73.5114 560.462 76.0337 561.945C74.7694 563.361 73.7559 564.981 73.1314 566.808C72.37 569.036 72.2706 570.811 72.8137 572.39C73.5095 574.408 75.2155 575.973 77.6164 576.794C79.3859 577.399 81.3004 577.536 83.3341 577.683C85.4971 577.839 87.74 578.001 89.7769 578.697C91.8139 579.393 93.6853 580.638 95.4912 581.838C97.187 582.966 98.7908 584.032 100.557 584.636C102.685 585.363 107.881 586.313 110.215 579.486C110.84 577.659 111.031 575.76 110.887 573.866C113.787 574.235 116.847 573.485 119.257 571.71C121.143 570.32 122.414 568.459 122.832 566.461C123.339 564.044 122.57 561.617 120.723 559.799ZM101.794 551.093C103.832 548.365 107.474 547.372 109.933 548.875C112.392 550.379 112.736 553.81 110.7 556.539C108.661 559.267 105.02 560.26 102.56 558.756C100.1 557.255 99.7566 553.824 101.794 551.093ZM92.0941 542.776C94.9616 543.094 97.2337 546.11 97.1729 549.512C97.1129 552.916 94.7395 555.418 91.8756 555.102C89.0105 554.785 86.736 551.767 86.7965 548.367C86.8561 544.964 89.2269 542.458 92.0941 542.776ZM75.0566 554.609C74.2001 551.6 75.4953 548.917 77.9611 548.626C80.4269 548.335 83.1139 550.537 83.969 553.55C84.8277 556.56 83.5304 559.242 81.067 559.533C78.6025 559.825 75.913 557.622 75.0566 554.609ZM90.9944 575.135C83.1152 572.442 74.7965 575.922 77.4117 568.272C80.0279 560.618 91.2978 557.538 96.4115 559.288C101.525 561.039 108.553 570.368 105.937 578.022C103.321 585.673 98.8736 577.829 90.9944 575.135ZM116.161 568.66C113.64 570.518 110.164 570.614 108.394 568.875C106.627 567.137 107.241 564.225 109.762 562.367C112.284 560.509 115.756 560.412 117.527 562.151C119.295 563.888 118.681 566.806 116.161 568.66Z" fill="#EBE4E4" fill-opacity="0.5"/>
<g clip-path="url(#clip0)">
<path d="M1021.98 121.333C1020.27 119.554 1017.83 118.821 1015.29 119.32C1013.96 119.582 1012.65 120.176 1011.5 121.04C1011.04 121.378 1010.63 121.765 1010.23 122.173C1007.95 118.129 1003.31 116.491 998.941 118.455C998.281 118.752 997.643 119.127 997.053 119.568C994.411 121.542 992.902 124.671 992.782 127.917C989.635 127.113 986.205 127.675 983.565 129.648C982.976 130.089 982.437 130.592 981.966 131.143C978.843 134.78 979.103 139.685 982.336 143.021C981.83 143.286 981.345 143.574 980.888 143.916C979.735 144.777 978.794 145.87 978.166 147.065C976.967 149.365 976.981 151.91 978.204 154.049C979.216 155.821 980.995 157.207 983.218 157.945C986.057 158.897 989.196 158.669 991.845 157.424C992.296 159.27 993.06 161.022 994.215 162.567C995.624 164.452 997.032 165.534 998.643 165.978C1000.7 166.542 1002.95 166.019 1004.99 164.498C1006.49 163.379 1007.68 161.876 1008.95 160.28C1010.3 158.581 1011.7 156.823 1013.42 155.535C1015.15 154.247 1017.23 153.401 1019.24 152.588C1021.13 151.824 1022.91 151.101 1024.41 149.984C1026.21 148.637 1029.93 144.887 1025.61 139.107C1024.45 137.559 1022.99 136.329 1021.35 135.376C1023.29 133.192 1024.4 130.244 1024.29 127.252C1024.21 124.907 1023.39 122.806 1021.98 121.333ZM997.422 130.034C996.319 126.813 997.555 123.245 1000.18 122.064C1002.81 120.881 1005.84 122.535 1006.94 125.754C1008.04 128.978 1006.81 132.544 1004.18 133.726C1001.55 134.906 998.525 133.255 997.422 130.034ZM985.08 133.348C986.961 131.159 990.734 130.985 993.508 132.955C996.283 134.927 997.011 138.298 995.133 140.484C993.255 142.669 989.479 142.845 986.708 140.874C983.931 138.908 983.201 135.535 985.08 133.348ZM985.235 154.09C982.267 153.099 980.785 150.515 981.937 148.314C983.088 146.114 986.422 145.14 989.393 146.134C992.364 147.123 993.843 149.708 992.693 151.908C991.543 154.107 988.206 155.083 985.235 154.09ZM1011.17 152.516C1004.51 157.499 1002.68 166.334 997.843 159.856C993.002 153.378 996.818 142.336 1001.15 139.103C1005.48 135.87 1017.15 135.331 1021.99 141.808C1026.83 148.287 1017.85 147.53 1011.17 152.516ZM1020.03 128.084C1020.14 131.213 1018.26 134.138 1015.82 134.619C1013.39 135.096 1011.34 132.945 1011.22 129.817C1011.11 126.686 1012.99 123.763 1015.43 123.284C1017.86 122.804 1019.92 124.958 1020.03 128.084Z" fill="#EBE4E4" fill-opacity="0.5"/>
<path d="M982.013 175.504C980.688 175.764 979.375 176.36 978.221 177.223C977.767 177.562 977.352 177.948 976.956 178.356C974.673 174.314 970.038 172.674 965.666 174.639C965.006 174.935 964.368 175.311 963.779 175.751C961.138 177.725 959.629 180.855 959.508 184.101C956.359 183.298 952.932 183.859 950.291 185.833C949.701 186.273 949.164 186.776 948.69 187.327C945.567 190.964 945.827 195.869 949.059 199.206C948.555 199.47 948.068 199.759 947.612 200.1C946.458 200.962 945.517 202.053 944.889 203.25C943.69 205.548 943.704 208.093 944.926 210.233C945.94 212.007 947.719 213.392 949.942 214.128C952.782 215.082 955.919 214.854 958.567 213.609C959.023 215.452 959.788 217.203 960.944 218.749C962.353 220.635 963.763 221.718 965.373 222.161C967.432 222.726 969.686 222.2 971.719 220.681C973.217 219.562 974.41 218.058 975.679 216.462C977.029 214.765 978.428 213.004 980.152 211.716C981.876 210.427 983.96 209.584 985.97 208.771C987.858 208.007 989.643 207.285 991.138 206.167C992.94 204.821 996.656 201.067 992.337 195.288C991.181 193.741 989.721 192.512 988.076 191.562C990.018 189.376 991.124 186.426 991.019 183.435C990.936 181.093 990.116 178.994 988.703 177.522C986.994 175.739 984.556 175.004 982.013 175.504ZM964.144 186.218C963.042 182.996 964.277 179.429 966.906 178.247C969.535 177.065 972.562 178.718 973.666 181.939C974.767 185.161 973.532 188.728 970.903 189.91C968.276 191.093 965.249 189.441 964.144 186.218ZM951.804 189.533C953.685 187.345 957.457 187.171 960.232 189.141C963.007 191.111 963.734 194.483 961.857 196.668C959.979 198.855 956.204 199.03 953.43 197.061C950.655 195.092 949.924 191.72 951.804 189.533ZM951.959 210.276C948.992 209.285 947.507 206.701 948.659 204.502C949.81 202.302 953.144 201.326 956.114 202.32C959.084 203.31 960.566 205.894 959.416 208.093C958.266 210.292 954.93 211.269 951.959 210.276ZM977.899 208.701C971.229 213.686 969.408 222.517 964.568 216.041C959.726 209.563 963.542 198.52 967.873 195.286C972.203 192.052 983.871 191.515 988.714 197.994C993.554 204.47 984.569 203.716 977.899 208.701ZM986.754 184.27C986.866 187.4 984.983 190.323 982.549 190.804C980.117 191.282 978.059 189.132 977.948 186.001C977.837 182.871 979.717 179.95 982.151 179.469C984.583 178.99 986.646 181.143 986.754 184.27Z" fill="#EBE4E4" fill-opacity="0.5"/>
</g>
<g clip-path="url(#clip1)">
<path d="M920.976 449.333C919.268 447.554 916.83 446.821 914.288 447.32C912.963 447.582 911.651 448.176 910.495 449.04C910.042 449.378 909.626 449.765 909.231 450.173C906.948 446.129 902.313 444.491 897.941 446.455C897.281 446.752 896.643 447.127 896.053 447.568C893.411 449.542 891.902 452.671 891.782 455.917C888.635 455.113 885.205 455.675 882.565 457.648C881.976 458.089 881.437 458.592 880.966 459.143C877.843 462.78 878.103 467.685 881.336 471.021C880.83 471.286 880.345 471.574 879.888 471.916C878.735 472.777 877.794 473.87 877.166 475.065C875.967 477.365 875.981 479.91 877.204 482.049C878.216 483.821 879.995 485.207 882.218 485.945C885.057 486.897 888.196 486.669 890.845 485.424C891.296 487.27 892.06 489.022 893.215 490.567C894.624 492.452 896.032 493.534 897.643 493.978C899.703 494.542 901.955 494.019 903.99 492.498C905.487 491.379 906.68 489.876 907.949 488.28C909.3 486.581 910.7 484.823 912.423 483.535C914.147 482.247 916.232 481.401 918.241 480.588C920.129 479.824 921.915 479.101 923.409 477.984C925.211 476.637 928.927 472.887 924.607 467.107C923.451 465.559 921.992 464.329 920.346 463.376C922.289 461.192 923.397 458.244 923.29 455.252C923.212 452.907 922.391 450.806 920.976 449.333ZM896.422 458.034C895.319 454.813 896.555 451.245 899.183 450.064C901.813 448.881 904.837 450.535 905.942 453.754C907.042 456.978 905.808 460.544 903.178 461.726C900.553 462.906 897.525 461.255 896.422 458.034ZM884.08 461.348C885.961 459.159 889.734 458.985 892.508 460.955C895.283 462.927 896.011 466.298 894.133 468.484C892.255 470.669 888.479 470.845 885.708 468.874C882.931 466.908 882.201 463.535 884.08 461.348ZM884.235 482.09C881.267 481.099 879.785 478.515 880.937 476.314C882.088 474.114 885.422 473.14 888.393 474.134C891.364 475.123 892.843 477.708 891.693 479.908C890.543 482.107 887.206 483.083 884.235 482.09ZM910.174 480.516C903.507 485.499 901.684 494.334 896.843 487.856C892.002 481.378 895.818 470.336 900.149 467.103C904.481 463.87 916.149 463.331 920.99 469.808C925.831 476.287 916.845 475.53 910.174 480.516ZM919.031 456.084C919.141 459.213 917.26 462.138 914.825 462.619C912.393 463.096 910.337 460.945 910.225 457.817C910.114 454.686 911.992 451.763 914.428 451.284C916.861 450.804 918.921 452.958 919.031 456.084Z" fill="#EBE4E4" fill-opacity="0.5"/>
<path d="M881.013 503.504C879.688 503.764 878.375 504.36 877.221 505.223C876.767 505.562 876.352 505.948 875.956 506.356C873.673 502.314 869.038 500.674 864.666 502.639C864.006 502.935 863.368 503.311 862.779 503.751C860.138 505.725 858.629 508.855 858.508 512.101C855.359 511.298 851.932 511.859 849.291 513.833C848.701 514.273 848.164 514.776 847.69 515.327C844.567 518.964 844.827 523.869 848.059 527.206C847.555 527.47 847.068 527.759 846.612 528.1C845.458 528.962 844.517 530.053 843.889 531.25C842.69 533.548 842.704 536.093 843.926 538.233C844.94 540.007 846.719 541.392 848.942 542.128C851.782 543.082 854.919 542.854 857.567 541.609C858.023 543.452 858.788 545.203 859.944 546.749C861.353 548.635 862.763 549.718 864.373 550.161C866.432 550.726 868.686 550.2 870.719 548.681C872.217 547.562 873.41 546.058 874.679 544.462C876.029 542.765 877.428 541.004 879.152 539.716C880.876 538.427 882.96 537.584 884.97 536.771C886.858 536.007 888.643 535.285 890.138 534.167C891.94 532.821 895.656 529.067 891.337 523.288C890.181 521.741 888.721 520.512 887.076 519.562C889.018 517.376 890.124 514.426 890.019 511.435C889.936 509.093 889.116 506.994 887.703 505.522C885.994 503.739 883.556 503.004 881.013 503.504ZM863.144 514.218C862.042 510.996 863.277 507.429 865.906 506.247C868.535 505.065 871.562 506.718 872.666 509.939C873.767 513.161 872.532 516.728 869.903 517.91C867.276 519.093 864.249 517.441 863.144 514.218ZM850.804 517.533C852.685 515.345 856.457 515.171 859.232 517.141C862.007 519.111 862.734 522.483 860.857 524.668C858.979 526.855 855.204 527.03 852.43 525.061C849.655 523.092 848.924 519.72 850.804 517.533ZM850.959 538.276C847.992 537.285 846.507 534.701 847.659 532.502C848.81 530.302 852.144 529.326 855.114 530.32C858.084 531.31 859.566 533.894 858.416 536.093C857.266 538.292 853.93 539.269 850.959 538.276ZM876.899 536.701C870.229 541.686 868.408 550.517 863.568 544.041C858.726 537.563 862.542 526.52 866.873 523.286C871.203 520.052 882.871 519.515 887.714 525.994C892.554 532.47 883.569 531.716 876.899 536.701ZM885.754 512.27C885.866 515.4 883.983 518.323 881.549 518.804C879.117 519.282 877.059 517.132 876.948 514.001C876.837 510.871 878.717 507.95 881.151 507.469C883.583 506.99 885.646 509.143 885.754 512.27Z" fill="#EBE4E4" fill-opacity="0.5"/>
</g>
<g clip-path="url(#clip2)">
<path d="M611.583 286.327C613.103 284.383 613.484 281.866 612.63 279.421C612.183 278.146 611.409 276.931 610.391 275.909C609.992 275.509 609.55 275.151 609.091 274.818C612.771 271.986 613.737 267.166 611.173 263.116C610.787 262.504 610.325 261.926 609.805 261.404C607.477 259.068 604.166 258.017 600.936 258.358C601.286 255.128 600.245 251.812 597.918 249.478C597.399 248.957 596.824 248.495 596.212 248.106C592.17 245.529 587.351 246.481 584.506 250.153C584.172 249.69 583.818 249.25 583.415 248.846C582.399 247.827 581.185 247.049 579.913 246.597C577.466 245.736 574.949 246.109 573.005 247.622C571.393 248.875 570.273 250.832 569.857 253.138C569.316 256.082 569.986 259.158 571.593 261.604C569.829 262.311 568.203 263.316 566.837 264.678C565.17 266.339 564.299 267.886 564.086 269.544C563.82 271.663 564.656 273.818 566.45 275.618C567.769 276.941 569.425 277.909 571.185 278.939C573.058 280.037 574.996 281.174 576.515 282.698C578.035 284.222 579.167 286.166 580.256 288.04C581.279 289.801 582.247 291.467 583.565 292.788C585.153 294.381 589.391 297.529 594.502 292.435C595.87 291.071 596.882 289.453 597.592 287.69C600.029 289.304 603.105 289.983 606.051 289.454C608.362 289.045 610.326 287.935 611.583 286.327ZM599.496 263.25C602.529 261.702 606.236 262.421 607.777 264.856C609.32 267.292 608.11 270.52 605.08 272.069C602.045 273.614 598.34 272.897 596.797 270.461C595.258 268.028 596.464 264.798 599.496 263.25ZM594.47 251.501C596.903 253.053 597.608 256.764 596.051 259.789C594.492 262.815 591.258 264.012 588.827 262.462C586.399 260.912 585.691 257.199 587.249 254.177C588.803 251.15 592.039 249.95 594.47 251.501ZM573.959 254.589C574.519 251.51 576.868 249.677 579.209 250.507C581.551 251.335 582.987 254.497 582.423 257.579C581.864 260.66 579.514 262.49 577.174 261.663C574.834 260.836 573.396 257.67 573.959 254.589ZM579.186 280.044C573.309 274.149 564.306 273.594 570.034 267.885C575.761 262.176 587.233 264.393 591.046 268.223C594.859 272.053 597.044 283.528 591.316 289.237C585.587 294.945 585.065 285.943 579.186 280.044ZM604.625 285.356C601.543 285.908 598.381 284.46 597.56 282.116C596.745 279.777 598.583 277.436 601.664 276.883C604.747 276.33 607.907 277.777 608.726 280.12C609.545 282.461 607.704 284.805 604.625 285.356Z" fill="#EBE4E4" fill-opacity="0.5"/>
<path d="M552.304 254.429C551.86 253.154 551.083 251.938 550.066 250.918C549.666 250.516 549.225 250.159 548.765 249.825C552.444 246.994 553.411 242.173 550.848 238.123C550.461 237.512 549.999 236.934 549.48 236.413C547.152 234.077 543.841 233.026 540.61 233.366C540.959 230.135 539.92 226.821 537.592 224.486C537.072 223.965 536.499 223.504 535.886 223.112C531.844 220.536 527.025 221.487 524.178 225.159C523.846 224.697 523.491 224.255 523.089 223.852C522.072 222.832 520.859 222.055 519.585 221.603C517.141 220.74 514.623 221.115 512.678 222.627C511.065 223.882 509.946 225.839 509.531 228.143C508.989 231.09 509.658 234.163 511.266 236.608C509.506 237.32 507.881 238.326 506.513 239.689C504.846 241.35 503.973 242.899 503.762 244.556C503.494 246.674 504.334 248.831 506.125 250.628C507.445 251.953 509.102 252.921 510.861 253.952C512.733 255.048 514.673 256.184 516.193 257.709C517.713 259.233 518.842 261.177 519.931 263.052C520.954 264.813 521.922 266.477 523.24 267.799C524.828 269.392 529.069 272.54 534.18 267.447C535.547 266.084 536.557 264.465 537.266 262.702C539.704 264.315 542.78 264.993 545.726 264.466C548.033 264.052 549.995 262.944 551.253 261.337C552.776 259.392 553.159 256.875 552.304 254.429ZM539.169 238.254C542.204 236.708 545.909 237.426 547.451 239.861C548.993 242.297 547.786 245.527 544.753 247.075C541.719 248.622 538.013 247.904 536.471 245.468C534.928 243.034 536.136 239.804 539.169 238.254ZM534.143 226.508C536.575 228.06 537.28 231.77 535.723 234.795C534.165 237.821 530.93 239.018 528.501 237.469C526.071 235.919 525.363 232.207 526.92 229.182C528.477 226.157 531.711 224.955 534.143 226.508ZM513.63 229.595C514.191 226.518 516.539 224.683 518.879 225.511C521.22 226.34 522.658 229.503 522.094 232.583C521.534 235.663 519.185 237.495 516.846 236.669C514.507 235.841 513.067 232.677 513.63 229.595ZM518.859 255.051C512.98 249.154 503.98 248.6 509.706 242.893C515.435 237.183 526.906 239.399 530.72 243.229C534.534 247.058 536.717 258.533 530.988 264.243C525.262 269.951 524.737 260.949 518.859 255.051ZM544.297 260.362C541.214 260.915 538.054 259.465 537.234 257.123C536.417 254.783 538.254 252.442 541.337 251.889C544.42 251.336 547.578 252.784 548.398 255.126C549.217 257.466 547.377 259.812 544.297 260.362Z" fill="#EBE4E4" fill-opacity="0.5"/>
</g>
<g clip-path="url(#clip3)">
<path d="M221.211 52.9251C219.21 51.482 216.68 51.1995 214.27 52.1482C213.014 52.6439 211.83 53.4647 210.849 54.5223C210.464 54.9367 210.124 55.392 209.809 55.8639C206.836 52.2968 201.981 51.5195 198.034 54.2388C197.438 54.6489 196.878 55.1326 196.377 55.6728C194.134 58.0899 193.212 61.4395 193.678 64.6536C190.438 64.4298 187.165 65.5993 184.923 68.0154C184.423 68.5547 183.983 69.1468 183.618 69.7733C181.201 73.9126 182.34 78.691 186.12 81.3911C185.67 81.7431 185.244 82.1137 184.856 82.5319C183.878 83.5867 183.148 84.8306 182.746 86.1195C181.98 88.5975 182.452 91.0984 184.039 92.9821C185.354 94.5439 187.353 95.5869 189.673 95.9124C192.637 96.3386 195.684 95.5495 198.066 93.8478C198.841 95.5828 199.908 97.1684 201.322 98.4809C203.047 100.081 204.627 100.892 206.292 101.04C208.42 101.223 210.54 100.304 212.269 98.4412C213.54 97.0713 214.442 95.3788 215.404 93.5805C216.427 91.6659 217.488 89.685 218.951 88.108C220.416 86.53 222.314 85.3229 224.144 84.162C225.864 83.0712 227.49 82.0383 228.76 80.6703C230.29 79.0214 233.27 74.6636 227.981 69.7551C226.565 68.441 224.908 67.4936 223.118 66.8522C224.637 64.3541 225.195 61.2545 224.552 58.3314C224.053 56.0379 222.868 54.1189 221.211 52.9251ZM198.623 65.902C196.958 62.9313 197.532 59.1997 199.905 57.5649C202.279 55.9282 205.552 57.011 207.218 59.9791C208.88 62.9517 208.308 66.6814 205.934 68.3181C203.563 69.951 200.288 68.8718 198.623 65.902ZM187.079 71.382C188.535 68.8903 192.215 68.0409 195.299 69.4795C198.383 70.9196 199.706 74.1044 198.252 76.5933C196.798 79.0805 193.115 79.9327 190.034 78.4929C186.949 77.0579 185.624 73.8718 187.079 71.382ZM190.964 91.7576C187.865 91.3172 185.942 89.0417 186.68 86.6697C187.416 84.298 190.52 82.7399 193.622 83.1831C196.722 83.6216 198.642 85.8983 197.907 88.2691C197.171 90.6392 194.065 92.2001 190.964 91.7576ZM216.196 85.5424C210.534 91.6441 210.331 100.662 204.403 95.1614C198.475 89.6605 200.243 78.1117 203.922 74.152C207.6 70.1923 218.981 67.5626 224.909 73.0635C230.836 78.5653 221.861 79.4377 216.196 85.5424ZM220.512 59.9157C221.184 62.9742 219.86 66.1895 217.551 67.1011C215.245 68.0073 212.834 66.2618 212.162 63.2043C211.489 60.1451 212.811 56.9317 215.121 56.0218C217.428 55.112 219.842 56.8604 220.512 59.9157Z" fill="#EBE4E4" fill-opacity="0.5"/>
<path d="M191.647 113.402C190.39 113.896 189.206 114.719 188.226 115.775C187.841 116.19 187.501 116.644 187.185 117.117C184.212 113.552 179.358 112.773 175.411 115.492C174.815 115.902 174.255 116.387 173.755 116.926C171.512 119.343 170.591 122.693 171.056 125.908C167.814 125.685 164.543 126.853 162.3 129.27C161.8 129.809 161.361 130.4 160.994 131.028C158.577 135.167 159.715 139.945 163.495 142.646C163.047 142.997 162.619 143.369 162.232 143.786C161.252 144.842 160.523 146.084 160.121 147.375C159.354 149.85 159.827 152.352 161.413 154.237C162.73 155.8 164.73 156.842 167.048 157.166C170.013 157.594 173.059 156.805 175.439 155.103C176.219 156.834 177.287 158.419 178.702 159.732C180.428 161.333 182.009 162.146 183.673 162.292C185.8 162.476 187.923 161.554 189.649 159.694C190.921 158.323 191.824 156.63 192.785 154.832C193.807 152.919 194.867 150.936 196.331 149.358C197.796 147.78 199.694 146.576 201.525 145.414C203.244 144.323 204.87 143.291 206.14 141.923C207.67 140.274 210.65 135.913 205.362 131.005C203.946 129.692 202.289 128.746 200.5 128.107C202.017 125.607 202.575 122.507 201.933 119.583C201.43 117.295 200.246 115.377 198.591 114.183C196.589 112.737 194.059 112.453 191.647 113.402ZM175.997 127.157C174.333 124.185 174.906 120.454 177.28 118.818C179.653 117.183 182.928 118.264 184.593 121.233C186.257 124.205 185.684 127.936 183.31 129.572C180.938 131.209 177.664 130.128 175.997 127.157ZM164.455 132.637C165.911 130.146 169.591 129.297 172.674 130.736C175.759 132.174 177.081 135.36 175.627 137.848C174.173 140.337 170.491 141.188 167.409 139.75C164.325 138.312 162.998 135.127 164.455 132.637ZM168.339 153.014C165.243 152.573 163.317 150.299 164.054 147.928C164.791 145.557 167.895 143.997 170.995 144.44C174.094 144.88 176.017 147.155 175.282 149.524C174.546 151.894 171.44 153.456 168.339 153.014ZM193.573 146.797C187.908 152.901 187.706 161.916 181.779 156.416C175.851 150.915 177.618 139.366 181.297 135.406C184.975 131.445 196.355 128.817 202.285 134.32C208.211 139.819 199.237 140.694 193.573 146.797ZM197.888 121.172C198.56 124.231 197.235 127.445 194.926 128.355C192.62 129.263 190.209 127.519 189.537 124.46C188.864 121.4 190.188 118.188 192.496 117.278C194.802 116.368 197.218 118.116 197.888 121.172Z" fill="#EBE4E4" fill-opacity="0.5"/>
</g>
<path d="M403.126 413.41C402.978 410.948 401.597 408.809 399.338 407.542C398.159 406.882 396.775 406.484 395.335 406.393C394.771 406.357 394.203 406.381 393.638 406.436C394.522 401.877 392.054 397.625 387.451 396.287C386.757 396.085 386.028 395.956 385.292 395.91C382.001 395.701 378.824 397.105 376.629 399.499C374.753 396.847 371.777 395.051 368.488 394.842C367.754 394.796 367.017 394.83 366.301 394.943C361.566 395.689 358.584 399.592 358.883 404.228C358.326 404.103 357.77 404.007 357.2 403.971C355.764 403.88 354.339 404.101 353.087 404.605C350.683 405.579 349.044 407.525 348.589 409.946C348.21 411.953 348.666 414.161 349.881 416.164C351.425 418.729 353.963 420.59 356.788 421.359C355.934 423.057 355.381 424.886 355.258 426.812C355.109 429.16 355.48 430.897 356.419 432.28C357.622 434.044 359.675 435.106 362.211 435.267C364.076 435.385 365.958 435.014 367.959 434.621C370.09 434.204 372.295 433.772 374.442 433.909C376.59 434.045 378.726 434.752 380.782 435.436C382.715 436.078 384.544 436.685 386.406 436.803C388.651 436.946 393.912 436.499 394.369 429.297C394.492 427.369 394.178 425.487 393.543 423.695C396.438 423.291 399.193 421.764 401.05 419.417C402.512 417.581 403.248 415.449 403.126 413.41ZM378.789 404.119C380.037 400.951 383.291 399.035 386.058 399.839C388.827 400.644 390.058 403.864 388.812 407.031C387.561 410.199 384.31 412.114 381.54 411.31C378.776 410.506 377.541 407.287 378.789 404.119ZM367.243 398.641C370.094 398.194 373.08 400.508 373.915 403.806C374.75 407.106 373.119 410.144 370.272 410.592C367.426 411.038 364.436 408.725 363.604 405.428C362.764 402.13 364.394 399.089 367.243 398.641ZM353.916 414.536C352.298 411.857 352.844 408.929 355.148 408C357.451 407.07 360.621 408.49 362.239 411.173C363.86 413.852 363.311 416.779 361.009 417.709C358.708 418.638 355.534 417.218 353.916 414.536ZM374.687 430.152C366.38 429.624 359.265 435.17 359.778 427.099C360.29 419.029 370.355 413.095 375.748 413.44C381.142 413.786 390.377 420.939 389.864 429.01C389.35 437.081 382.998 430.68 374.687 430.152ZM397.268 417.29C395.324 419.744 391.996 420.752 389.829 419.539C387.669 418.326 387.497 415.355 389.44 412.9C391.385 410.445 394.71 409.437 396.875 410.65C399.039 411.863 399.211 414.838 397.268 417.29Z" fill="#EBE4E4" fill-opacity="0.5"/>
<path d="M337.581 428.753C336.404 428.092 335.017 427.695 333.58 427.603C333.014 427.567 332.447 427.592 331.881 427.646C332.763 423.088 330.297 418.835 325.694 417.497C325 417.295 324.271 417.168 323.536 417.121C320.246 416.912 317.068 418.317 314.872 420.71C312.994 418.058 310.022 416.263 306.731 416.054C305.997 416.007 305.261 416.041 304.543 416.154C299.808 416.899 296.826 420.803 297.124 425.439C296.569 425.313 296.01 425.217 295.442 425.181C294.005 425.09 292.581 425.31 291.327 425.815C288.925 426.787 287.285 428.735 286.829 431.156C286.451 433.164 286.908 435.372 288.123 437.373C289.667 439.94 292.204 441.801 295.027 442.568C294.18 444.267 293.628 446.097 293.505 448.024C293.356 450.373 293.727 452.112 294.666 453.493C295.867 455.257 297.925 456.319 300.457 456.479C302.323 456.598 304.206 456.227 306.207 455.834C308.335 455.416 310.542 454.983 312.69 455.119C314.839 455.256 316.971 455.965 319.029 456.649C320.962 457.291 322.789 457.898 324.652 458.016C326.897 458.159 332.16 457.71 332.617 450.509C332.74 448.582 332.425 446.7 331.788 444.91C334.684 444.504 337.438 442.976 339.297 440.63C340.752 438.793 341.489 436.663 341.367 434.626C341.221 432.16 339.841 430.021 337.581 428.753ZM317.029 425.328C318.279 422.16 321.532 420.245 324.3 421.049C327.068 421.853 328.301 425.073 327.054 428.241C325.804 431.409 322.551 433.324 319.783 432.52C317.015 431.718 315.782 428.498 317.029 425.328ZM305.485 419.853C308.335 419.405 311.32 421.719 312.155 425.017C312.992 428.316 311.36 431.355 308.513 431.802C305.666 432.25 302.678 429.936 301.843 426.639C301.006 423.341 302.635 420.299 305.485 419.853ZM292.156 435.747C290.539 433.07 291.083 430.14 293.386 429.211C295.689 428.283 298.86 429.701 300.477 432.383C302.097 435.062 301.55 437.99 299.25 438.919C296.948 439.848 293.774 438.429 292.156 435.747ZM312.929 451.363C304.619 450.835 297.507 456.379 298.02 448.311C298.532 440.239 308.596 434.305 313.99 434.65C319.384 434.994 328.617 442.149 328.104 450.221C327.592 458.29 321.239 451.891 312.929 451.363ZM335.509 438.501C333.564 440.956 330.236 441.962 328.071 440.75C325.909 439.537 325.736 436.566 327.681 434.111C329.625 431.655 332.95 430.649 335.116 431.862C337.279 433.073 337.453 436.049 335.509 438.501Z" fill="#EBE4E4" fill-opacity="0.5"/>
<defs>
<clipPath id="clip0">
<rect x="901" y="173.879" width="141.781" height="93.8253" transform="rotate(-36.7743 901 173.879)" fill="white"/>
</clipPath>
<clipPath id="clip1">
<rect x="800" y="501.879" width="141.781" height="93.8253" transform="rotate(-36.7743 800 501.879)" fill="white"/>
</clipPath>
<clipPath id="clip2">
<rect x="542.452" y="174" width="141.781" height="93.8253" transform="rotate(45.0933 542.452 174)" fill="white"/>
</clipPath>
<clipPath id="clip3">
<rect x="111.663" y="126.38" width="141.781" height="93.8253" transform="rotate(-47.1395 111.663 126.38)" fill="white"/>
</clipPath>
</defs>
</svg>
