<svg height="599pt" viewBox="0 0 602 599" width="602pt" xmlns="http://www.w3.org/2000/svg">
  <path d="m279.53 79.73c26.77-2.57 54.36 2.07 78.31 14.48 12.53 6.12 23.88 14.42 34.11 23.86 23.09 22.11 38.57 52.09 42.77 83.82 5.38 38.53-6.05 78.96-30.75 109-25.59 31.51-65.31 51.22-105.96 51.98-27.78.91-55.77-6.67-79.31-21.47-28.93-17.89-50.91-46.69-60.59-79.3-13.25-42.52-4.64-91.1 22.47-126.44 23.17-31.45 60.15-52.05 98.95-55.93m-26.06 64.05c-8.47 2.15-15.25 9.47-16.98 18.01-1.97 6.99.91 14.22 4.68 20.07 6.08 8.58 14.15 16.11 23.96 20.18 4.51 1.24 10.45 1.85 13.69-2.31 5.45-6.55 5.77-15.65 5.67-23.77-.07-9.61-2.13-20.18-9.44-26.99-5.66-5.44-14.11-6.77-21.58-5.19m66.7.37c-4.29 1.58-8.29 4.28-11.13 7.89-2.44 4.02-4.73 8.31-5.42 13.03-1.44 8.54-1.72 17.42.21 25.9 1.27 4.56 3.53 9.49 8.08 11.55 8.7 2.02 16.6-3.33 23-8.54 7.84-7.07 15.56-15.9 16.26-26.94-.2-10.22-7.07-20.58-17.25-23.16-4.5-.96-9.31-1.07-13.75.27m-111.73 54.5c-5.73 2.7-10.54 7.91-11.53 14.32-1.51 7.06.96 14.94 6.62 19.5 6.6 5.3 15.19 7.45 23.48 8.2 5.65.27 12.31.4 16.53-4.01 2.84-2.69 2.59-7 1.86-10.5-2.06-9.32-8.2-17.08-14.86-23.63-5.81-5.51-14.75-6.72-22.1-3.88m153.22.35c-8.47 4.9-14.34 13.43-18.47 22.13-2.1 5.21-3.85 12.66 1.46 16.6 5.87 4.12 13.62 3.3 20.35 2.36 8.63-1.91 18.62-4.78 23.04-13.21 5.8-9.83 1.11-24.58-9.93-28.27-5.25-1.97-11.35-2.15-16.45.39m-72.2 15.69c-10.32 3.5-19.6 9.74-27.48 17.22-7.09 6.37-14 13.3-18.33 21.92-4.23 8.81-5.7 19.58-1.35 28.65 5.16 12.31 19.73 19.73 32.71 16.63 6.36-1.38 11.06-6.16 16.07-9.96 1.16-1.02 3-1.46 4.33-.46 4.6 3.07 8.3 7.56 13.64 9.46 13.96 5.49 31.15-3.02 36.16-16.96 4.18-9.29 1.88-20.08-2.58-28.81-6.49-11.38-16.31-20.49-26.81-28.14-7.86-4.98-16.44-11.79-26.36-9.55z" fill="#eb7859"/><path d="m253.47 143.78c7.47-1.58 15.92-.25 21.58 5.19 7.31 6.81 9.37 17.38 9.44 26.99.1 8.12-.22 17.22-5.67 23.77-3.24 4.16-9.18 3.55-13.69 2.31-9.81-4.07-17.88-11.6-23.96-20.18-3.77-5.85-6.65-13.08-4.68-20.07 1.73-8.54 8.51-15.86 16.98-18.01z" fill="#fff"/><path d="m320.17 144.15c4.44-1.34 9.25-1.23 13.75-.27 10.18 2.58 17.05 12.94 17.25 23.16-.7 11.04-8.42 19.87-16.26 26.94-6.4 5.21-14.3 10.56-23 8.54-4.55-2.06-6.81-6.99-8.08-11.55-1.93-8.48-1.65-17.36-.21-25.9.69-4.72 2.98-9.01 5.42-13.03 2.84-3.61 6.84-6.31 11.13-7.89z" fill="#fff"/><path d="m208.44 198.65c7.35-2.84 16.29-1.63 22.1 3.88 6.66 6.55 12.8 14.31 14.86 23.63.73 3.5.98 7.81-1.86 10.5-4.22 4.41-10.88 4.28-16.53 4.01-8.29-.75-16.88-2.9-23.48-8.2-5.66-4.56-8.13-12.44-6.62-19.5.99-6.41 5.8-11.62 11.53-14.32z" fill="#fff"/><path d="m361.66 199c5.1-2.54 11.2-2.36 16.45-.39 11.04 3.69 15.73 18.44 9.93 28.27-4.42 8.43-14.41 11.3-23.04 13.21-6.73.94-14.48 1.76-20.35-2.36-5.31-3.94-3.56-11.39-1.46-16.6 4.13-8.7 10-17.23 18.47-22.13z" fill="#fff"/><path d="m289.46 214.69c9.92-2.24 18.5 4.57 26.36 9.55 10.5 7.65 20.32 16.76 26.81 28.14 4.46 8.73 6.76 19.52 2.58 28.81-5.01 13.94-22.2 22.45-36.16 16.96-5.34-1.9-9.04-6.39-13.64-9.46-1.33-1-3.17-.56-4.33.46-5.01 3.8-9.71 8.58-16.07 9.96-12.98 3.1-27.55-4.32-32.71-16.63-4.35-9.07-2.88-19.84 1.35-28.65 4.33-8.62 11.24-15.55 18.33-21.92 7.88-7.48 17.16-13.72 27.48-17.22z" fill="#fff"/><g fill="#4a3b34"><path d="m250.18 414.3c4.81-1.68 10.2 3.09 8.98 8.08-.83 4.82-7.01 7.2-10.98 4.49-4.77-2.89-3.63-11.39 2-12.57z"/><path d="m432.69 420.31c3.54-1.18 7.77-2.27 11.16-.06 1.87 1.23 1.77 3.73 1.8 5.72-.08 14.48.07 28.96-.08 43.45-4 .66-8.38 1.2-11.96-1.17-.4-2.08-.89-4.17-.87-6.29-.01-13.89.1-27.77-.05-41.65z"/><path d="m454.61 419.77c3.94-.89 8.27-1.32 11.91.8 2.12 8 .44 16.43 1.1 24.6 4.56-4.54 8.62-9.59 13.34-13.95 4.22-.84 9.97 3.04 8.39 7.84-1.93 4.88-7.29 7.01-10.34 11.05-.04 1.29 1.3 1.98 2.01 2.89 3.34 3.18 6.56 6.49 9.85 9.73-.59 2.92-1.71 6.38-5.08 7-4.78 1.43-8.74-2.45-11.28-5.99-2.28-2.77-4.37-5.71-6.91-8.26-.11 4.61-.04 9.22-.13 13.82-4.36.71-10.58 2-12.88-3.01.06-15.51.02-31.02.02-46.52z"/><path d="m63.97 424.04c7.65-3.7 16.8-3.69 24.99-1.91 7.93 1.53 14.64 7.93 16.42 15.82 2.01 8.59 1.09 18.62-4.93 25.47-5.9 6.37-15.2 8.01-23.51 7.56-4.06-.45-8.42-.71-11.96-2.94-2.87-2.46-2.04-6.69-2.11-10.04-.04-7.33-.07-14.66.01-21.99.3-3.94-1.03-8.44 1.09-11.97m12.21 7.97c-.01 9.47-.05 18.93.04 28.4 5.64 1.15 13.17-.14 15.22-6.35 1.98-6.29 2.21-14.57-2.96-19.46-3.34-3.12-8.1-2.65-12.3-2.59z"/><path d="m322.47 424.55c3.15-1.92 7.14-3.57 10.73-1.78 3.8 1.33 3.33 6.05 4.09 9.25 1.65 8.76 2.06 17.8 4.53 26.37 1.58-8.34 3.81-16.55 5.63-24.84 4.19-.94 9.04-1.67 12.83.87 3.15 7.66 4.23 16.02 6.97 23.84 2.14-11.47 3.08-23.14 4.29-34.73 3.48-1.52 7.71-2.34 11.09-.08 2.31 1.29 1.76 4.35 1.69 6.56-1.34 12.02-3.27 24.06-6.78 35.66-.94 3.66-5.44 3.75-8.5 4.27-3.52.09-8.4.02-10.22-3.56-1.96-5.41-3.07-11.08-4.82-16.55-1.66 6.03-2.82 12.18-4.58 18.18-5.56 2.74-12.32 2.66-17.64-.6-.97-2.46-1.99-4.91-2.59-7.49-2.98-11.63-5.22-23.46-6.72-35.37z"/><path d="m125.36 431.49c7.63-1.94 16.83-.34 21.93 6.08 6.22 8.08 5.86 21.01-1.39 28.35-8.66 7.63-24.17 6.76-30.97-2.96-4.27-6.53-4.5-15.3-1.18-22.27 2.22-4.63 6.69-7.93 11.61-9.2m3.07 10.14c-4.68 3.37-4.58 10.4-2.68 15.29 1.63 4.58 8.83 5.28 11.14.96 2.14-4.11 2.26-9.39.25-13.57-1.43-3.3-5.68-4.19-8.71-2.68z"/><path d="m164.12 434.14c6.98-4.13 16.1-4.04 23.36-.62 2.55 1.35 5.79 3.18 5.85 6.45.14 9.66.02 19.33.04 28.99.16 5.55-3.6 10.72-8.61 12.89-6.14 2.62-13.18 2.75-19.57 1.02-2.12-.63-4.42-1.53-5.43-3.65-1.21-2.81-.49-5.99 1.17-8.44 5.4 2.58 11.94 4.33 17.66 1.7 2.35-.93 2.79-3.67 3.13-5.86-4.97 1.4-10.36 2.1-15.26.02-7.16-2.42-10.44-10.57-9.99-17.63-.21-5.86 2.56-11.8 7.65-14.87m6.61 9.66c-2.5 3.63-1.67 8.58.18 12.33 3.22 1.86 7.03 2.11 10.36.36-.07-4.71-.11-9.43.01-14.14-3.4-1.58-8.02-1.76-10.55 1.45z"/><path d="m208.62 433.73c7-3.68 15.75-3.56 22.84-.16 2.52 1.3 5.44 3.06 5.68 6.21.26 9.4.01 18.81.12 28.21.23 5.19-2.45 10.59-7.14 13.03-6.81 3.7-15.26 3.82-22.51 1.39-2.92-.89-4.49-3.55-5.04-6.4.8-1.59.64-4.02 2.47-4.86 5.51 1.96 11.75 4.06 17.41 1.32 2.49-.91 2.65-3.81 3.11-6.02-6.03 2.24-13.23 2.2-18.63-1.6-4.97-3.52-6.96-9.93-6.59-15.8-.2-6.1 2.79-12.39 8.28-15.32m5.3 11.22c-1.46 3.32-1.39 7.5.67 10.54 2.63 2.94 6.85 2.59 10.18 1.21.04-4.85.28-9.71-.08-14.54-3.47-1.74-9.09-1.24-10.77 2.79z"/><path d="m245.73 432.11c3.84-1.29 8.1-1.63 11.77.35.59 1.8 1.14 3.65 1.05 5.58-.07 10.44.01 20.88-.03 31.32-3.96.72-8.3 1.25-11.85-1.09-.5-2.07-1.03-4.16-.94-6.3.03-9.96.04-19.91 0-29.86z"/><path d="m271.08 436.02c8.77-8.14 26.02-6.35 30.68 5.45 1.31 3.63 2.41 9.85-2.61 11.02-6.93 1.54-14.06 2-21.03 3.37 1.18 1.8 2.57 3.64 4.83 4.1 5.4 1.92 11.08-.01 16.28-1.62.99 2.04 2.76 4.27 1.79 6.65-1.04 3.84-5.43 4.94-8.86 5.53-8.43 1.57-18.45-.59-23.47-8.1-4.83-8.02-4.48-19.63 2.39-26.4m6.04 11.7c4.65-.64 9.29-1.31 13.91-2.13-1.25-2.32-2.97-5.07-6.05-4.62-4.15-.54-7.39 2.81-7.86 6.75z"/><path d="m391.66 435.83c1.49-3.57 5.8-4.21 9.17-4.75 6.76-.68 14.56-.7 19.92 4.12 3.14 2.6 4.02 6.9 3.8 10.8-.21 6.1.33 12.24-.24 18.31-1.91 3.7-6.24 5.24-10.1 5.97-6.65 1.28-14.04 1.12-20.06-2.3-6.67-3.83-6.84-15.21.02-18.91 5.63-2.74 12.09-2.24 18.13-3.32-.32-1.08-.62-2.16-.9-3.24-5.46-2.81-11.83-1.41-17.35.45-2.75-.9-2.84-4.74-2.39-7.13m10.07 19.94c-.06.91-.18 2.73-.24 3.65 3.15 2.35 7.19 1.6 10.78.93-.04-2.1-.07-4.2-.08-6.3-3.55.04-7.13.42-10.46 1.72z"/><path d="m496.56 439.45c1.69-5.71 8.03-8.14 13.46-8.56 5.08-.33 10.88-.21 14.95 3.28 2.41 2.5 1.35 6.16.01 8.91-5.36-1.16-11.4-3.79-16.58-.66.04.51.13 1.53.17 2.05 5.19 2.34 11.38 2.24 15.96 5.95 4.64 3.6 4.89 11.04 1.32 15.46-3.97 4.36-10.26 5.22-15.85 5.13-4.43-.35-9.54-.85-12.63-4.45-2.05-2.69-1.02-6.61 1.28-8.83 5.21 2.4 11.62 4.61 17.06 1.62-.27-1.28-.06-3.04-1.76-3.27-4.94-1.61-10.66-1.71-14.74-5.33-3.37-2.65-3.43-7.47-2.65-11.3z"/><path d="m46.76 508.19c.75-.08 2.24-.23 2.98-.31.05 3.32.07 6.64.02 9.96 3.9.23 7.8.2 11.7.1-.02-3.41-.01-6.82.06-10.22.69.13 2.05.38 2.74.5.28 7.6.08 15.22.07 22.83-.71-.01-2.12-.02-2.83-.02-.03-3.67-.04-7.33-.02-10.99-3.9-.08-7.8-.07-11.7.03-.11 4.2.33 8.43-.26 12.61-.12-.5-.37-1.5-.49-1.99l-2.24.32c.07-7.61.12-15.22-.03-22.82z"/><path d="m76.54 508.09c4.57-.15 9.14-.1 13.71-.02.02.49.05 1.47.06 1.97-3.57-.04-7.14-.04-10.71-.07-.08 2.63-.1 5.27-.11 7.9 2.86.15 5.73.02 8.59.25.29.41.88 1.23 1.17 1.64-3.24.28-6.49.25-9.73.26.01 2.98.01 5.96.01 8.95 3.5.07 7.01-.14 10.5.17.12.47.35 1.42.46 1.89-4.64-.01-9.28.02-13.91-.12.04-7.61.1-15.22-.04-22.82z"/><path d="m101.43 508.17c.73-.06 2.18-.2 2.9-.27.07 7.01.12 14.02-.03 21.04 3.42.09 6.85-.13 10.26.21.14.43.4 1.29.54 1.72-4.55.2-9.1.18-13.64.05.01-7.58.06-15.17-.03-22.75z"/><path d="m124.41 508.3c4.2-.31 8.91-.96 12.63 1.49 3.45 2.27 3.24 7.85-.02 10.17-2.8 2.04-6.4 1.95-9.69 2.24.05 2.95.07 5.9.05 8.85-.73-.01-2.19-.04-2.91-.05.02-7.57.04-15.13-.06-22.7m2.93 1.78c.05 3.31.06 6.63.05 9.95 2.71-.16 5.9.47 8.08-1.56 1.87-1.75.92-4.5.81-6.7-2.63-1.91-5.85-1.94-8.94-1.69z"/><path d="m165.56 508.01c.7.01 2.09.04 2.78.05.62 5.63-.29 11.34.44 16.96.75 5.25 9.38 5.54 10.49.41.97-5.74.33-11.62.44-17.42.7 0 2.11-.01 2.81-.02-.32 5.92.74 12-.66 17.8-2.28 7.2-14.54 6.77-15.92-.81-.74-5.62-.12-11.32-.38-16.97z"/><path d="m193.49 511.87c3.33-4.72 9.74-4.49 14.61-2.66-.43.69-.87 1.39-1.31 2.09-3.22-1.56-7.47-2.17-10.31.46.03.88.08 2.63.11 3.51 3.34 2.51 7.8 3.17 10.79 6.15 1.94 2.59.64 5.78-1.13 8.04-4.46 2.25-9.58 1.71-14.08-.09.42-.52 1.25-1.56 1.67-2.08 2.57.97 5.19 2.34 8.03 1.6 2.89-.2 4.84-4.09 2.68-6.26-2.7-2.66-6.91-2.91-9.7-5.46-1.33-1.43-1.11-3.51-1.36-5.3z"/><path d="m235.57 508h2.96c-.01 3.32-.01 6.65-.01 9.98 3.92.04 7.84.04 11.76-.07-.07-3.3-.07-6.6-.08-9.9.74.03 2.23.08 2.98.11 0 7.55-.08 15.11.04 22.66-.74.09-2.22.25-2.96.34-.06-3.69-.06-7.37-.04-11.04-3.9-.1-7.8-.09-11.7-.05.02 3.65-.01 7.31-.01 10.97-.73 0-2.19 0-2.92 0 .05-7.67.05-15.34-.02-23z"/><path d="m265.45 508.06c4.61-.13 9.22-.12 13.83.06-.18.44-.53 1.31-.7 1.74-3.39.31-6.8.08-10.19.12.01 2.64 0 5.28-.05 7.93 3.4.19 7-.45 10.2 1.02-3.06 1.86-6.79.84-10.18 1.09.01 2.96.01 5.93.01 8.9 3.47.15 7-.23 10.45.34.18.38.56 1.16.74 1.55-4.7.3-9.42.22-14.13.16.07-7.63.06-15.27.02-22.91z"/><path d="m289.77 508.18c.75-.06 2.25-.2 3-.27.01 6.99.07 13.98-.04 20.98 3.88.36 8.04-.67 11.67 1.1-4.57 2.03-9.8.72-14.65.86.18-7.55.13-15.11.02-22.67z"/><path d="m313.19 508.27c4.11-.26 8.6-.91 12.31 1.36 3.02 1.9 3.73 6.51 1.3 9.17-2.59 3.31-7.24 3.04-11 3.46.01 2.87.16 5.75.49 8.62-.77.04-2.31.13-3.08.17.02-7.59.04-15.18-.02-22.78m2.94 1.77c.02 3.33.03 6.67.03 10.01 2.69-.23 6.05.53 8.05-1.79 1.78-1.81 1.42-4.7.13-6.68-2.18-2.12-5.46-1.46-8.21-1.54z"/><path d="m360.94 508.13c.81-.05 2.41-.14 3.22-.18 2.81 6.97 5.63 13.95 8.53 20.88.79 1.63-1.69 1.55-2.65 1.78-.55-2.2-1.27-4.34-1.95-6.48-3.75-.17-7.49-.16-11.23-.05-.76 2.26-1.59 4.5-2.43 6.74-.8-.31-1.59-.62-2.38-.93 2.75-7.34 6.03-14.47 8.89-21.76m-3.22 13.73c3.06.18 6.14.2 9.2-.01-1.64-3.61-2.66-7.49-4.73-10.9-1.36 3.69-2.66 7.41-4.47 10.91z"/><path d="m382.76 508.07c1.39 0 2.79.01 4.2.04 3.29 6.47 6.71 12.88 10.29 19.19.21-6.41.04-12.83.1-19.23.7 0 2.1.02 2.8.02 0 7.61.03 15.22-.01 22.83-1.39-.01-2.77-.03-4.15-.05-3.14-6.49-6.8-12.71-10.27-19.01-.11 6.4-.01 12.81-.1 19.22-.71-.08-2.14-.23-2.86-.31.12-7.57.12-15.14 0-22.7z"/><path d="m412.48 508c.73 0 2.19-.01 2.92-.01-.05 7.69 0 15.38-.03 23.08-.73-.03-2.18-.07-2.91-.09.01-7.66-.01-15.32.02-22.98z"/><path d="m427.77 508.3c1.42-.16 2.84-.3 4.28-.42 2.01 4.81 4.18 9.55 6.22 14.35 3.17-4.18 4.43-9.46 6.71-14.14 1.43-.06 2.87-.11 4.31-.14-.09 7.68-.1 15.36.02 23.04-.72 0-2.14 0-2.85 0-.04-6.39.19-12.79-.19-19.17-2.16 4.59-4.27 9.2-6.19 13.9-.76 0-2.29 0-3.06 0-2.04-4.66-4.15-9.29-6.24-13.92-.29 6.42-.04 12.85-.18 19.27-.7-.05-2.11-.16-2.81-.21.04-7.52.11-15.04-.02-22.56z"/><path d="m458.87 530.08c2.71-7.49 6.11-14.71 9.01-22.12.8.05 2.4.16 3.2.21 2.88 7.24 5.87 14.43 8.82 21.65-.71.24-2.13.72-2.84.96-.66-2.16-1.39-4.3-1.97-6.47-3.77-.46-7.57-.3-11.35-.28-.79 2.22-1.59 4.44-2.39 6.66-.83-.21-1.66-.41-2.48-.61m6.03-8.23c2.92.14 5.86.18 8.79.21-1.4-3.67-2.81-7.34-4.1-11.05-2.29 3.26-3.2 7.2-4.69 10.84z"/><path d="m489.59 507.97c.74.02 2.22.07 2.96.1-.04 6.98 0 13.97-.02 20.96 3.42.03 6.89-.37 10.29.22.18.39.56 1.17.74 1.56-4.65.3-9.3.2-13.95.19.02-7.68.04-15.36-.02-23.03z"/><path d="m515.75 508.65c3.69-1.51 7.8-.52 11.26 1.15-3.81 2.4-8.95-1.95-12.36 2-.02.81-.06 2.43-.08 3.24 2.98 2.45 6.91 3.19 9.97 5.46 3.23 2.39 2.28 8-1.42 9.37-3.86 2.02-8.31.97-12.22-.27.32-.86.67-1.71 1.04-2.55 3.33 2.15 9.63 3.61 11.5-.99.87-7.1-10.12-5.07-11.52-11.06-.96-2.76 1.27-5.55 3.83-6.35z"/>
  </g>
</svg>
