<svg width="135" height="114" viewBox="0 0 135 114" fill="none" xmlns="http://www.w3.org/2000/svg">
<path d="M62.6853 14.3071C68.6885 13.8137 74.8757 14.7045 80.2465 17.087C83.0564 18.262 85.6017 19.8555 87.8958 21.6679C93.0738 25.9127 96.5452 31.6684 97.487 37.7602C98.6935 45.1574 96.1303 52.9194 90.5913 58.6867C84.8527 64.7362 75.9454 68.5203 66.8295 68.6662C60.5998 68.8409 54.3229 67.3856 49.044 64.5442C42.5564 61.1096 37.6273 55.5804 35.4566 49.3197C32.4852 41.1564 34.416 31.8297 40.4955 25.0449C45.6914 19.0069 53.9843 15.052 62.6853 14.3071ZM56.8413 26.6038C54.9419 27.0166 53.4214 28.4219 53.0335 30.0615C52.5917 31.4035 53.2375 32.7916 54.083 33.9147C55.4464 35.5619 57.2561 37.0076 59.4561 37.789C60.4674 38.027 61.7995 38.1441 62.5261 37.3455C63.7483 36.088 63.82 34.3409 63.7976 32.782C63.7819 30.937 63.3199 28.9077 61.6806 27.6002C60.4114 26.5558 58.5164 26.3005 56.8413 26.6038ZM71.7989 26.6749C70.8369 26.9782 69.9399 27.4966 69.303 28.1896C68.7558 28.9614 68.2423 29.785 68.0875 30.6912C67.7646 32.3308 67.7018 34.0356 68.1346 35.6637C68.4194 36.5391 68.9262 37.4856 69.9466 37.8811C71.8976 38.2689 73.6692 37.2418 75.1044 36.2416C76.8625 34.8842 78.5938 33.189 78.7508 31.0694C78.7059 29.1073 77.1653 27.1184 74.8824 26.623C73.8733 26.4387 72.7946 26.4176 71.7989 26.6749ZM46.7432 37.1381C45.4582 37.6565 44.3796 38.6567 44.1576 39.8874C43.8189 41.2428 44.3728 42.7557 45.6421 43.6311C47.1222 44.6486 49.0485 45.0614 50.9076 45.2054C52.1746 45.2572 53.6681 45.2822 54.6144 44.4355C55.2513 43.9191 55.1953 43.0916 55.0316 42.4197C54.5696 40.6304 53.1927 39.1406 51.6992 37.883C50.3963 36.8252 48.3914 36.5929 46.7432 37.1381ZM81.1032 37.2053C79.2037 38.1461 77.8874 39.7837 76.9612 41.454C76.4903 42.4542 76.0978 43.8845 77.2886 44.641C78.605 45.432 80.3429 45.2745 81.8522 45.0941C83.7875 44.7274 86.0277 44.1764 87.0189 42.5579C88.3196 40.6707 87.2679 37.8389 84.7921 37.1305C83.6148 36.7522 82.2468 36.7177 81.1032 37.2053ZM64.9121 40.2176C62.5978 40.8896 60.5168 42.0875 58.7497 43.5236C57.1597 44.7466 55.6101 46.077 54.6391 47.732C53.6905 49.4234 53.3609 51.4911 54.3364 53.2324C55.4935 55.5957 58.7609 57.0203 61.6717 56.4251C63.0979 56.1602 64.1519 55.2425 65.2754 54.5129C65.5355 54.3171 65.9482 54.2326 66.2464 54.4246C67.278 55.014 68.1077 55.876 69.3052 56.2408C72.4358 57.2948 76.2907 55.661 77.4142 52.9847C78.3516 51.2011 77.8358 49.1296 76.8356 47.4536C75.3802 45.2688 73.1781 43.5198 70.8234 42.0511C69.0608 41.095 67.1367 39.7875 64.9121 40.2176Z" fill="#EB7859"/>
<path d="M56.8413 26.6038C58.5164 26.3005 60.4114 26.5558 61.6806 27.6002C63.3199 28.9077 63.7819 30.937 63.7976 32.782C63.82 34.3409 63.7482 36.088 62.5261 37.3455C61.7995 38.1441 60.4674 38.027 59.4561 37.789C57.2561 37.0076 55.4464 35.5619 54.083 33.9147C53.2375 32.7916 52.5917 31.4035 53.0335 30.0615C53.4214 28.4219 54.9418 27.0166 56.8413 26.6038Z" fill="white"/>
<path d="M71.7989 26.6749C72.7946 26.4176 73.8732 26.4387 74.8824 26.623C77.1653 27.1184 78.7059 29.1073 78.7507 31.0694C78.5938 33.189 76.8625 34.8842 75.1044 36.2416C73.6692 37.2418 71.8976 38.2689 69.9466 37.8811C68.9262 37.4856 68.4194 36.5391 68.1346 35.6637C67.7018 34.0356 67.7646 32.3308 68.0875 30.6912C68.2423 29.785 68.7558 28.9614 69.303 28.1896C69.9399 27.4966 70.8369 26.9782 71.7989 26.6749Z" fill="white"/>
<path d="M46.7432 37.1381C48.3915 36.5929 50.3963 36.8252 51.6992 37.883C53.1927 39.1405 54.5696 40.6304 55.0316 42.4197C55.1953 43.0916 55.2514 43.9191 54.6145 44.4355C53.6681 45.2822 52.1746 45.2572 50.9076 45.2054C49.0485 45.0614 47.1222 44.6486 45.6421 43.6311C44.3729 42.7556 43.819 41.2428 44.1576 39.8874C44.3796 38.6567 45.4583 37.6565 46.7432 37.1381Z" fill="white"/>
<path d="M81.1031 37.2053C82.2468 36.7177 83.6148 36.7522 84.7921 37.1305C87.2678 37.8389 88.3196 40.6707 87.0189 42.5579C86.0277 44.1764 83.7874 44.7274 81.8521 45.0941C80.3429 45.2745 78.605 45.4319 77.2886 44.641C76.0978 43.8845 76.4903 42.4542 76.9612 41.454C77.8874 39.7837 79.2037 38.1461 81.1031 37.2053Z" fill="white"/>
<path d="M64.9121 40.2176C67.1367 39.7876 69.0608 41.095 70.8234 42.0511C73.178 43.5198 75.3802 45.2688 76.8356 47.4536C77.8358 49.1296 78.3515 51.2012 77.4142 52.9847C76.2907 55.661 72.4358 57.2948 69.3052 56.2408C68.1077 55.876 67.278 55.014 66.2464 54.4246C65.9481 54.2326 65.5355 54.3171 65.2754 54.5129C64.1519 55.2425 63.0979 56.1602 61.6717 56.4251C58.7609 57.0203 55.4935 55.5957 54.3364 53.2324C53.3609 51.4911 53.6905 49.4234 54.6391 47.732C55.6101 46.077 57.1597 44.7466 58.7496 43.5236C60.5168 42.0876 62.5978 40.8896 64.9121 40.2176Z" fill="white"/>
<path d="M56.1035 78.5401C57.1821 78.2175 58.3909 79.1333 58.1173 80.0913C57.9312 81.0167 56.5453 81.4736 55.655 80.9533C54.5853 80.3985 54.841 78.7666 56.1035 78.5401Z" fill="#4A3B34"/>
<path d="M97.0318 79.6939C97.8257 79.4673 98.7742 79.2581 99.5345 79.6824C99.9538 79.9185 99.9314 80.3985 99.9381 80.7805C99.9202 83.5605 99.9538 86.3405 99.9202 89.1224C99.0232 89.2491 98.0409 89.3527 97.2381 88.8977C97.1484 88.4984 97.0385 88.0972 97.043 87.6901C97.0408 85.0234 97.0654 82.3587 97.0318 79.6939Z" fill="#4A3B34"/>
<path d="M101.947 79.5902C102.831 79.4194 103.802 79.3368 104.618 79.7438C105.094 81.2797 104.717 82.8982 104.865 84.4667C105.888 83.5951 106.798 82.6255 107.856 81.7885C108.803 81.6272 110.092 82.3721 109.738 83.2937C109.305 84.2305 108.103 84.6395 107.419 85.4151C107.41 85.6628 107.711 85.7952 107.87 85.9699C108.619 86.5805 109.341 87.2159 110.079 87.838C109.947 88.3986 109.695 89.0629 108.94 89.1819C107.868 89.4564 106.98 88.7115 106.41 88.0319C105.899 87.5001 105.43 86.9356 104.86 86.4461C104.836 87.3311 104.851 88.2162 104.831 89.0993C103.854 89.2356 102.459 89.4833 101.943 88.5215C101.956 85.5437 101.947 82.566 101.947 79.5902Z" fill="#4A3B34"/>
<path d="M14.3454 80.41C16.0609 79.6997 18.1129 79.7016 19.9495 80.0433C21.7278 80.3371 23.2325 81.5658 23.6317 83.0806C24.0825 84.7297 23.8761 86.6554 22.5261 87.9705C21.2031 89.1934 19.1175 89.5083 17.254 89.4219C16.3435 89.3355 15.3658 89.2856 14.5719 88.8574C13.9283 88.3852 14.1144 87.573 14.0987 86.9299C14.0898 85.5226 14.083 84.1154 14.101 82.7081C14.1683 81.9517 13.87 81.0877 14.3454 80.41ZM17.0835 81.9402C17.0813 83.7583 17.0723 85.5745 17.0925 87.3926C18.3573 87.6134 20.0459 87.3657 20.5056 86.1735C20.9497 84.9659 21.0012 83.3762 19.8418 82.4374C19.0928 81.8384 18.0254 81.9286 17.0835 81.9402Z" fill="#4A3B34"/>
<path d="M72.3147 80.5079C73.0211 80.1393 73.9159 79.8225 74.7209 80.1662C75.5731 80.4215 75.4677 81.3277 75.6381 81.9421C76.0081 83.6239 76.1001 85.3594 76.654 87.0048C77.0083 85.4036 77.5084 83.8274 77.9165 82.2358C78.8562 82.0553 79.9438 81.9152 80.7937 82.4028C81.5001 83.8735 81.7423 85.4785 82.3567 86.9798C82.8366 84.7777 83.0474 82.5372 83.3188 80.3121C84.0992 80.0203 85.0478 79.8628 85.8057 80.2967C86.3238 80.5444 86.2004 81.1319 86.1847 81.5562C85.8842 83.8639 85.4514 86.1754 84.6643 88.4024C84.4535 89.1051 83.4444 89.1224 82.7581 89.2222C81.9688 89.2395 80.8744 89.2261 80.4663 88.5387C80.0267 87.5001 79.7778 86.4115 79.3854 85.3613C79.0131 86.519 78.753 87.6998 78.3583 88.8517C77.1115 89.3777 75.5955 89.3624 74.4025 88.7365C74.185 88.2642 73.9562 87.7938 73.8217 87.2985C73.1534 85.0657 72.6511 82.7945 72.3147 80.5079Z" fill="#4A3B34"/>
<path d="M28.1123 81.8403C29.8234 81.4678 31.8865 81.775 33.0302 83.0076C34.425 84.5588 34.3443 87.0412 32.7185 88.4504C30.7764 89.9153 27.2983 89.7482 25.7734 87.8821C24.8158 86.6285 24.7642 84.9447 25.5087 83.6066C26.0066 82.7177 27.009 82.0841 28.1123 81.8403ZM28.8008 83.787C27.7513 84.434 27.7737 85.7837 28.1998 86.7225C28.5653 87.6018 30.1799 87.7362 30.6979 86.9068C31.1778 86.1178 31.2048 85.1041 30.754 84.3016C30.4333 83.668 29.4803 83.4971 28.8008 83.787Z" fill="#4A3B34"/>
<path d="M36.8043 82.3491C38.3696 81.5562 40.4148 81.5735 42.0428 82.23C42.6147 82.4892 43.3413 82.8406 43.3547 83.4684C43.3861 85.323 43.3592 87.1795 43.3637 89.0341C43.3996 90.0996 42.5564 91.0922 41.4329 91.5088C40.056 92.0118 38.4772 92.0367 37.0443 91.7046C36.5688 91.5836 36.0531 91.4109 35.8266 91.0038C35.5552 90.4644 35.7167 89.8538 36.0889 89.3835C37.2999 89.8788 38.7665 90.2148 40.0492 89.7099C40.5762 89.5313 40.6749 89.0053 40.7511 88.5848C39.6366 88.8536 38.4279 88.988 37.3291 88.5887C35.7234 88.124 34.9879 86.5594 35.0888 85.2039C35.0417 84.0789 35.6629 82.9385 36.8043 82.3491ZM38.2866 84.2037C37.726 84.9006 37.9121 85.8509 38.327 86.5709C39.0491 86.928 39.9035 86.976 40.6502 86.64C40.6345 85.7357 40.6256 84.8296 40.6525 83.9253C39.89 83.622 38.854 83.5874 38.2866 84.2037Z" fill="#4A3B34"/>
<path d="M46.7836 82.2704C48.3533 81.5639 50.3155 81.5869 51.9055 82.2397C52.4706 82.4893 53.1254 82.8271 53.1792 83.4319C53.2375 85.2366 53.1815 87.0432 53.2061 88.8478C53.2577 89.8443 52.6567 90.881 51.605 91.3494C50.0778 92.0598 48.1829 92.0828 46.5571 91.6163C45.9022 91.4454 45.5502 90.9347 45.4268 90.3876C45.6062 90.0823 45.5703 89.6158 45.9807 89.4545C47.2164 89.8308 48.6157 90.234 49.885 89.7079C50.4434 89.5332 50.4792 88.9765 50.5824 88.5522C49.2301 88.9822 47.6155 88.9746 46.4046 88.245C45.29 87.5692 44.8438 86.3386 44.9267 85.2116C44.8819 84.0405 45.5524 82.8329 46.7836 82.2704ZM47.9721 84.4245C47.6447 85.0619 47.6604 85.8644 48.1223 86.448C48.7121 87.0125 49.6585 86.9453 50.4052 86.6803C50.4142 85.7492 50.468 84.8161 50.3873 83.8888C49.6091 83.5548 48.3488 83.6508 47.9721 84.4245Z" fill="#4A3B34"/>
<path d="M55.1055 81.9594C55.9667 81.7117 56.922 81.6464 57.745 82.0266C57.8773 82.3721 58.0006 82.7273 57.9804 83.0978C57.9647 85.1022 57.9827 87.1065 57.9737 89.1109C57.0857 89.2491 56.1124 89.3508 55.3163 88.9016C55.2042 88.5042 55.0853 88.1029 55.1055 87.6921C55.1123 85.7799 55.1145 83.8696 55.1055 81.9594Z" fill="#4A3B34"/>
<path d="M60.7903 82.71C62.757 81.1472 66.6254 81.4909 67.6704 83.7563C67.9642 84.4533 68.2109 85.6474 67.0851 85.872C65.531 86.1677 63.9321 86.256 62.3691 86.519C62.6337 86.8646 62.9454 87.2179 63.4522 87.3062C64.6632 87.6748 65.9369 87.3043 67.1031 86.9952C67.3251 87.3868 67.722 87.8149 67.5045 88.2719C67.2712 89.0091 66.2868 89.2203 65.5176 89.3336C63.6271 89.635 61.3801 89.2203 60.2544 87.7785C59.1712 86.2387 59.2497 84.0098 60.7903 82.71ZM62.1448 84.9563C63.1876 84.8334 64.2281 84.7048 65.2642 84.5473C64.9839 84.1019 64.5982 83.574 63.9075 83.6604C62.9768 83.5567 62.2502 84.1998 62.1448 84.9563Z" fill="#4A3B34"/>
<path d="M87.8307 82.6735C88.1649 81.9882 89.1314 81.8653 89.8871 81.7616C91.4031 81.6311 93.1522 81.6272 94.3542 82.5526C95.0584 83.0518 95.2557 83.8773 95.2064 84.626C95.1593 85.7972 95.2804 86.976 95.1526 88.1413C94.7243 88.8517 93.7532 89.1473 92.8876 89.2875C91.3964 89.5332 89.7391 89.5025 88.3891 88.8459C86.8934 88.1106 86.8552 85.9258 88.3936 85.2154C89.6562 84.6894 91.1048 84.7854 92.4593 84.5781C92.3875 84.3707 92.3203 84.1634 92.2575 83.956C91.0331 83.4165 89.6046 83.6853 88.3667 84.0424C87.75 83.8696 87.7298 83.1324 87.8307 82.6735ZM90.089 86.5018C90.0755 86.6765 90.0486 87.0259 90.0351 87.2025C90.7415 87.6537 91.6475 87.5097 92.4526 87.3811C92.4436 86.9779 92.4369 86.5747 92.4346 86.1715C91.6385 86.1792 90.8357 86.2522 90.089 86.5018Z" fill="#4A3B34"/>
<path d="M111.355 83.3685C111.734 82.2723 113.156 81.8058 114.373 81.7251C115.512 81.6618 116.813 81.6848 117.726 82.3548C118.266 82.8348 118.029 83.5375 117.728 84.0654C116.526 83.8427 115.172 83.3378 114.01 83.9387C114.019 84.0366 114.039 84.2325 114.048 84.3323C115.212 84.7815 116.6 84.7623 117.627 85.4746C118.668 86.1658 118.724 87.5941 117.923 88.4427C117.033 89.2798 115.622 89.4449 114.369 89.4276C113.375 89.3604 112.229 89.2644 111.536 88.5733C111.077 88.0568 111.308 87.3042 111.824 86.878C112.992 87.3388 114.429 87.7631 115.649 87.1891C115.589 86.9433 115.636 86.6054 115.255 86.5613C114.147 86.2522 112.864 86.233 111.949 85.538C111.193 85.0292 111.18 84.1038 111.355 83.3685Z" fill="#4A3B34"/>
<path d="M10.4861 96.5657C10.6543 96.5503 10.9884 96.5215 11.1544 96.5062C11.1656 97.1436 11.1701 97.781 11.1588 98.4184C12.0334 98.4625 12.908 98.4568 13.7826 98.4376C13.7781 97.7829 13.7804 97.1282 13.7961 96.4755C13.9508 96.5004 14.2558 96.5484 14.4105 96.5715C14.4733 98.0306 14.4284 99.4935 14.4262 100.955C14.267 100.953 13.9508 100.951 13.7916 100.951C13.7848 100.246 13.7826 99.5434 13.7871 98.8407C12.9125 98.8254 12.0379 98.8273 11.1633 98.8465C11.1387 99.6528 11.2373 100.465 11.105 101.267C11.0781 101.171 11.022 100.979 10.9951 100.885L10.4928 100.947C10.5085 99.4858 10.5197 98.0248 10.4861 96.5657Z" fill="#4A3B34"/>
<path d="M17.1643 96.5465C18.1891 96.5177 19.214 96.5273 20.2388 96.5427C20.2433 96.6367 20.25 96.8249 20.2523 96.9209C19.4517 96.9132 18.6511 96.9132 17.8505 96.9074C17.8326 97.4124 17.8281 97.9192 17.8259 98.4241C18.4672 98.4529 19.1108 98.428 19.7522 98.4721C19.8172 98.5508 19.9495 98.7083 20.0146 98.787C19.288 98.8407 18.5592 98.835 17.8326 98.8369C17.8348 99.409 17.8348 99.9811 17.8348 100.555C18.6197 100.569 19.4068 100.528 20.1895 100.588C20.2164 100.678 20.268 100.86 20.2926 100.951C19.2521 100.949 18.2116 100.955 17.1733 100.928C17.1822 99.4666 17.1957 98.0056 17.1643 96.5465Z" fill="#4A3B34"/>
<path d="M22.7459 96.5619C22.9096 96.5503 23.2348 96.5234 23.3962 96.51C23.4119 97.8558 23.4232 99.2017 23.3895 100.549C24.1565 100.567 24.9256 100.524 25.6903 100.59C25.7217 100.672 25.78 100.837 25.8114 100.92C24.7911 100.958 23.7707 100.955 22.7526 100.93C22.7549 99.4743 22.7661 98.0171 22.7459 96.5619Z" fill="#4A3B34"/>
<path d="M27.8992 96.5868C28.8411 96.5273 29.8973 96.4025 30.7315 96.8729C31.5052 97.3087 31.4581 98.38 30.7271 98.8254C30.0991 99.217 29.2918 99.1997 28.554 99.2554C28.5653 99.8218 28.5697 100.388 28.5653 100.954C28.4016 100.953 28.0741 100.947 27.9127 100.945C27.9172 99.4916 27.9217 98.0401 27.8992 96.5868ZM28.5563 96.9285C28.5675 97.564 28.5697 98.2014 28.5675 98.8388C29.1752 98.8081 29.8906 98.929 30.3795 98.5393C30.7988 98.2033 30.5858 97.6754 30.5611 97.253C29.9713 96.8863 29.2492 96.8805 28.5563 96.9285Z" fill="#4A3B34"/>
<path d="M37.1273 96.5311C37.2842 96.533 37.5959 96.5388 37.7507 96.5407C37.8897 97.6216 37.6856 98.7179 37.8493 99.7968C38.0175 100.805 39.9528 100.86 40.2018 99.8755C40.4193 98.7735 40.2758 97.6446 40.3004 96.5311C40.4574 96.5311 40.7736 96.5292 40.9306 96.5273C40.8588 97.6638 41.0965 98.8311 40.7826 99.9446C40.2713 101.327 37.5219 101.244 37.2125 99.7891C37.0465 98.7102 37.1856 97.6159 37.1273 96.5311Z" fill="#4A3B34"/>
<path d="M43.3906 97.2722C44.1374 96.366 45.5748 96.4102 46.667 96.7615C46.5705 96.894 46.4718 97.0284 46.3732 97.1628C45.6511 96.8633 44.698 96.7462 44.0611 97.2511C44.0679 97.42 44.0791 97.756 44.0858 97.925C44.8348 98.4068 45.835 98.5335 46.5055 99.1057C46.9405 99.6029 46.649 100.215 46.2521 100.649C45.2519 101.081 44.1037 100.978 43.0946 100.632C43.1888 100.532 43.3749 100.332 43.4691 100.233C44.0454 100.419 44.633 100.682 45.2699 100.54C45.9179 100.501 46.3552 99.7546 45.8709 99.338C45.2654 98.8273 44.3213 98.7793 43.6956 98.2897C43.3973 98.0152 43.4467 97.6158 43.3906 97.2722Z" fill="#4A3B34"/>
<path d="M52.8271 96.5292C52.9931 96.5292 53.325 96.5292 53.4909 96.5292C53.4887 97.1666 53.4887 97.8059 53.4887 98.4452C54.3678 98.4529 55.2468 98.4529 56.1259 98.4318C56.1102 97.7982 56.1102 97.1647 56.108 96.5311C56.2739 96.5369 56.608 96.5465 56.7762 96.5522C56.7762 98.0017 56.7583 99.4532 56.7852 100.903C56.6193 100.92 56.2874 100.951 56.1214 100.968C56.108 100.26 56.108 99.553 56.1124 98.8484C55.2379 98.8292 54.3633 98.8311 53.4887 98.8388C53.4932 99.5396 53.4864 100.242 53.4864 100.945C53.3227 100.945 52.9953 100.945 52.8316 100.945C52.8428 99.4724 52.8428 97.9998 52.8271 96.5292Z" fill="#4A3B34"/>
<path d="M59.5278 96.5407C60.5616 96.5158 61.5954 96.5177 62.6292 96.5523C62.5888 96.6367 62.5104 96.8038 62.4722 96.8863C61.712 96.9458 60.9473 96.9017 60.1871 96.9094C60.1894 97.4162 60.1871 97.923 60.1759 98.4318C60.9383 98.4683 61.7457 98.3454 62.4633 98.6276C61.7771 98.9847 60.9406 98.7889 60.1804 98.8369C60.1826 99.4052 60.1826 99.9754 60.1826 100.546C60.9608 100.574 61.7524 100.501 62.5261 100.611C62.5664 100.684 62.6516 100.834 62.692 100.908C61.638 100.966 60.5795 100.951 59.5233 100.939C59.539 99.4743 59.5368 98.0075 59.5278 96.5407Z" fill="#4A3B34"/>
<path d="M64.9817 96.5638C65.1498 96.5522 65.4862 96.5254 65.6544 96.5119C65.6567 97.8539 65.6701 99.1959 65.6454 100.54C66.5155 100.609 67.4484 100.411 68.2625 100.751C67.2376 101.141 66.0648 100.889 64.9772 100.916C65.0175 99.4666 65.0063 98.0152 64.9817 96.5638Z" fill="#4A3B34"/>
<path d="M70.2336 96.5811C71.1553 96.5312 72.1622 96.4064 72.9942 96.8422C73.6714 97.207 73.8306 98.092 73.2857 98.6027C72.7049 99.2382 71.6621 99.1863 70.8189 99.267C70.8212 99.818 70.8548 100.371 70.9288 100.922C70.7562 100.93 70.4108 100.947 70.2381 100.955C70.2426 99.4973 70.2471 98.0402 70.2336 96.5811ZM70.8929 96.9209C70.8974 97.5602 70.8997 98.2014 70.8997 98.8427C71.5029 98.7985 72.2564 98.9444 72.7049 98.499C73.1041 98.1515 73.0233 97.5967 72.734 97.2165C72.2452 96.8095 71.5096 96.9363 70.8929 96.9209Z" fill="#4A3B34"/>
<path d="M80.9417 96.5542C81.1234 96.5446 81.4822 96.5273 81.6638 96.5196C82.294 97.8578 82.9264 99.1978 83.5767 100.528C83.7538 100.841 83.1977 100.826 82.9824 100.87C82.8591 100.448 82.6976 100.037 82.5451 99.626C81.7042 99.5933 80.8655 99.5952 80.0268 99.6164C79.8563 100.05 79.6702 100.48 79.4818 100.91C79.3024 100.851 79.1253 100.791 78.9481 100.732C79.5648 99.3226 80.3004 97.9538 80.9417 96.5542ZM80.2196 99.1901C80.9058 99.2247 81.5965 99.2285 82.2828 99.1882C81.915 98.4952 81.6862 97.7503 81.222 97.0956C80.9171 97.804 80.6255 98.5182 80.2196 99.1901Z" fill="#4A3B34"/>
<path d="M85.8349 96.5427C86.1466 96.5427 86.4606 96.5446 86.7768 96.5503C87.5145 97.7925 88.2815 99.0231 89.0843 100.235C89.1314 99.0039 89.0933 97.7714 89.1067 96.5427C89.2637 96.5427 89.5777 96.5465 89.7346 96.5465C89.7346 98.0075 89.7414 99.4685 89.7324 100.93C89.4207 100.928 89.1112 100.924 88.8018 100.92C88.0976 99.674 87.2768 98.4798 86.4987 97.2703C86.474 98.499 86.4964 99.7296 86.4763 100.96C86.317 100.945 85.9964 100.916 85.8349 100.901C85.8618 99.4474 85.8618 97.9941 85.8349 96.5427Z" fill="#4A3B34"/>
<path d="M92.4997 96.5292C92.6634 96.5292 92.9908 96.5273 93.1545 96.5273C93.1433 98.0037 93.1545 99.48 93.1477 100.958C92.984 100.953 92.6589 100.945 92.4952 100.941C92.4974 99.4704 92.4929 97.9998 92.4997 96.5292Z" fill="#4A3B34"/>
<path d="M95.9285 96.5868C96.2469 96.5561 96.5653 96.5292 96.8883 96.5062C97.339 97.4296 97.8256 98.3396 98.2831 99.2612C98.994 98.4587 99.2766 97.445 99.7879 96.5465C100.109 96.535 100.431 96.5254 100.754 96.5196C100.734 97.9941 100.732 99.4685 100.759 100.943C100.597 100.943 100.279 100.943 100.12 100.943C100.111 99.7162 100.162 98.4875 100.077 97.2626C99.5928 98.1438 99.1196 99.0289 98.689 99.9312C98.5186 99.9312 98.1755 99.9312 98.0028 99.9312C97.5453 99.0365 97.0722 98.1476 96.6035 97.2587C96.5384 98.4913 96.5945 99.7258 96.5631 100.958C96.4061 100.949 96.0899 100.928 95.933 100.918C95.9419 99.4743 95.9576 98.0305 95.9285 96.5868Z" fill="#4A3B34"/>
<path d="M102.903 100.768C103.51 99.3303 104.273 97.9442 104.923 96.5215C105.103 96.5311 105.461 96.5523 105.641 96.5619C106.287 97.9519 106.957 99.3322 107.619 100.718C107.46 100.764 107.141 100.857 106.982 100.903C106.834 100.488 106.67 100.077 106.54 99.6605C105.695 99.5722 104.842 99.6029 103.995 99.6068C103.818 100.033 103.638 100.459 103.459 100.885C103.273 100.845 103.087 100.807 102.903 100.768ZM104.255 99.1882C104.91 99.2151 105.569 99.2228 106.226 99.2286C105.912 98.524 105.596 97.8194 105.307 97.1071C104.793 97.733 104.589 98.4894 104.255 99.1882Z" fill="#4A3B34"/>
<path d="M109.792 96.5234C109.958 96.5273 110.29 96.5369 110.456 96.5426C110.447 97.8827 110.456 99.2247 110.451 100.567C111.218 100.572 111.996 100.496 112.759 100.609C112.799 100.684 112.884 100.834 112.925 100.908C111.882 100.966 110.839 100.947 109.796 100.945C109.801 99.4704 109.805 97.996 109.792 96.5234Z" fill="#4A3B34"/>
<path d="M115.658 96.654C116.486 96.3641 117.407 96.5542 118.183 96.8748C117.329 97.3355 116.176 96.5004 115.412 97.2588C115.407 97.4143 115.398 97.7253 115.394 97.8808C116.062 98.3512 116.943 98.4932 117.629 98.929C118.354 99.3879 118.141 100.465 117.311 100.728C116.445 101.116 115.447 100.914 114.571 100.676C114.642 100.511 114.721 100.348 114.804 100.187C115.551 100.599 116.963 100.88 117.383 99.9965C117.578 98.6334 115.113 99.0231 114.799 97.8731C114.584 97.3432 115.084 96.8076 115.658 96.654Z" fill="#4A3B34"/>
</svg>
