<svg width="71" height="69" viewBox="0 0 71 69" fill="none" xmlns="http://www.w3.org/2000/svg">
<g clip-path="url(#clip0)">
<rect y="2.90979" width="68.2574" height="65.4171" transform="rotate(-2.44324 0 2.90979)" fill="white"/>
<path d="M26.7507 28.2865C27.8541 28.2395 28.712 27.344 28.6669 26.2865C28.6218 25.229 27.6907 24.4099 26.5873 24.457C25.4838 24.5041 24.6259 25.3995 24.6711 26.457C24.7162 27.5145 25.6473 28.3336 26.7507 28.2865Z" fill="#2A7CF7"/>
<path d="M44.3969 43.8106C45.5003 43.7635 46.3582 42.868 46.3131 41.8105C46.268 40.753 45.3369 39.9339 44.2335 39.981C43.1301 40.0281 42.2722 40.9235 42.3173 41.981C42.3624 43.0385 43.2935 43.8576 44.3969 43.8106Z" fill="#2A7CF7"/>
<path d="M64.7637 32.8847L67.5406 23.8581C67.7916 23.0422 67.4528 22.1674 66.7083 21.7087L58.4727 16.6344L55.1845 7.79019C54.8877 6.99194 54.0758 6.47489 53.1941 6.52581L43.4019 7.06077L35.308 1.78358C34.5778 1.30742 33.6064 1.34887 32.9195 1.88549L25.3052 7.83293L15.5034 8.13351C14.6205 8.15954 13.8557 8.74208 13.6278 9.56284L11.1048 18.6549L3.33096 24.4124C2.62821 24.9328 2.36533 25.8334 2.68479 26.6248L6.22039 35.3827L3.44363 44.4093C3.19262 45.2252 3.53138 46.1 4.27591 46.5587L12.5116 51.633L15.7996 60.4772C16.0964 61.2755 16.9075 61.7881 17.79 61.7416L27.5822 61.2067L35.6761 66.4839C36.0412 66.7219 36.4666 66.8306 36.8865 66.8127C37.3065 66.7947 37.7212 66.6503 38.0645 66.382L45.679 60.4346L55.4808 60.1341C56.3654 60.1092 57.1287 59.5256 57.3564 58.7047L59.8794 49.6127L67.6531 43.8551C68.3559 43.3347 68.6188 42.4342 68.2994 41.6428L64.7637 32.8847ZM20.6752 26.6275C20.5401 23.4601 23.1189 20.7685 26.4238 20.6274C29.7288 20.4864 32.5275 22.9486 32.6627 26.116C32.7978 29.2834 30.219 31.9751 26.9141 32.1161C23.6091 32.2571 20.8104 29.7949 20.6752 26.6275ZM27.0262 45.7985C26.652 46.189 26.1486 46.3979 25.6374 46.4197C25.1262 46.4415 24.6068 46.2763 24.2008 45.919C23.3887 45.2047 23.337 43.9922 24.0853 43.2112L43.9582 22.4691C44.7064 21.6881 45.9715 21.6341 46.7836 22.3485C47.5958 23.0629 47.6475 24.2753 46.8992 25.0564L27.0262 45.7985ZM44.5602 47.6401C41.2553 47.7811 38.4566 45.319 38.3214 42.1515C38.1863 38.9841 40.7651 36.2925 44.07 36.1515C47.375 36.0105 50.1737 38.4726 50.3089 41.6401C50.444 44.8075 47.8652 47.4991 44.5602 47.6401Z" fill="#2A7CF7"/>
<ellipse cx="36.2721" cy="36.0726" rx="22.2881" ry="20.4921" transform="rotate(-2.44324 36.2721 36.0726)" fill="#2A7CF7"/>
<path d="M20.1277 26.1413C21.6853 25.6981 22.9092 25.6794 23.7993 26.0852C24.687 26.4803 25.2527 27.2055 25.4967 28.261C25.6519 28.9326 25.6292 29.5867 25.4286 30.2232C25.228 30.8597 24.8384 31.4307 24.2598 31.9362C23.6812 32.4417 22.9131 32.8307 21.9553 33.1031C21.166 33.3277 20.3771 33.4328 19.5887 33.4185C18.7978 33.3936 18.103 33.2504 17.5042 32.989L17.9992 31.1269C18.4884 31.3513 19.0406 31.4839 19.6558 31.5247C20.279 31.552 20.8958 31.4787 21.5062 31.3051C22.2323 31.0985 22.7662 30.7875 23.1076 30.3723C23.4571 29.9433 23.5703 29.4623 23.4471 28.9293C23.3141 28.3536 22.988 27.9862 22.469 27.8271C21.9579 27.6544 21.1604 27.7222 20.0764 28.0306L17.4085 28.7896L16.5688 22.5352L23.057 20.6893L23.4598 22.4323L18.7081 23.7842L19.07 26.4422L20.1277 26.1413ZM32.1216 30.2108C31.2375 30.4623 30.3965 30.463 29.5984 30.2129C28.7978 29.9521 28.0978 29.4468 27.4983 28.697C26.8964 27.9366 26.4574 26.9594 26.1815 25.7653C25.9055 24.5713 25.8677 23.4857 26.0681 22.5083C26.266 21.5204 26.6605 20.7037 27.2516 20.0583C27.8403 19.4023 28.5766 18.9485 29.4607 18.697C30.3447 18.4455 31.187 18.4501 31.9876 18.7109C32.7962 18.9581 33.5014 19.4618 34.1034 20.2223C34.7029 20.972 35.1406 21.9439 35.4165 23.1379C35.6925 24.332 35.7315 25.423 35.5336 26.4109C35.3333 27.3883 34.9335 28.2064 34.3343 28.8655C33.7432 29.5108 33.0056 29.9593 32.1216 30.2108ZM31.704 28.4038C32.4933 28.1792 33.0378 27.6721 33.3376 26.8823C33.6479 26.0896 33.6516 25.0376 33.3485 23.7263C33.0455 22.415 32.586 21.4947 31.9702 20.9655C31.3649 20.4333 30.6676 20.2794 29.8783 20.504C29.0995 20.7256 28.5549 21.2327 28.2446 22.0254C27.9448 22.8152 27.9465 23.8657 28.2495 25.177C28.5526 26.4883 29.0067 27.41 29.612 27.9423C30.2278 28.4715 30.9252 28.6253 31.704 28.4038ZM39.3659 22.4745C38.5766 22.6991 37.8745 22.5977 37.2599 22.1704C36.6452 21.7431 36.2319 21.071 36.02 20.1542C35.8081 19.2374 35.8789 18.4275 36.2325 17.7248C36.586 17.022 37.1574 16.5584 37.9467 16.3338C38.7361 16.1092 39.4381 16.2106 40.0528 16.6379C40.6755 17.0515 41.0941 17.7221 41.3084 18.6496C41.5228 19.5771 41.4479 20.3937 41.0839 21.0995C40.7279 21.7916 40.1552 22.2499 39.3659 22.4745ZM44.6029 14.5594L46.15 14.1192L41.191 27.4601L39.644 27.9002L44.6029 14.5594ZM39.1072 21.3551C39.5387 21.2323 39.8308 20.9674 39.9835 20.5604C40.1467 20.1504 40.1568 19.6362 40.0139 19.0179C39.871 18.3996 39.6391 17.9542 39.3182 17.682C39.0079 17.4067 38.6369 17.3304 38.2054 17.4532C37.795 17.57 37.5041 17.8402 37.3329 18.2639C37.1696 18.6739 37.1582 19.1827 37.2987 19.7904C37.4391 20.3981 37.671 20.8434 37.9944 21.1263C38.3258 21.3956 38.6967 21.4719 39.1072 21.3551ZM47.8314 25.6902C47.0421 25.9147 46.3401 25.8134 45.7254 25.3861C45.1107 24.9588 44.6974 24.2867 44.4855 23.3699C44.2736 22.453 44.3445 21.6432 44.698 20.9404C45.0515 20.2377 45.623 19.774 46.4123 19.5495C47.2016 19.3249 47.9036 19.4263 48.5183 19.8536C49.1435 20.2779 49.5621 20.9484 49.774 21.8653C49.9859 22.7821 49.9098 23.5934 49.5457 24.2992C49.1922 25.0019 48.6207 25.4656 47.8314 25.6902ZM47.5727 24.5708C47.9937 24.451 48.2858 24.1861 48.449 23.7761C48.6098 23.3554 48.6199 22.8412 48.4795 22.2336C48.3391 21.6259 48.1084 21.1859 47.7875 20.9136C47.4641 20.6307 47.092 20.5491 46.671 20.6689C46.25 20.7886 45.9579 21.0535 45.7947 21.4635C45.6315 21.8735 45.6213 22.3877 45.7642 23.0061C45.9071 23.6244 46.139 24.0697 46.4599 24.342C46.7808 24.6143 47.1518 24.6905 47.5727 24.5708ZM18.2018 45.4696C17.7002 45.6124 17.2184 45.6297 16.7564 45.5216C16.2982 45.4072 15.9075 45.185 15.5845 44.8551C15.2663 44.5238 15.0502 44.1114 14.9362 43.6179C14.8221 43.1244 14.8327 42.6475 14.968 42.1872C15.108 41.7256 15.3547 41.3247 15.7079 40.9847C16.0649 40.6383 16.4941 40.3938 16.9958 40.2511C17.4975 40.1084 17.9744 40.0925 18.4268 40.2033C18.8839 40.3128 19.2745 40.535 19.5986 40.8698C19.9216 41.1997 20.1402 41.6114 20.2542 42.1049C20.3683 42.5984 20.3558 43.0784 20.2169 43.545C20.0768 44.0067 19.8302 44.4075 19.4769 44.7476C19.1285 45.0862 18.7035 45.3269 18.2018 45.4696ZM18.09 44.9859C18.4904 44.872 18.8313 44.6787 19.1127 44.4059C19.393 44.1283 19.5875 43.8022 19.6962 43.4275C19.8039 43.048 19.8114 42.6579 19.7188 42.2572C19.6262 41.8566 19.451 41.5211 19.1932 41.2507C18.9342 40.9755 18.6223 40.7934 18.2573 40.7046C17.8912 40.6109 17.508 40.6209 17.1076 40.7349C16.7072 40.8488 16.3645 41.0452 16.0794 41.3242C15.798 41.5969 15.6011 41.9238 15.4886 42.3047C15.3798 42.6793 15.3718 43.067 15.4644 43.4676C15.557 43.8683 15.7327 44.2063 15.9917 44.4815C16.2543 44.7505 16.5687 44.9318 16.9348 45.0256C17.3046 45.113 17.6897 45.0998 18.09 44.9859ZM22.034 38.9662C21.8121 39.0293 21.6574 39.1384 21.5698 39.2935C21.4871 39.4472 21.4734 39.6438 21.5288 39.8832L21.6338 40.3376L22.8059 40.0042L22.9075 40.4439L21.7499 40.7733L22.5392 44.1888L22.0255 44.3349L21.2362 40.9194L20.556 41.1129L20.4544 40.6732L21.1345 40.4797L21.0244 40.0033C20.9431 39.6514 20.9776 39.3448 21.128 39.0833C21.2831 38.8204 21.544 38.6369 21.9106 38.5326C22.0553 38.4914 22.2003 38.4736 22.3455 38.4791C22.4896 38.4798 22.6165 38.5062 22.7262 38.5583L22.6424 38.9962C22.4635 38.9117 22.2607 38.9017 22.034 38.9662ZM24.4858 38.2686C24.2639 38.3317 24.1092 38.4408 24.0217 38.5959C23.939 38.7496 23.9253 38.9462 23.9806 39.1856L24.0856 39.6401L25.2578 39.3066L25.3594 39.7464L24.2017 40.0757L24.9911 43.4912L24.4773 43.6374L23.688 40.2219L23.0079 40.4154L22.9063 39.9756L23.5864 39.7821L23.4763 39.3057C23.395 38.9539 23.4295 38.6472 23.5798 38.3857C23.735 38.1229 23.9959 37.9393 24.3625 37.835C24.5072 37.7938 24.6522 37.776 24.7974 37.7816C24.9415 37.7822 25.0684 37.8086 25.1781 37.8607L25.0942 38.2986C24.9153 38.2141 24.7125 38.2041 24.4858 38.2686ZM28.3027 37.5811L28.7685 39.5966L31.3877 38.8515L31.4961 39.3205L28.8769 40.0657L29.38 42.2426L28.8446 42.3949L27.6589 37.2643L31.1319 36.2762L31.2403 36.7453L28.3027 37.5811ZM34.7516 40.7534C34.385 40.8577 34.0354 40.8686 33.7028 40.7862C33.369 40.6989 33.0833 40.5302 32.8456 40.2802C32.6079 40.0301 32.4455 39.717 32.3586 39.3408C32.2716 38.9645 32.2781 38.6033 32.3781 38.2573C32.478 37.9112 32.6559 37.6132 32.9117 37.3633C33.1676 37.1135 33.4788 36.9364 33.8454 36.8321C34.212 36.7278 34.5616 36.7169 34.8943 36.7993C35.2269 36.8817 35.5097 37.0486 35.7425 37.3C35.9803 37.5501 36.1426 37.8632 36.2295 38.2395C36.3165 38.6157 36.31 38.9769 36.21 39.323C36.1149 39.6677 35.94 39.9674 35.6853 40.2221C35.4294 40.472 35.1182 40.6491 34.7516 40.7534ZM34.6449 40.2916C34.915 40.2148 35.1421 40.0851 35.3261 39.9025C35.5138 39.7137 35.6414 39.4873 35.7089 39.2234C35.7765 38.9594 35.7763 38.6808 35.7086 38.3877C35.6408 38.0945 35.5201 37.8502 35.3465 37.6549C35.1728 37.4595 34.9633 37.3317 34.718 37.2713C34.4764 37.2046 34.2206 37.2097 33.9504 37.2866C33.6803 37.3634 33.4514 37.4962 33.2637 37.685C33.0797 37.8676 32.9515 38.0915 32.8792 38.3568C32.8117 38.6208 32.8118 38.8994 32.8795 39.1925C32.9473 39.4857 33.068 39.73 33.2417 39.9253C33.4201 40.1193 33.6302 40.2496 33.8718 40.3163C34.1171 40.3767 34.3748 40.3685 34.6449 40.2916ZM37.4993 36.6284C37.5601 36.3351 37.6934 36.0889 37.8992 35.8897C38.1099 35.6892 38.3914 35.5388 38.7435 35.4386L38.8604 35.9443L38.7357 35.972C38.3353 36.0859 38.0506 36.2997 37.8814 36.6134C37.7123 36.9271 37.6797 37.3087 37.7836 37.7583L38.2375 39.7225L37.7238 39.8687L36.8329 36.0134L37.3249 35.8735L37.4993 36.6284ZM45.6771 32.138L46.8628 37.2686L46.4215 37.3942L42.2034 34.1574L43.1655 38.3205L42.6301 38.4729L41.4444 33.3423L41.8857 33.2167L46.111 36.4514L45.1489 32.2883L45.6771 32.138ZM51.313 34.12L48.1294 35.0257C48.251 35.4182 48.478 35.6999 48.8106 35.8709C49.142 36.037 49.5175 36.0603 49.9371 35.9409C50.1735 35.8737 50.381 35.7704 50.5595 35.631C50.737 35.4868 50.8789 35.3111 50.9852 35.1038L51.3525 35.3586C51.2311 35.6118 51.055 35.8286 50.8242 36.0088C50.5982 36.1877 50.3333 36.3203 50.0294 36.4068C49.6387 36.5179 49.2722 36.5337 48.9299 36.454C48.5913 36.3681 48.3032 36.2001 48.0654 35.9501C47.8277 35.7 47.6654 35.3869 47.5785 35.0106C47.4915 34.6344 47.4932 34.2746 47.5835 33.9313C47.6786 33.5865 47.8468 33.2913 48.0882 33.0456C48.3344 32.7985 48.6336 32.6248 48.9857 32.5247C49.3378 32.4245 49.673 32.4177 49.9911 32.5042C50.3093 32.5907 50.5824 32.7604 50.8105 33.0132C51.0374 33.2611 51.1949 33.5756 51.283 33.9567L51.313 34.12ZM49.089 32.9718C48.7224 33.0761 48.4414 33.2836 48.2459 33.5944C48.0541 33.8989 47.9853 34.2465 48.0397 34.6373L50.7385 33.8695C50.6166 33.4979 50.4032 33.2306 50.0982 33.0674C49.7968 32.898 49.4605 32.8661 49.089 32.9718ZM57.3983 30.1625L56.8494 34.4274L56.3646 34.5653L54.4335 31.7481L53.9624 35.2488L53.4777 35.3867L51.1541 31.939L51.6461 31.799L53.5971 34.7356L54.0627 31.1115L54.5041 30.9859L56.4768 33.9163L56.928 30.2963L57.3983 30.1625ZM25.25 54.8866C24.7483 55.0293 24.2689 55.046 23.8118 54.9365C23.3595 54.8256 22.9718 54.6052 22.6488 54.2753C22.3295 53.9391 22.1128 53.5243 21.9988 53.0308C21.8847 52.5373 21.8953 52.0604 22.0306 51.6001C22.1695 51.1335 22.4156 50.7302 22.7688 50.3902C23.1221 50.0501 23.5495 49.8088 24.0512 49.666C24.4274 49.559 24.7894 49.5237 25.1371 49.5602C25.4848 49.5966 25.7979 49.7055 26.0762 49.8866L25.8158 50.3279C25.3265 50.0349 24.7804 49.9741 24.1774 50.1457C23.7771 50.2596 23.4343 50.456 23.1493 50.735C22.8642 51.014 22.6648 51.3415 22.5512 51.7175C22.4425 52.0922 22.4344 52.4798 22.527 52.8805C22.6196 53.2812 22.7948 53.6167 23.0526 53.887C23.3152 54.156 23.632 54.3367 24.003 54.429C24.3739 54.5214 24.7595 54.5106 25.1599 54.3967C25.7676 54.2238 26.2195 53.8765 26.5153 53.3549L26.935 53.6027C26.7696 53.9101 26.5405 54.1758 26.2478 54.3996C25.9588 54.6172 25.6262 54.7796 25.25 54.8866ZM30.5436 49.2249L31.4346 53.0802L30.9426 53.2202L30.78 52.5166C30.6991 52.7895 30.5557 53.0256 30.3499 53.2248C30.1429 53.4191 29.8874 53.5594 29.5835 53.6459C29.0867 53.7872 28.6614 53.7598 28.3076 53.5636C27.9575 53.3612 27.7198 52.9888 27.5945 52.4464L27.0778 50.211L27.5916 50.0648L28.0963 52.249C28.1901 52.6545 28.3601 52.9342 28.6064 53.0881C28.8527 53.2419 29.1592 53.2667 29.5258 53.1624C29.9261 53.0485 30.2139 52.8364 30.3889 52.5263C30.5629 52.2112 30.599 51.8338 30.4974 51.394L30.0299 49.3711L30.5436 49.2249ZM33.902 52.4173C33.5933 52.5051 33.2865 52.5455 32.9816 52.5385C32.6804 52.5253 32.4343 52.4729 32.2435 52.3814L32.3802 51.9051C32.5688 51.9868 32.7932 52.0349 33.0536 52.0494C33.3129 52.0589 33.5727 52.0267 33.8332 51.9525C34.1805 51.8537 34.4237 51.7273 34.5629 51.5731C34.7057 51.4127 34.754 51.2323 34.7077 51.032C34.675 50.8903 34.6037 50.7934 34.494 50.7413C34.3832 50.6843 34.2533 50.6561 34.1044 50.6568C33.9543 50.6527 33.759 50.664 33.5185 50.6907C33.1962 50.7199 32.9342 50.732 32.7325 50.7269C32.5297 50.7169 32.3439 50.6578 32.1749 50.5496C32.0108 50.4401 31.8988 50.2558 31.839 49.9969C31.7645 49.6744 31.8361 49.3728 32.054 49.0921C32.2719 48.8114 32.6172 48.6038 33.0899 48.4693C33.3359 48.3993 33.5898 48.3635 33.8516 48.3619C34.1123 48.3554 34.3347 48.3833 34.5187 48.4455L34.3909 48.9271C34.0266 48.7964 33.6273 48.7929 33.1932 48.9164C32.8652 49.0097 32.6303 49.139 32.4886 49.3043C32.3517 49.4682 32.3053 49.6455 32.3493 49.836C32.3832 49.9826 32.4561 50.0869 32.5681 50.1487C32.6849 50.2092 32.8183 50.2416 32.9684 50.2458C33.1173 50.2451 33.3198 50.2317 33.576 50.2057C33.8934 50.1779 34.1506 50.1672 34.3474 50.1737C34.5443 50.1802 34.7242 50.2357 34.8872 50.3404C35.0502 50.445 35.1605 50.622 35.218 50.8712C35.296 51.2083 35.2182 51.5168 34.9847 51.7968C34.7549 52.0705 34.394 52.2773 33.902 52.4173ZM37.9775 51.2578C37.6109 51.3621 37.2612 51.373 36.9286 51.2906C36.5948 51.2033 36.3091 51.0346 36.0714 50.7846C35.8337 50.5346 35.6714 50.2214 35.5844 49.8452C35.4975 49.4689 35.504 49.1078 35.6039 48.7617C35.7038 48.4156 35.8817 48.1176 36.1376 47.8678C36.3934 47.6179 36.7047 47.4409 37.0713 47.3366C37.4378 47.2323 37.7875 47.2213 38.1201 47.3037C38.4527 47.3862 38.7355 47.5531 38.9684 47.8045C39.2061 48.0545 39.3684 48.3676 39.4554 48.7439C39.5423 49.1201 39.5358 49.4813 39.4359 49.8274C39.3408 50.1721 39.1658 50.4718 38.9111 50.7266C38.6553 50.9764 38.3441 51.1535 37.9775 51.2578ZM37.8707 50.796C38.1409 50.7192 38.3679 50.5895 38.5519 50.4069C38.7396 50.2182 38.8673 49.9918 38.9348 49.7278C39.0023 49.4638 39.0022 49.1853 38.9344 48.8921C38.8667 48.5989 38.746 48.3547 38.5723 48.1593C38.3986 47.964 38.1891 47.8361 37.9439 47.7757C37.7023 47.709 37.4464 47.7141 37.1763 47.791C36.9061 47.8678 36.6772 48.0007 36.4895 48.1895C36.3055 48.372 36.1773 48.5959 36.105 48.8613C36.0375 49.1252 36.0376 49.4038 36.1054 49.697C36.1731 49.9902 36.2938 50.2344 36.4675 50.4298C36.646 50.6237 36.856 50.7541 37.0976 50.8207C37.3429 50.8811 37.6006 50.8729 37.8707 50.796ZM42.8997 49.5684C42.8235 49.6838 42.7187 49.7865 42.5853 49.8765C42.4556 49.9603 42.3136 50.0242 42.1592 50.0681C41.8023 50.1696 41.5047 50.1501 41.2666 50.0096C41.0285 49.869 40.8682 49.6204 40.7858 49.2637L40.2471 46.9329L39.567 47.1264L39.4654 46.6867L40.1455 46.4932L39.9507 45.6503L40.4644 45.5041L40.6592 46.347L41.8169 46.0176L41.9185 46.4574L40.7609 46.7868L41.2927 49.0882C41.3458 49.3179 41.4419 49.478 41.5811 49.5686C41.724 49.6529 41.9015 49.6649 42.1138 49.6045C42.2199 49.5743 42.3172 49.5284 42.4058 49.4667C42.4992 49.4037 42.5747 49.3302 42.6324 49.246L42.8997 49.5684ZM47.7378 44.3019C48.2153 44.166 48.6213 44.1989 48.9558 44.4006C49.2951 44.6009 49.5275 44.9722 49.6528 45.5146L50.1694 47.7501L49.6557 47.8962L49.1509 45.7121C49.0583 45.3114 48.8913 45.0334 48.6498 44.8782C48.4131 44.7216 48.1211 44.6928 47.7738 44.7916C47.3783 44.9041 47.096 45.1172 46.9268 45.4309C46.7566 45.7397 46.7217 46.1116 46.8222 46.5464L47.2897 48.5694L46.776 48.7155L46.2712 46.5314C46.1786 46.1307 46.0116 45.8527 45.7701 45.6975C45.5334 45.5409 45.239 45.5127 44.8869 45.6129C44.4962 45.7241 44.2138 45.9372 44.0399 46.2523C43.8696 46.5611 43.8348 46.9329 43.9353 47.3678L44.4028 49.3907L43.8891 49.5369L42.9981 45.6816L43.4901 45.5416L43.6527 46.2452C43.7336 45.9723 43.8799 45.738 44.0917 45.5423C44.3036 45.3466 44.5662 45.2042 44.8798 45.115C45.1981 45.0244 45.4889 45.0146 45.752 45.0856C46.02 45.1551 46.2429 45.3078 46.4208 45.5436C46.502 45.2497 46.6564 44.9949 46.8842 44.7791C47.1156 44.557 47.4001 44.398 47.7378 44.3019ZM54.4823 44.6405L51.2987 45.5463C51.4203 45.9387 51.6473 46.2204 51.9799 46.3914C52.3113 46.5575 52.6868 46.5808 53.1065 46.4614C53.3428 46.3942 53.5503 46.2909 53.7289 46.1516C53.9063 46.0073 54.0482 45.8316 54.1545 45.6243L54.5218 45.8791C54.4004 46.1323 54.2243 46.3491 53.9935 46.5293C53.7675 46.7082 53.5026 46.8408 53.1987 46.9273C52.808 47.0385 52.4415 47.0542 52.0992 46.9745C51.7606 46.8886 51.4725 46.7206 51.2348 46.4706C50.997 46.2205 50.8347 45.9074 50.7478 45.5312C50.6608 45.1549 50.6625 44.7951 50.7528 44.4518C50.8479 44.1071 51.0162 43.8118 51.2575 43.5661C51.5037 43.319 51.8029 43.1454 52.155 43.0452C52.5071 42.945 52.8423 42.9382 53.1605 43.0247C53.4786 43.1112 53.7517 43.2809 53.9798 43.5337C54.2067 43.7816 54.3642 44.0961 54.4523 44.4772L54.4823 44.6405ZM52.2583 43.4923C51.8917 43.5966 51.6107 43.8041 51.4152 44.1149C51.2234 44.4194 51.1547 44.7671 51.209 45.1578L53.9078 44.39C53.7859 44.0184 53.5725 43.7511 53.2675 43.5879C52.9661 43.4185 52.6298 43.3866 52.2583 43.4923ZM55.7189 42.867C55.7797 42.5738 55.913 42.3275 56.1189 42.1284C56.3296 41.9278 56.611 41.7774 56.9631 41.6773L57.08 42.183L56.9553 42.2107C56.5549 42.3246 56.2702 42.5384 56.101 42.8521C55.9319 43.1658 55.8993 43.5474 56.0032 43.9969L56.4571 45.9612L55.9434 46.1073L55.0525 42.2521L55.5445 42.1121L55.7189 42.867Z" fill="white"/>
</g>
<defs>
<clipPath id="clip0">
<rect y="2.90979" width="68.2574" height="65.4171" transform="rotate(-2.44324 0 2.90979)" fill="white"/>
</clipPath>
</defs>
</svg>
