<svg width="226" height="189" viewBox="0 0 226 189" fill="none" xmlns="http://www.w3.org/2000/svg">
<path d="M111.084 13.7915L216.606 124.65L226 117.716L117.38 3.60242C115.751 1.89389 113.389 0.938764 110.95 0.944976C108.487 0.964858 106.165 1.97258 104.577 3.70639L0 117.796L9.53899 124.575L111.084 13.7915Z" fill="white"/>
<path d="M109.542 23.8987L30.3113 110.336L45.9709 188.918H172.143L195.182 110.336L112.879 23.8726C111.946 22.8913 110.457 22.9042 109.542 23.8987ZM83.8117 84.4757C90.8882 81.2231 100.858 85.7357 106.078 94.5513C111.296 103.362 109.795 113.142 102.72 116.392C95.6439 119.645 85.6773 115.132 80.4569 106.317C75.2319 97.5041 76.7404 87.725 83.8117 84.4757ZM57.9 129.591C52.682 120.779 54.1848 110.998 61.2524 107.749C68.3275 104.497 78.3011 109.009 83.5191 117.826C88.7362 126.636 87.2347 136.416 80.1667 139.666C73.0916 142.916 63.1213 138.404 57.9 129.591ZM164.744 107.749C171.819 110.999 173.324 120.777 168.1 129.591C162.878 138.404 152.913 142.916 145.838 139.666C138.761 136.416 137.256 126.636 142.482 117.826C147.701 109.009 157.669 104.497 164.744 107.749ZM119.929 94.5513C125.146 85.739 135.121 81.2264 142.191 84.4757C149.263 87.725 150.768 97.5045 145.547 106.317C140.33 115.13 130.355 119.641 123.28 116.392C116.212 113.142 114.704 103.362 119.929 94.5513ZM137.598 140.825C137.598 141.956 137.466 143.056 137.239 144.129C144.128 144.792 146.885 152.172 146.885 158.417C146.885 165.103 140.731 170.529 133.131 170.529C126.328 170.529 122.425 169.806 114.269 166.056C112.687 166.407 102.277 170.529 95.4063 170.529C87.811 170.529 81.6541 165.102 81.6541 158.417C81.6541 151.936 84.8273 144.381 92.0957 144.057C91.876 143.008 91.7425 141.931 91.7425 140.825C91.7425 130.95 103.456 120.636 114.671 120.636C125.886 120.636 137.598 130.95 137.598 140.825Z" fill="white"/>
</svg>
