<svg width="193" height="31" viewBox="0 0 193 31" fill="none" xmlns="http://www.w3.org/2000/svg">
<path d="M-6.02431 31H181.448C182.608 31 183.536 30.5843 183.512 30.0754C183.34 26.4505 183.386 13.1625 192.77 8.14337C193.033 8.003 192.709 7.80106 192.319 7.86124C187.849 8.54986 174.524 10.9196 171.208 15.1294C171.076 15.2971 170.53 15.2886 170.426 15.1172L165.254 6.66089C165.156 6.49983 164.654 6.47861 164.488 6.62854L158.71 11.8232C158.572 11.9467 158.183 11.9601 158.003 11.8475L146.983 4.94117C146.775 4.81107 146.313 4.85368 146.243 5.00936L141.129 16.2821C141.044 16.4708 140.434 16.4774 140.328 16.2908L131.1 0.136491C130.997 -0.0431863 130.418 -0.0463188 130.305 0.132141L122.542 12.3911C122.439 12.5539 121.928 12.5706 121.771 12.4163L112.801 3.59489C112.645 3.44218 112.141 3.45644 112.032 3.61664L104.838 14.1712C104.718 14.3477 104.142 14.3408 104.044 14.1616L99.8052 6.41129C99.7125 6.24188 99.18 6.22292 99.0265 6.38364L87.283 18.6689C87.1423 18.816 86.6673 18.8164 86.5253 18.6694L70.8102 2.38655C70.6282 2.19783 69.9836 2.26618 70.022 2.47039C70.6104 5.61066 71.4624 14.2448 64.1556 18.2006C63.9518 18.3109 63.5542 18.2841 63.4443 18.1507L55.72 8.77111C55.5844 8.60656 55.0479 8.61456 54.9381 8.78276L48.5036 18.6569C48.4033 18.8106 47.9318 18.8364 47.7518 18.6974C45.4367 16.9055 35.8493 8.84294 40.6321 1.59931C40.6321 1.59931 28.0968 8.82242 27.6702 14.1437C27.6544 14.3397 27.0343 14.3825 26.8765 14.199L21.6869 8.1625C21.5469 7.99952 21.0136 8.00978 20.9066 8.17746L14.5894 18.0616C14.4677 18.2521 13.8345 18.2305 13.7853 18.0338C13.0922 15.2651 9.46638 7.48901 -9.49633 1.88717C-9.81828 1.79203 -10.2326 1.93049 -10.1137 2.0926C-8.27714 4.60043 -0.663822 16.3454 -8.02814 29.8833C-8.33859 30.4528 -7.35888 31 -6.02431 31Z" fill="#43A838"/>
</svg>
