<svg width="1440" height="46" viewBox="0 0 1440 46" fill="none" xmlns="http://www.w3.org/2000/svg">
<path d="M-27.7717 46H301.92C303.961 46 305.593 45.3831 305.55 44.6279C305.249 39.2491 305.329 19.5315 321.833 12.0837C322.294 11.8754 321.725 11.5758 321.039 11.6651C313.178 12.6869 289.745 16.2033 283.913 22.4501C283.68 22.6989 282.721 22.6862 282.537 22.432L273.442 9.88391C273.269 9.64491 272.387 9.61342 272.095 9.8359L261.933 17.5441C261.691 17.7273 261.007 17.7472 260.691 17.5802L241.31 7.33206C240.945 7.139 240.133 7.20224 240.008 7.43324L231.016 24.1605C230.865 24.4406 229.793 24.4504 229.606 24.1734L213.378 0.202536C213.197 -0.0640829 212.178 -0.0687311 211.98 0.196081L198.329 18.3868C198.147 18.6284 197.248 18.6532 196.972 18.4242L181.197 5.33436C180.923 5.10775 180.036 5.12891 179.844 5.36662L167.193 21.0282C166.981 21.2902 165.97 21.2798 165.798 21.014L158.342 9.51353C158.179 9.26214 157.243 9.23401 156.973 9.4725L136.321 27.7022C136.073 27.9205 135.238 27.921 134.988 27.703L107.351 3.54133C107.031 3.26129 105.897 3.36273 105.965 3.66574C107 8.32549 108.498 21.1374 95.6482 27.0074C95.2898 27.171 94.5904 27.1313 94.3973 26.9333L80.8131 13.0152C80.5746 12.771 79.6312 12.7829 79.4381 13.0325L68.1221 27.6844C67.9457 27.9125 67.1167 27.9507 66.8001 27.7445C62.7288 25.0856 45.8682 13.1218 54.2793 2.37316C54.2793 2.37316 32.2345 13.0913 31.4842 20.9874C31.4563 21.2783 30.3658 21.3418 30.0883 21.0695L20.9618 12.1121C20.7156 11.8703 19.7778 11.8855 19.5895 12.1343L8.47996 26.8012C8.2659 27.0838 7.15236 27.0518 7.0659 26.7599C5.84707 22.6514 -0.529439 11.1127 -33.8777 2.80032C-34.4438 2.65914 -35.1725 2.86459 -34.9633 3.10514C-31.7336 6.82644 -18.3446 24.2545 -31.2957 44.343C-31.8416 45.188 -30.1187 46 -27.7717 46Z" fill="#43A838"/>
<path d="M294.228 46H623.92C625.961 46 627.593 45.3831 627.55 44.6279C627.249 39.2491 627.329 19.5315 643.833 12.0837C644.294 11.8754 643.725 11.5758 643.039 11.6651C635.178 12.6869 611.745 16.2033 605.913 22.4501C605.68 22.6989 604.721 22.6862 604.537 22.432L595.442 9.88391C595.269 9.64491 594.387 9.61342 594.095 9.8359L583.933 17.5441C583.691 17.7273 583.007 17.7472 582.691 17.5802L563.31 7.33206C562.945 7.139 562.133 7.20224 562.008 7.43324L553.016 24.1605C552.865 24.4406 551.793 24.4504 551.606 24.1734L535.378 0.202536C535.197 -0.0640829 534.178 -0.0687311 533.98 0.196081L520.329 18.3868C520.147 18.6284 519.248 18.6532 518.972 18.4242L503.197 5.33436C502.923 5.10775 502.036 5.12891 501.844 5.36662L489.193 21.0282C488.981 21.2902 487.97 21.2798 487.798 21.014L480.342 9.51353C480.179 9.26214 479.243 9.23401 478.973 9.4725L458.321 27.7022C458.073 27.9205 457.238 27.921 456.988 27.703L429.351 3.54133C429.031 3.26129 427.897 3.36273 427.965 3.66574C429 8.32549 430.498 21.1374 417.648 27.0074C417.29 27.171 416.59 27.1313 416.397 26.9333L402.813 13.0152C402.575 12.771 401.631 12.7829 401.438 13.0325L390.122 27.6844C389.946 27.9125 389.117 27.9507 388.8 27.7445C384.729 25.0856 367.868 13.1218 376.279 2.37316C376.279 2.37316 354.234 13.0913 353.484 20.9874C353.456 21.2783 352.366 21.3418 352.088 21.0695L342.962 12.1121C342.716 11.8703 341.778 11.8855 341.59 12.1343L330.48 26.8012C330.266 27.0838 329.152 27.0518 329.066 26.7599C327.847 22.6514 321.471 11.1127 288.122 2.80032C287.556 2.65914 286.828 2.86459 287.037 3.10514C290.266 6.82644 303.655 24.2545 290.704 44.343C290.158 45.188 291.881 46 294.228 46Z" fill="#43A838"/>
<path d="M608.228 46H937.92C939.961 46 941.593 45.3831 941.55 44.6279C941.249 39.2491 941.329 19.5315 957.833 12.0837C958.294 11.8754 957.725 11.5758 957.039 11.6651C949.178 12.6869 925.745 16.2033 919.913 22.4501C919.68 22.6989 918.721 22.6862 918.537 22.432L909.442 9.88391C909.269 9.64491 908.387 9.61342 908.095 9.8359L897.933 17.5441C897.691 17.7273 897.007 17.7472 896.691 17.5802L877.31 7.33206C876.945 7.139 876.133 7.20224 876.008 7.43324L867.016 24.1605C866.865 24.4406 865.793 24.4504 865.606 24.1734L849.378 0.202536C849.197 -0.0640829 848.178 -0.0687311 847.98 0.196081L834.329 18.3868C834.147 18.6284 833.248 18.6532 832.972 18.4242L817.197 5.33436C816.923 5.10775 816.036 5.12891 815.844 5.36662L803.193 21.0282C802.981 21.2902 801.97 21.2798 801.798 21.014L794.342 9.51353C794.179 9.26214 793.243 9.23401 792.973 9.4725L772.321 27.7022C772.073 27.9205 771.238 27.921 770.988 27.703L743.351 3.54133C743.031 3.26129 741.897 3.36273 741.965 3.66574C743 8.32549 744.498 21.1374 731.648 27.0074C731.29 27.171 730.59 27.1313 730.397 26.9333L716.813 13.0152C716.575 12.771 715.631 12.7829 715.438 13.0325L704.122 27.6844C703.946 27.9125 703.117 27.9507 702.8 27.7445C698.729 25.0856 681.868 13.1218 690.279 2.37316C690.279 2.37316 668.234 13.0913 667.484 20.9874C667.456 21.2783 666.366 21.3418 666.088 21.0695L656.962 12.1121C656.716 11.8703 655.778 11.8855 655.59 12.1343L644.48 26.8012C644.266 27.0838 643.152 27.0518 643.066 26.7599C641.847 22.6514 635.471 11.1127 602.122 2.80032C601.556 2.65914 600.828 2.86459 601.037 3.10514C604.266 6.82644 617.655 24.2545 604.704 44.343C604.158 45.188 605.881 46 608.228 46Z" fill="#43A838"/>
<path d="M930.228 46H1259.92C1261.96 46 1263.59 45.3831 1263.55 44.6279C1263.25 39.2491 1263.33 19.5315 1279.83 12.0837C1280.29 11.8754 1279.73 11.5758 1279.04 11.6651C1271.18 12.6869 1247.74 16.2033 1241.91 22.4501C1241.68 22.6989 1240.72 22.6862 1240.54 22.432L1231.44 9.88391C1231.27 9.64491 1230.39 9.61342 1230.09 9.8359L1219.93 17.5441C1219.69 17.7273 1219.01 17.7472 1218.69 17.5802L1199.31 7.33206C1198.94 7.139 1198.13 7.20224 1198.01 7.43324L1189.02 24.1605C1188.87 24.4406 1187.79 24.4504 1187.61 24.1734L1171.38 0.202536C1171.2 -0.0640829 1170.18 -0.0687311 1169.98 0.196081L1156.33 18.3868C1156.15 18.6284 1155.25 18.6532 1154.97 18.4242L1139.2 5.33436C1138.92 5.10775 1138.04 5.12891 1137.84 5.36662L1125.19 21.0282C1124.98 21.2902 1123.97 21.2798 1123.8 21.014L1116.34 9.51353C1116.18 9.26214 1115.24 9.23401 1114.97 9.4725L1094.32 27.7022C1094.07 27.9205 1093.24 27.921 1092.99 27.703L1065.35 3.54133C1065.03 3.26129 1063.9 3.36273 1063.96 3.66574C1065 8.32549 1066.5 21.1374 1053.65 27.0074C1053.29 27.171 1052.59 27.1313 1052.4 26.9333L1038.81 13.0152C1038.57 12.771 1037.63 12.7829 1037.44 13.0325L1026.12 27.6844C1025.95 27.9125 1025.12 27.9507 1024.8 27.7445C1020.73 25.0856 1003.87 13.1218 1012.28 2.37316C1012.28 2.37316 990.234 13.0913 989.484 20.9874C989.456 21.2783 988.366 21.3418 988.088 21.0695L978.962 12.1121C978.716 11.8703 977.778 11.8855 977.59 12.1343L966.48 26.8012C966.266 27.0838 965.152 27.0518 965.066 26.7599C963.847 22.6514 957.471 11.1127 924.122 2.80032C923.556 2.65914 922.828 2.86459 923.037 3.10514C926.266 6.82644 939.655 24.2545 926.704 44.343C926.158 45.188 927.881 46 930.228 46Z" fill="#43A838"/>
<path d="M1244.23 46H1573.92C1575.96 46 1577.59 45.3831 1577.55 44.6279C1577.25 39.2491 1577.33 19.5315 1593.83 12.0837C1594.29 11.8754 1593.73 11.5758 1593.04 11.6651C1585.18 12.6869 1561.74 16.2033 1555.91 22.4501C1555.68 22.6989 1554.72 22.6862 1554.54 22.432L1545.44 9.88391C1545.27 9.64491 1544.39 9.61342 1544.09 9.8359L1533.93 17.5441C1533.69 17.7273 1533.01 17.7472 1532.69 17.5802L1513.31 7.33206C1512.94 7.139 1512.13 7.20224 1512.01 7.43324L1503.02 24.1605C1502.87 24.4406 1501.79 24.4504 1501.61 24.1734L1485.38 0.202536C1485.2 -0.0640829 1484.18 -0.0687311 1483.98 0.196081L1470.33 18.3868C1470.15 18.6284 1469.25 18.6532 1468.97 18.4242L1453.2 5.33436C1452.92 5.10775 1452.04 5.12891 1451.84 5.36662L1439.19 21.0282C1438.98 21.2902 1437.97 21.2798 1437.8 21.014L1430.34 9.51353C1430.18 9.26214 1429.24 9.23401 1428.97 9.4725L1408.32 27.7022C1408.07 27.9205 1407.24 27.921 1406.99 27.703L1379.35 3.54133C1379.03 3.26129 1377.9 3.36273 1377.96 3.66574C1379 8.32549 1380.5 21.1374 1367.65 27.0074C1367.29 27.171 1366.59 27.1313 1366.4 26.9333L1352.81 13.0152C1352.57 12.771 1351.63 12.7829 1351.44 13.0325L1340.12 27.6844C1339.95 27.9125 1339.12 27.9507 1338.8 27.7445C1334.73 25.0856 1317.87 13.1218 1326.28 2.37316C1326.28 2.37316 1304.23 13.0913 1303.48 20.9874C1303.46 21.2783 1302.37 21.3418 1302.09 21.0695L1292.96 12.1121C1292.72 11.8703 1291.78 11.8855 1291.59 12.1343L1280.48 26.8012C1280.27 27.0838 1279.15 27.0518 1279.07 26.7599C1277.85 22.6514 1271.47 11.1127 1238.12 2.80032C1237.56 2.65914 1236.83 2.86459 1237.04 3.10514C1240.27 6.82644 1253.66 24.2545 1240.7 44.343C1240.16 45.188 1241.88 46 1244.23 46Z" fill="#43A838"/>
</svg>
